<svg xmlns="http://www.w3.org/2000/svg" viewBox="0 0 1024 778" xmlns:v="https://vecta.io/nano"><path d="M872.2,673c5.4-1.5,10.5-4.3,13.8-8.9v8.9H872.2z" fill="#fff"/><path d="M333.2 107c.7-.7 1.5-1.4 2.3-2l.1 70.2-124.2 134.6-34.8-32L333.2 107z" fill="#ffcb05"/><path d="M211.3 309.8l124.2-134.6v70.2l-89.1 96.3-35.1-31.9z" fill="#ee1c25"/><path d="M246.4 341.7l89.1-96.3-.1 66.5-54.9 61-34.1-31.2z" fill="#7f4099"/><path d="M149.1 306.4l20.1-21.2 104.6 96.1-26.6 29.1c-6 6-16 5.7-22.6.6-8.7-6.8-16.4-14.8-24.6-22.1-4.1-3.2-10.6-3-13.9 1.2-6.8 8.3-6.4 21.6-16.4 27.5-10.7 6.4-25.2-.2-29.3-11.4-2.3-7.7-1.6-17.7 5.6-22.7 5.8-3.5 12-6.4 17.8-9.9 4.8-3.2 7.2-10.5 3-15.1-6.4-7.2-14-13.3-20.9-20-3.9-4.1-6.1-9.8-5.5-15.5.6-6.4 4.3-12 8.7-16.6zM418 606.1c3.8-.9 7.6-2.1 11.5-2.8 4 1.6 2.4 6.5 2.3 9.8V662c-.5 3.3 6.2 5 2.7 8.1-4.2.7-10.5 2.3-13.1-2.2-6.8 4.4-16.7 6.2-23.4.7-9.6-7.5-10.5-22.2-4.5-32.2 5.1-8.6 17.1-12.3 26.1-7.9-.1-4.6.4-9.2 0-13.8-.2-2.7-3.4-3.3-4.8-5.2-.1-1.8 1.6-3.1 3.2-3.4m-5.8 26.3c-7.7 1-9.8 10-10 16.5-.3 5.8 1.6 14 8.3 15.2 4.5 1.7 9.5-2.6 9.7-7.2.4-5.6.1-11.2-.1-16.8-.1-4-3.8-8-7.9-7.7zm231.5-28.5c1.3-.3 3.4-.5 3.8 1.2l-.1 57.8c-.3 2.4 2.3 2.7 3.7 4 1.7 1.3.2 4.1-1.8 4-4.9.2-9.8.2-14.7.1-1.4.1-3.5-.7-3.5-2.3.4-2.8 4.7-2.8 4.5-5.8v-45.3c0-2-.1-4.5-2.3-5.3-1.4-.7-4-2.3-1.9-3.8 4-2 8.2-3.3 12.3-4.6zm41.6 2.1c3.9-.9 7.7-2.1 11.6-2.8 4 1.7 2.3 6.5 2.2 9.8v49c-.3 3.2 6.6 5.5 2.3 8.2-4.2.2-10.2 2.1-12.6-2.5-6.4 4-15.4 6.1-22.1 1.7-11.5-7.5-12.4-25-4.4-35.3 5.8-7 16.4-9.7 24.6-5.7-.1-4.7.3-9.5-.1-14.2-.4-2.5-3.4-3-4.7-4.9-.2-1.6 1.6-3 3.2-3.3m-5.7 26.4c-4.8.4-8 4.9-9 9.3-1.7 6.6-2 14.5 2.6 20 3.8 4.3 11.7 3.5 13.7-2.2 1.4-6.1.5-12.4.5-18.5.3-4.4-3.4-8.9-7.8-8.6zM824.8 606c3.9-.9 7.7-2.2 11.6-2.7 4.1 2 2 7.1 2.1 10.6l.1 48.3c-.3 3.1 6.6 5.5 2.3 8.2-4.1.3-10.3 2.2-12.6-2.4-6.8 4.3-16.6 6.2-23.4.9-9.3-7.1-10.6-21.1-5.4-31.1 4.7-9.4 17.3-13.8 26.8-9.2 0-4.6.4-9.3.1-13.9-.3-2.7-3.3-3.3-4.9-5.1-.1-2 1.7-3.3 3.3-3.6m-5.7 26.4c-5.3.4-8.4 5.5-9.4 10.2-1.5 6.6-1.5 14.7 3.7 19.8 4.2 3.7 11.5 2.1 13.2-3.5 1.1-6.2.5-12.6.2-18.8 0-4-3.7-7.9-7.7-7.7zm-358.7-23.7c.3-1.8 2.4-2.9 4.1-2.8h14.7c1.5-.1 3.2 1.1 3 2.7-.2 2.8-4.4 2.9-4.1 5.8 1.2 13.4 4.3 26.5 8.6 39.2.5 1 .6 2.6 1.9 2.7 3.7-6.8 5.2-14.5 7-22 1.3-6.7 3.3-13.7 1.5-20.5-.6-2.7-4.3-3.7-4-6.7 1.9-2.9 5.8-1.5 8.7-1.8 3.8.5 8.3-1.1 11.6 1 1.6 3.2-1.9 4.6-3.5 6.5.3 10.4 4.2 20.2 7.1 30 1.7 4.6 2.8 9.5 5.2 13.7 5.7-12.6 8.2-26.5 10.6-40.2.9-3.9-3.5-4.9-5.6-7.1-1.3-1.2 0-3.7 1.7-3.5 4.8.2 9.8-.4 14.6.3 3 1.9-.6 4.7-2.3 6-1.9 18.4-7.5 36.2-14.4 53.4-1.1 3.1-3.6 6.3-7.2 6.2-4.1-.4-7.2-3.9-8.3-7.6-3.3-7.9-5.8-16.2-9.7-23.9-2.5 9-5.1 18.1-9.6 26.4-1.5 2.7-4 6.1-7.6 5.2-4.5-.5-5.5-5.4-7-8.8-7.5-15.5-10-32.7-13.3-49.5-.7-1.7-3.6-2.4-3.7-4.7zM138 614.4c1.2-2.9.8-8.3 5.1-8.2H187c3.8 0 4.2 4.5 4.7 7.3.2 2.1 1.4 5.1-.9 6.5-2.8.6-4.6-2.1-6.4-3.7-3.2-3.4-8.1-4-12.5-3.5v50c-.5 4 5.5 3.5 5.5 7.2-4.3 2.7-9.9.9-14.7 1.4-3-.4-6.9.8-9.2-1.6-1.4-4 5.2-2.6 4.7-6.2l-.1-50.6c-4.1-.7-8.8-.6-12.1 2.4-2.6 1.8-4.5 5.7-8.1 4.6v-5.6zm640.1-3.9c4.1-1.8 9.7.7 9.6 5.6.7 6.3-8.4 8.9-12.4 4.8-3.6-3.1-1.5-9.4 2.8-10.4zm-448.4 4.4c1.2-1.8 4.5-1.1 4.6 1.1.5 3.9.2 7.9.1 11.9 2.6.6 5.4.1 8 .6 2.6.6 3.4 4.8.8 5.9-2.8.7-5.8.3-8.7.5v27.8c.8 3.2 4.8 2.1 7.3 2.4 3-.4 4.5 4.7 1.2 5.4-5.3.8-10.7.3-16 .2-2.4.2-4.8-1.8-4.6-4.3v-31.8c-2.5.1-6.9.4-6.8-3.2 1-3.9 6.2-1.9 8.5-4.5 4-2.8 3.2-8.3 5.6-12zm-121 19.1c3.4-5.2 12-10.1 16.8-4 3.3 4.3-2.1 9.7-6.6 7.3-1.9-1.3-4.4-1.4-5.5.9-4 6.3-2.1 14-2.5 21-.2 2.9-.4 7.1 3.3 7.7 2.6.2 3.1 4 .4 4.5-5.6.1-11.2-.1-16.8 0-1.5 0-3.9.1-3.8-2.1.7-2.7 5.2-2.6 4.8-5.8l-.1-23.4c-.1-3.7-5.4-3.9-5.9-7.2 1.7-3.8 6.2-5.7 10.2-5.4 3.2.6 3.8 4.4 5.7 6.5zm138.7 6.6c4.8-12.2 21.8-17.6 32.7-10.3 5.4 3.4 6.8 11.5 2.5 16.4-6.3 6.4-15.8 7.7-24.4 7.9.6 3.2 1.4 6.7 4.1 8.8 3.7 3 9.1 2.7 13.3 1 2.9-1 4.7-3.8 7.5-4.9 2.3-.6 3.3 2.8 2 4.4-7.5 10-23.5 11-32.7 2.8-7-6.5-8.3-17.5-5-26.1m16.6-6.8c-4.9 3.2-6 9.5-6.1 14.9 4.4-.2 9.2-.9 12.6-4 2.7-2.5 4.1-7.1 1.9-10.4-2-2.5-5.9-1.9-8.4-.5zm231.7-1c1.6-4.2 6.8-6.4 11-5.5 2.6 1.2 3.1 4.4 5 6.3 2.4-3.3 5.8-5.9 9.8-6.8 4-.8 8.6 2.7 7.7 7-.8 3.9-6 4.3-8.9 2.5-2.2-1.5-4.1 1.1-4.8 2.9-3.2 7.2-1.1 15.3-1.7 22.9-.5 2.8 2.2 4 4.4 4.9 2.1.7 1.1 4.1-1 4-5.4.1-10.7-.1-16.1 0-1.5-.1-3.7.2-4.2-1.6.1-3 4.9-2.7 4.7-5.9l-.1-24c-.3-3.4-4.8-3.8-5.8-6.7zm187.6-5.4c2-.5 3.9 1.3 3.9 3.3.2 10.9-.1 21.9.1 32.8-.3 2.3 2.4 2.6 3.6 3.8 1.3 1.8-.9 3.9-2.7 3.6-4.6.1-9.3 0-13.9 0-1.5.2-3.5-1.2-2.7-2.9 1.2-1.9 4.5-2.5 4.1-5.3l-.1-24.8c0-3.5-7.2-2-5-6 3.6-2.4 8.6-2.7 12.7-4.5zm-218.5.6c7.7-1.5 16.6.7 21.5 7.3 8.7 10.1 5.9 27.3-5.4 34.2-10.4 5.8-26.5 3.9-32.1-7.7-3.3-7.5-2.7-16.7 1.2-23.9 3-5.4 8.8-8.9 14.8-9.9m2.2 5.1c-7.1 2.8-8.6 11.8-8.4 18.6.7 5.1 1.5 10.8 5.3 14.6 4.1 3.6 10.8.7 12.8-3.9 3.1-6.8 3.1-14.7 1.3-21.9-1.2-4.5-5.9-9.2-11-7.4zm287.9-.7c7.3-5.1 17.9-6.5 25.5-1.3 5.4 3.4 6.9 11.4 2.6 16.3-6.2 6.6-15.8 7.7-24.4 8 .7 3.8 2 8.1 5.7 10 5.5 2.6 12.2.6 16.4-3.4 1.4-1.5 3.4-2.1 5.2-.8v3c-3.3 4.5-8.5 7.4-13.8 8.9h-7.6c-3.9-1-7.9-2.2-11-4.8-10.5-8.9-10-28 1.4-35.9m5.5 4.8c-2.2 3.7-2.3 8.2-2.2 12.4 4.5-.1 9.3-.9 12.7-4 2.7-2.7 4.2-7.6 1.4-10.7-3.5-3.1-9.6-1.7-11.9 2.3zm-621.3-8.5c2.1-.5 5.2-.1 5.4 2.7.2 9.5-.3 19 .2 28.4.2 4.1 4.3 7.1 8.3 6.2 4.1-.3 6-4.8 5.8-8.4-.1-6.6.4-13.2-.1-19.7-.1-2.5-3.5-3.9-2.9-6.3 3.2-2 7.2-2.3 10.9-2.9 2.4-.4 4 2 3.9 4.2l.6 31.8c1 2.1 6.5 4.4 3.2 6.6-4.9.1-12.3 2.1-14.6-3.7-2.9 2.9-6.8 4.3-10.7 5.3h-4.6c-5.7-1.2-11.1-5.4-11.7-11.6-.5-7.8 0-15.7-.2-23.5-.1-2.5-2.6-4-3.9-5.9 2.6-2.6 6.8-2.5 10.4-3.2zm45.6 2.5c6.9-3.7 15.7-4.1 22.8-.7 3.8 1.7 2.6 6.5 3.2 9.8-5.5 4.1-6.7-6.6-12-6.3-5-2.1-11.6 3.3-8.1 8.3 4.7 4.3 12.2 2.2 17.2 6.2 6.9 4.4 6.3 15 .6 20.2-2.4 2.3-5.7 3.3-8.9 4.2h-9.1c-5.3-.9-10.8-3.4-13.1-8.6-1.5-2.8 1.7-7 4.8-5.6 2 1.5 3 3.8 4.8 5.4 3 3.1 8.2 3.7 12 1.6 2.7-1.5 3.3-5.8.7-7.7-5-3.6-12.1-1.7-17-5.7-7.3-4.8-5.4-17.1 2.1-21.1zm417.9.1c.2-1.4 1.6-2.5 3-2.4 4.1-.1 8.3-.1 12.4 0 1.5 0 3.2 1.4 2.8 3.1-.1 1.8-3.3 1.7-3 3.7 1.1 8.8 2.8 17.7 6.8 25.7.4 1 1.5-.1 1.6-.8 4.1-8.1 6.7-17.6 4.3-26.6-2.8.1-4.4-3.6-1.2-4.4a65.52 65.52 0 0 1 14 0c2.4 1.8-.5 4.2-1.8 5.6 1.4 8.9 3.3 17.9 7.2 26.1.4 1 1.7.7 1.8-.3 3.3-7.3 6.4-15 6.4-23.1.5-3.4-6.3-4.6-3.1-8 3.7-1.3 8.1-.5 12.1-.5 3.5 1.2.7 4.9-.9 6.5-3 11.2-6 22.6-12 32.6-2 4.4-8.2 4.2-11.8 2.4-2.8-4.3-3.6-9.8-6.9-13.8-2.3 5.1-3.8 11.3-8.8 14.5-3.1.1-7.7 1.5-9.4-1.9-5.4-10.4-9.2-21.8-10.2-33.6.1-2.3-3.9-2.3-3.3-4.8z" fill="#231f20"/><path d="M513.3 480.7c11.8-18.1 33-28.6 54.2-30.2 15.2.1 31.1 3.9 43.2 13.5 9.6 7.6 16.5 18.8 18.5 31h-35.4c-1.7.3-2.8-1.1-3.8-2.2-4.7-4.9-10.5-9.2-17.3-10.7-8.9-1.8-18.4 2.2-23.6 9.6-5.3 7.4-8.2 16.6-8.4 25.7.8 10.3 4.7 21 12.8 27.9 6 5 14.2 8.3 22 6.2 6.7-1.2 13-6.3 14-13.4h-13.4v-29h53.1l-.1 73.2c-8.5-.1-17.1 0-25.6-.1l-2.4-7.2c-8.5 7.6-20.5 8.1-31.4 8.6-16.5.7-33.2-5.4-45.3-16.6-11.9-11.1-20.2-26.2-22.8-42.3-.4-15.3 3.2-31.1 11.7-44zm-131.1-28.1l77.2.5c13.8.5 28.7 6.9 34.9 19.9 7.8 16.1 4.7 38.9-11.1 49.1 10.9 8.7 14.4 23.6 13.9 36.9.4 7.6-.3 16.1 4.4 22.6-12.9-.1-25.7 0-38.6-.1-2.4.4-3.5-2.3-3.6-4.2l-2.3-23.5c-.9-6.4-5.4-12.9-12.2-13.6-7.1-.5-14.2-.2-21.3-.2-2.2-.1-2.6 2.6-2.6 4.3l-.1 36.9h-38.2c-.1-.3-.3-.8-.4-1V452.6m38.9 33.4l-.1 25.1c9.4.3 18.8.1 28.2.1 6.2.2 12.3-4.6 12.8-10.9 1.2-6.8-4.6-13.5-11.4-13.8l-29.5-.5zM764 452.5l74.5.4c11.4.2 23.3 3.5 31.5 11.7 8.3 8.2 11 20.5 9.8 31.8-1.3 9.9-5.9 20.4-15 25.4 10.5 8.5 14.3 22.7 14.1 35.7.2 8.1-.4 17 4.3 24-13-.1-25.9 0-38.8-.1-2 .1-3-2.1-3.2-3.8l-2.3-23.5c-.8-6.4-5.2-13.1-12-14-7-.6-14.1 0-21.2-.3-2.5-.4-3.1 2.6-3.1 4.4v36.7l-38.7.1.1-128.5m38.8 33.5l.1 25.3h28.4c5.5 0 11-3.7 12.2-9.2 2.2-7.1-3.4-15-10.7-15.5-10.1-.5-20-.3-30-.6zm-663.1-32.8l69.9-.2c7.3.1 14.8 1.4 21.2 5.2 10.3 5.9 16.4 17.6 17.5 29.2.9 10-2.7 19.8-7.9 28.1 15.6 12.4 17.5 36.9 6.3 52.8-6.1 8.9-17.1 13-27.6 13-26.4-.1-52.9 0-79.3-.1l-.1-128m35.5 31.5c-.2 6.4 0 12.7-.1 19.1 9.8.3 19.5.3 29.3.4 5.1.3 10.3-3.6 11.1-8.7 1.1-5.5-4-11.2-9.6-10.8h-30.7m0 48.6v19.2l29.3-.1c4.9.2 10.1-3 11-8 1.2-5.6-3.9-11.5-9.6-11.2l-30.7.1zm85.3-80.4h110.4l-.1 33.6c-23.6-.1-47.2-.1-70.8 0v14.2h59.9l-.1 33.2c-19.7-.1-39.5-.1-59.2 0v18H371c.2 9.8.1 19.5.1 29.3H260.5V452.9zm381.7.1l110.4-.1.1 33.4c-23.7.4-47.4-.1-71.1.2.1 4.7.1 9.4 0 14.1l59.9.1c-.2 11 .7 22.5-.4 33.1-19.6.2-39.2-.1-58.9.1.1 6 .1 12 0 18l70.5.1v29.4c-36.8-.1-73.7-.1-110.5 0V453z" fill="#00adef"/></svg>