<?xml version="1.0" encoding="utf-8"?>
<!-- Generator: Adobe Illustrator 28.1.0, SVG Export Plug-In . SVG Version: 6.00 Build 0)  -->
<svg version="1.1" id="Layer_1" xmlns:v="https://vecta.io/nano"
	 xmlns="http://www.w3.org/2000/svg" xmlns:xlink="http://www.w3.org/1999/xlink" x="0px" y="0px" viewBox="0 0 748.1 568.1"
	 style="enable-background:new 0 0 748.1 568.1;" xml:space="preserve">
<style type="text/css">
	.st0{fill:#FFCB05;}
	.st1{fill:#EE1C25;}
	.st2{fill:#7F4099;}
	.st3{fill:#231F20;}
	.st4{fill:#00ADEF;}
</style>
<path class="st0" d="M195.3,2c0.7-0.7,1.5-1.4,2.3-2l0.1,70.2L73.5,204.8l-34.8-32L195.3,2z"/>
<path class="st1" d="M73.4,204.8L197.6,70.2v70.2l-89.1,96.3L73.4,204.8L73.4,204.8z"/>
<path class="st2" d="M108.5,236.7l89.1-96.3l-0.1,66.5l-54.9,61L108.5,236.7z"/>
<path class="st3" d="M11.2,201.4l20.1-21.2l104.6,96.1l-26.6,29.1c-6,6-16,5.7-22.6,0.6c-8.7-6.8-16.4-14.8-24.6-22.1
	c-4.1-3.2-10.6-3-13.9,1.2c-6.8,8.3-6.4,21.6-16.4,27.5c-10.7,6.4-25.2-0.2-29.3-11.4c-2.3-7.7-1.6-17.7,5.6-22.7
	c5.8-3.5,12-6.4,17.8-9.9c4.8-3.2,7.2-10.5,3-15.1c-6.4-7.2-14-13.3-20.9-20c-3.9-4.1-6.1-9.8-5.5-15.5
	C3.1,211.6,6.8,206,11.2,201.4L11.2,201.4z M280.1,501.1c3.8-0.9,7.6-2.1,11.5-2.8c4,1.6,2.4,6.5,2.3,9.8V557
	c-0.5,3.3,6.2,5,2.7,8.1c-4.2,0.7-10.5,2.3-13.1-2.2c-6.8,4.4-16.7,6.2-23.4,0.7c-9.6-7.5-10.5-22.2-4.5-32.2
	c5.1-8.6,17.1-12.3,26.1-7.9c-0.1-4.6,0.4-9.2,0-13.8c-0.2-2.7-3.4-3.3-4.8-5.2C276.8,502.7,278.5,501.4,280.1,501.1 M274.3,527.4
	c-7.7,1-9.8,10-10,16.5c-0.3,5.8,1.6,14,8.3,15.2c4.5,1.7,9.5-2.6,9.7-7.2c0.4-5.6,0.1-11.2-0.1-16.8
	C282.1,531.1,278.4,527.1,274.3,527.4z M505.8,498.9c1.3-0.3,3.4-0.5,3.8,1.2l-0.1,57.8c-0.3,2.4,2.3,2.7,3.7,4
	c1.7,1.3,0.2,4.1-1.8,4c-4.9,0.2-9.8,0.2-14.7,0.1c-1.4,0.1-3.5-0.7-3.5-2.3c0.4-2.8,4.7-2.8,4.5-5.8v-45.3c0-2-0.1-4.5-2.3-5.3
	c-1.4-0.7-4-2.3-1.9-3.8C497.5,501.5,501.7,500.2,505.8,498.9L505.8,498.9z M547.4,501c3.9-0.9,7.7-2.1,11.6-2.8
	c4,1.7,2.3,6.5,2.2,9.8v49c-0.3,3.2,6.6,5.5,2.3,8.2c-4.2,0.2-10.2,2.1-12.6-2.5c-6.4,4-15.4,6.1-22.1,1.7
	c-11.5-7.5-12.4-25-4.4-35.3c5.8-7,16.4-9.7,24.6-5.7c-0.1-4.7,0.3-9.5-0.1-14.2c-0.4-2.5-3.4-3-4.7-4.9
	C544,502.7,545.8,501.3,547.4,501 M541.7,527.4c-4.8,0.4-8,4.9-9,9.3c-1.7,6.6-2,14.5,2.6,20c3.8,4.3,11.7,3.5,13.7-2.2
	c1.4-6.1,0.5-12.4,0.5-18.5C549.8,531.6,546.1,527.1,541.7,527.4z M686.9,501c3.9-0.9,7.7-2.2,11.6-2.7c4.1,2,2,7.1,2.1,10.6
	l0.1,48.3c-0.3,3.1,6.6,5.5,2.3,8.2c-4.1,0.3-10.3,2.2-12.6-2.4c-6.8,4.3-16.6,6.2-23.4,0.9c-9.3-7.1-10.6-21.1-5.4-31.1
	c4.7-9.4,17.3-13.8,26.8-9.2c0-4.6,0.4-9.3,0.1-13.9c-0.3-2.7-3.3-3.3-4.9-5.1C683.5,502.6,685.3,501.3,686.9,501 M681.2,527.4
	c-5.3,0.4-8.4,5.5-9.4,10.2c-1.5,6.6-1.5,14.7,3.7,19.8c4.2,3.7,11.5,2.1,13.2-3.5c1.1-6.2,0.5-12.6,0.2-18.8
	C688.9,531.1,685.2,527.2,681.2,527.4z M322.5,503.7c0.3-1.8,2.4-2.9,4.1-2.8h14.7c1.5-0.1,3.2,1.1,3,2.7c-0.2,2.8-4.4,2.9-4.1,5.8
	c1.2,13.4,4.3,26.5,8.6,39.2c0.5,1,0.6,2.6,1.9,2.7c3.7-6.8,5.2-14.5,7-22c1.3-6.7,3.3-13.7,1.5-20.5c-0.6-2.7-4.3-3.7-4-6.7
	c1.9-2.9,5.8-1.5,8.7-1.8c3.8,0.5,8.3-1.1,11.6,1c1.6,3.2-1.9,4.6-3.5,6.5c0.3,10.4,4.2,20.2,7.1,30c1.7,4.6,2.8,9.5,5.2,13.7
	c5.7-12.6,8.2-26.5,10.6-40.2c0.9-3.9-3.5-4.9-5.6-7.1c-1.3-1.2,0-3.7,1.7-3.5c4.8,0.2,9.8-0.4,14.6,0.3c3,1.9-0.6,4.7-2.3,6
	c-1.9,18.4-7.5,36.2-14.4,53.4c-1.1,3.1-3.6,6.3-7.2,6.2c-4.1-0.4-7.2-3.9-8.3-7.6c-3.3-7.9-5.8-16.2-9.7-23.9
	c-2.5,9-5.1,18.1-9.6,26.4c-1.5,2.7-4,6.1-7.6,5.2c-4.5-0.5-5.5-5.4-7-8.8c-7.5-15.5-10-32.7-13.3-49.5
	C325.5,506.7,322.6,506,322.5,503.7L322.5,503.7z M0.1,509.4c1.2-2.9,0.8-8.3,5.1-8.2h43.9c3.8,0,4.2,4.5,4.7,7.3
	c0.2,2.1,1.4,5.1-0.9,6.5c-2.8,0.6-4.6-2.1-6.4-3.7c-3.2-3.4-8.1-4-12.5-3.5v50c-0.5,4,5.5,3.5,5.5,7.2c-4.3,2.7-9.9,0.9-14.7,1.4
	c-3-0.4-6.9,0.8-9.2-1.6c-1.4-4,5.2-2.6,4.7-6.2L20.2,508c-4.1-0.7-8.8-0.6-12.1,2.4c-2.6,1.8-4.5,5.7-8.1,4.6v-5.6L0.1,509.4z
	 M640.2,505.5c4.1-1.8,9.7,0.7,9.6,5.6c0.7,6.3-8.4,8.9-12.4,4.8C633.8,512.8,635.9,506.5,640.2,505.5L640.2,505.5z M191.8,509.9
	c1.2-1.8,4.5-1.1,4.6,1.1c0.5,3.9,0.2,7.9,0.1,11.9c2.6,0.6,5.4,0.1,8,0.6c2.6,0.6,3.4,4.8,0.8,5.9c-2.8,0.7-5.8,0.3-8.7,0.5v27.8
	c0.8,3.2,4.8,2.1,7.3,2.4c3-0.4,4.5,4.7,1.2,5.4c-5.3,0.8-10.7,0.3-16,0.2c-2.4,0.2-4.8-1.8-4.6-4.3v-31.8c-2.5,0.1-6.9,0.4-6.8-3.2
	c1-3.9,6.2-1.9,8.5-4.5C190.2,519.1,189.4,513.6,191.8,509.9L191.8,509.9z M70.8,529c3.4-5.2,12-10.1,16.8-4
	c3.3,4.3-2.1,9.7-6.6,7.3c-1.9-1.3-4.4-1.4-5.5,0.9c-4,6.3-2.1,14-2.5,21c-0.2,2.9-0.4,7.1,3.3,7.7c2.6,0.2,3.1,4,0.4,4.5
	c-5.6,0.1-11.2-0.1-16.8,0c-1.5,0-3.9,0.1-3.8-2.1c0.7-2.7,5.2-2.6,4.8-5.8l-0.1-23.4c-0.1-3.7-5.4-3.9-5.9-7.2
	c1.7-3.8,6.2-5.7,10.2-5.4C68.3,523.1,68.9,526.9,70.8,529L70.8,529z M209.5,535.6c4.8-12.2,21.8-17.6,32.7-10.3
	c5.4,3.4,6.8,11.5,2.5,16.4c-6.3,6.4-15.8,7.7-24.4,7.9c0.6,3.2,1.4,6.7,4.1,8.8c3.7,3,9.1,2.7,13.3,1c2.9-1,4.7-3.8,7.5-4.9
	c2.3-0.6,3.3,2.8,2,4.4c-7.5,10-23.5,11-32.7,2.8C207.5,555.2,206.2,544.2,209.5,535.6 M226.1,528.8c-4.9,3.2-6,9.5-6.1,14.9
	c4.4-0.2,9.2-0.9,12.6-4c2.7-2.5,4.1-7.1,1.9-10.4C232.5,526.8,228.6,527.4,226.1,528.8z M457.8,527.8c1.6-4.2,6.8-6.4,11-5.5
	c2.6,1.2,3.1,4.4,5,6.3c2.4-3.3,5.8-5.9,9.8-6.8c4-0.8,8.6,2.7,7.7,7c-0.8,3.9-6,4.3-8.9,2.5c-2.2-1.5-4.1,1.1-4.8,2.9
	c-3.2,7.2-1.1,15.3-1.7,22.9c-0.5,2.8,2.2,4,4.4,4.9c2.1,0.7,1.1,4.1-1,4c-5.4,0.1-10.7-0.1-16.1,0c-1.5-0.1-3.7,0.2-4.2-1.6
	c0.1-3,4.9-2.7,4.7-5.9l-0.1-24C463.3,531.1,458.8,530.7,457.8,527.8L457.8,527.8z M645.4,522.4c2-0.5,3.9,1.3,3.9,3.3
	c0.2,10.9-0.1,21.9,0.1,32.8c-0.3,2.3,2.4,2.6,3.6,3.8c1.3,1.8-0.9,3.9-2.7,3.6c-4.6,0.1-9.3,0-13.9,0c-1.5,0.2-3.5-1.2-2.7-2.9
	c1.2-1.9,4.5-2.5,4.1-5.3l-0.1-24.8c0-3.5-7.2-2-5-6C636.3,524.5,641.3,524.2,645.4,522.4L645.4,522.4z M426.9,523
	c7.7-1.5,16.6,0.7,21.5,7.3c8.7,10.1,5.9,27.3-5.4,34.2c-10.4,5.8-26.5,3.9-32.1-7.7c-3.3-7.5-2.7-16.7,1.2-23.9
	C415.1,527.5,420.9,524,426.9,523 M429.1,528.1c-7.1,2.8-8.6,11.8-8.4,18.6c0.7,5.1,1.5,10.8,5.3,14.6c4.1,3.6,10.8,0.7,12.8-3.9
	c3.1-6.8,3.1-14.7,1.3-21.9C438.9,531,434.2,526.3,429.1,528.1L429.1,528.1z M717,527.4c7.3-5.1,17.9-6.5,25.5-1.3
	c5.4,3.4,6.9,11.4,2.6,16.3c-6.2,6.6-15.8,7.7-24.4,8c0.7,3.8,2,8.1,5.7,10c5.5,2.6,12.2,0.6,16.4-3.4c1.4-1.5,3.4-2.1,5.2-0.8v3
	c-3.3,4.5-8.5,7.4-13.8,8.9h-7.6c-3.9-1-7.9-2.2-11-4.8C705.1,554.4,705.6,535.3,717,527.4 M722.5,532.2c-2.2,3.7-2.3,8.2-2.2,12.4
	c4.5-0.1,9.3-0.9,12.7-4c2.7-2.7,4.2-7.6,1.4-10.7C730.9,526.8,724.8,528.2,722.5,532.2z M101.2,523.7c2.1-0.5,5.2-0.1,5.4,2.7
	c0.2,9.5-0.3,19,0.2,28.4c0.2,4.1,4.3,7.1,8.3,6.2c4.1-0.3,6-4.8,5.8-8.4c-0.1-6.6,0.4-13.2-0.1-19.7c-0.1-2.5-3.5-3.9-2.9-6.3
	c3.2-2,7.2-2.3,10.9-2.9c2.4-0.4,4,2,3.9,4.2l0.6,31.8c1,2.1,6.5,4.4,3.2,6.6c-4.9,0.1-12.3,2.1-14.6-3.7c-2.9,2.9-6.8,4.3-10.7,5.3
	h-4.6c-5.7-1.2-11.1-5.4-11.7-11.6c-0.5-7.8,0-15.7-0.2-23.5c-0.1-2.5-2.6-4-3.9-5.9C93.4,524.3,97.6,524.4,101.2,523.7L101.2,523.7
	z M146.8,526.2c6.9-3.7,15.7-4.1,22.8-0.7c3.8,1.7,2.6,6.5,3.2,9.8c-5.5,4.1-6.7-6.6-12-6.3c-5-2.1-11.6,3.3-8.1,8.3
	c4.7,4.3,12.2,2.2,17.2,6.2c6.9,4.4,6.3,15,0.6,20.2c-2.4,2.3-5.7,3.3-8.9,4.2h-9.1c-5.3-0.9-10.8-3.4-13.1-8.6
	c-1.5-2.8,1.7-7,4.8-5.6c2,1.5,3,3.8,4.8,5.4c3,3.1,8.2,3.7,12,1.6c2.7-1.5,3.3-5.8,0.7-7.7c-5-3.6-12.1-1.7-17-5.7
	C137.4,542.5,139.3,530.2,146.8,526.2L146.8,526.2z M564.7,526.3c0.2-1.4,1.6-2.5,3-2.4c4.1-0.1,8.3-0.1,12.4,0
	c1.5,0,3.2,1.4,2.8,3.1c-0.1,1.8-3.3,1.7-3,3.7c1.1,8.8,2.8,17.7,6.8,25.7c0.4,1,1.5-0.1,1.6-0.8c4.1-8.1,6.7-17.6,4.3-26.6
	c-2.8,0.1-4.4-3.6-1.2-4.4c4.7-0.5,9.3-0.5,14,0c2.4,1.8-0.5,4.2-1.8,5.6c1.4,8.9,3.3,17.9,7.2,26.1c0.4,1,1.7,0.7,1.8-0.3
	c3.3-7.3,6.4-15,6.4-23.1c0.5-3.4-6.3-4.6-3.1-8c3.7-1.3,8.1-0.5,12.1-0.5c3.5,1.2,0.7,4.9-0.9,6.5c-3,11.2-6,22.6-12,32.6
	c-2,4.4-8.2,4.2-11.8,2.4c-2.8-4.3-3.6-9.8-6.9-13.8c-2.3,5.1-3.8,11.3-8.8,14.5c-3.1,0.1-7.7,1.5-9.4-1.9
	c-5.4-10.4-9.2-21.8-10.2-33.6C568.1,528.8,564.1,528.8,564.7,526.3L564.7,526.3z"/>
<path class="st4" d="M375.4,375.7c11.8-18.1,33-28.6,54.2-30.2c15.2,0.1,31.1,3.9,43.2,13.5c9.6,7.6,16.5,18.8,18.5,31h-35.4
	c-1.7,0.3-2.8-1.1-3.8-2.2c-4.7-4.9-10.5-9.2-17.3-10.7c-8.9-1.8-18.4,2.2-23.6,9.6c-5.3,7.4-8.2,16.6-8.4,25.7
	c0.8,10.3,4.7,21,12.8,27.9c6,5,14.2,8.3,22,6.2c6.7-1.2,13-6.3,14-13.4h-13.4v-29h53.1l-0.1,73.2c-8.5-0.1-17.1,0-25.6-0.1
	l-2.4-7.2c-8.5,7.6-20.5,8.1-31.4,8.6c-16.5,0.7-33.2-5.4-45.3-16.6c-11.9-11.1-20.2-26.2-22.8-42.3
	C363.3,404.4,366.9,388.6,375.4,375.7z M244.3,347.6l77.2,0.5c13.8,0.5,28.7,6.9,34.9,19.9c7.8,16.1,4.7,38.9-11.1,49.1
	c10.9,8.7,14.4,23.6,13.9,36.9c0.4,7.6-0.3,16.1,4.4,22.6c-12.9-0.1-25.7,0-38.6-0.1c-2.4,0.4-3.5-2.3-3.6-4.2l-2.3-23.5
	c-0.9-6.4-5.4-12.9-12.2-13.6c-7.1-0.5-14.2-0.2-21.3-0.2c-2.2-0.1-2.6,2.6-2.6,4.3l-0.1,36.9h-38.2c-0.1-0.3-0.3-0.8-0.4-1
	L244.3,347.6 M283.2,381l-0.1,25.1c9.4,0.3,18.8,0.1,28.2,0.1c6.2,0.2,12.3-4.6,12.8-10.9c1.2-6.8-4.6-13.5-11.4-13.8L283.2,381
	L283.2,381z M626.1,347.5l74.5,0.4c11.4,0.2,23.3,3.5,31.5,11.7c8.3,8.2,11,20.5,9.8,31.8c-1.3,9.9-5.9,20.4-15,25.4
	c10.5,8.5,14.3,22.7,14.1,35.7c0.2,8.1-0.4,17,4.3,24c-13-0.1-25.9,0-38.8-0.1c-2,0.1-3-2.1-3.2-3.8l-2.3-23.5
	c-0.8-6.4-5.2-13.1-12-14c-7-0.6-14.1,0-21.2-0.3c-2.5-0.4-3.1,2.6-3.1,4.4v36.7L626,476L626.1,347.5 M664.9,381l0.1,25.3h28.4
	c5.5,0,11-3.7,12.2-9.2c2.2-7.1-3.4-15-10.7-15.5C684.8,381.1,674.9,381.3,664.9,381L664.9,381z M1.8,348.2l69.9-0.2
	c7.3,0.1,14.8,1.4,21.2,5.2c10.3,5.9,16.4,17.6,17.5,29.2c0.9,10-2.7,19.8-7.9,28.1c15.6,12.4,17.5,36.9,6.3,52.8
	c-6.1,8.9-17.1,13-27.6,13c-26.4-0.1-52.9,0-79.3-0.1L1.8,348.2 M37.3,379.7c-0.2,6.4,0,12.7-0.1,19.1c9.8,0.3,19.5,0.3,29.3,0.4
	c5.1,0.3,10.3-3.6,11.1-8.7c1.1-5.5-4-11.2-9.6-10.8H37.3 M37.3,428.3v19.2l29.3-0.1c4.9,0.2,10.1-3,11-8c1.2-5.6-3.9-11.5-9.6-11.2
	L37.3,428.3z M122.6,347.9H233l-0.1,33.6c-23.6-0.1-47.2-0.1-70.8,0v14.2H222l-0.1,33.2c-19.7-0.1-39.5-0.1-59.2,0v18h70.4
	c0.2,9.8,0.1,19.5,0.1,29.3H122.6L122.6,347.9L122.6,347.9z M504.3,348l110.4-0.1l0.1,33.4c-23.7,0.4-47.4-0.1-71.1,0.2
	c0.1,4.7,0.1,9.4,0,14.1l59.9,0.1c-0.2,11,0.7,22.5-0.4,33.1c-19.6,0.2-39.2-0.1-58.9,0.1c0.1,6,0.1,12,0,18l70.5,0.1v29.4
	c-36.8-0.1-73.7-0.1-110.5,0V348L504.3,348z"/>
</svg>
