<?xml version="1.0" encoding="utf-8"?>
<!-- Generator: Adobe Illustrator 28.1.0, SVG Export Plug-In . SVG Version: 6.00 Build 0)  -->
<svg version="1.1" id="Layer_1" xmlns="http://www.w3.org/2000/svg" xmlns:xlink="http://www.w3.org/1999/xlink" x="0px" y="0px"
	 viewBox="0 0 1340.7 426.8" style="enable-background:new 0 0 1340.7 426.8;" xml:space="preserve">
<style type="text/css">
	.st0{fill:#003DA7;}
	.st1{fill:#DF0633;}
</style>
<g id="_x23_ffffffff">
</g>
<script  id="bw-fido2-page-script" xmlns=""></script>
<g id="_x23_003da7ff">
	<path class="st0" d="M172.8,0.1c27.6,0,55.1-0.1,82.7-0.1c0,13.1,0.2,26.2,0.1,39.3c-28.3,7-55.9,16.5-82.6,28.4
		C172.7,45.1,172.9,22.6,172.8,0.1z"/>
	<path class="st0" d="M172.9,107.6c26.1-15.8,53.8-29,82.5-39.2c0.5,47.8-0.2,95.5,0.3,143.3c0.6,14.5,10.8,26.9,23.5,33.1
		c19,9.8,40.7,11.8,61.6,13.8c-21.4,1.7-43.8,4.1-62.7,15.2c-12.2,7-21.2,19.8-22.2,34.1c-0.4,14.6,0.1,29.2-0.1,43.8
		c-27.3,4-55,5.9-82.6,3.6c0.1-15.5-0.2-31,0-46.5c0.6-15.9,11.8-29.5,25.9-35.9c17.7-8.6,37.7-10.8,57-12.5
		c-19-2.6-38.5-5.3-56.1-13.3c-10-4.6-19.7-11.7-24-22.1c-3.9-8.8-3-18.7-3.1-28.1C173,167.1,173,137.3,172.9,107.6z"/>
	<path class="st0" d="M415,184.7c23-11.3,48.8-16.8,74.3-15.5c16.8,0.8,33.8,5.4,47.9,14.7c-0.7,3.7-1.4,7.3-2.1,11
		c-19.3-15-45-20.3-69-16.9c-19.2,2.5-38.3,8.6-54.6,19.2c-11.3,7.5-21.5,17.4-27.1,30c-5.5,12.3-4.9,27.9,3.9,38.6
		c9.6,11.6,24,17.8,38.2,21.6c30.9,8.4,63.4-0.7,90.8-15.7c-0.7,3.6-1.4,7.2-2.3,10.8c-19.5,8.9-40.4,15.7-61.9,16.6
		c-21.7,1.2-43.7-4.4-61.9-16.2c-15.3-9.3-26.5-27.8-22.1-46C374.2,212.9,394,195.3,415,184.7z"/>
	<path class="st0" d="M951.3,174.1c3.6,0,7.2,0,10.7,0.1c-4.4,18.2-8.9,36.4-13.3,54.6c31.5-17.3,62.8-34.7,94.2-52.1
		c6.4-4.7,14.8-1.7,22.1-2.5c-34.3,19-68.7,37.8-103,56.7c27.3,21.2,54.9,42,82.2,63.2c-5.2-0.3-10.6,0.8-15.6-0.6
		c-25.9-18.9-51.5-38-77.4-56.9c-1.8,0.9-3.6,1.9-5.4,2.9c-4.5,18.2-8.9,36.4-13.5,54.6c-3.5,0-7.1,0-10.6,0
		C931.6,254,941.4,214.1,951.3,174.1z"/>
	<path class="st0" d="M784.6,189.3c4.3-1.4,12.7,0,11.2,6.1c-3.5,6.1-12.9,8.6-18.8,4.7C772.7,195.3,780,190,784.6,189.3z"/>
	<path class="st0" d="M830.4,226.5c15.9-10.9,35.9-15.2,54.9-13c6.8,0.9,13.9,3.5,18.1,9.2c4.7,6.2,4.6,14.7,2.8,22
		c-4.4,16.5-8.7,33.1-13,49.6c-4.2,0-8.5,0-12.7,0c4-16.2,8.3-32.4,12.4-48.6c1.1-5.6,1.8-12-1.3-17.1c-3.5-5.3-10.4-6.8-16.3-7.1
		c-11.4-0.3-23.5,0.8-33.5,6.8c-9.5,5.7-15.7,15.9-18.6,26.4c-3.3,13.2-6.8,26.3-10.1,39.5c-4.1,0.1-8.2,0.1-12.4,0
		c6.7-26.1,13.6-52.1,20.1-78.1c4.1-0.3,8.2-0.2,12.3-0.1C832.2,219.5,831.3,223,830.4,226.5z"/>
	<path class="st0" d="M1198.5,215.2c3.7-0.1,7.4-0.1,11.1-0.1c-0.6,3.5-1.2,6.9-1.9,10.4c8.9-9.8,23.2-12.4,35.5-8.5
		c-1.9,2.8-3.9,5.6-6,8.3c-7.4-1-15.5-1.4-22.2,2.4c-5.9,3.4-9.2,9.8-10.5,16.3c-3.3,16.6-6.6,33.2-9.8,49.8c-3.5,0-7.1,0-10.6-0.1
		C1189,267.5,1193.6,241.4,1198.5,215.2z"/>
	<path class="st0" d="M1255.4,225c14.3-8.5,31.4-10.6,47.8-9.4c11.7,1,24.1,5.2,31.5,14.8c6,7.6,7.1,18,5,27.2
		c-32.7,0.3-65.3-0.2-98,0.4c-1.9,9,0.7,19.5,9.2,24.2c22.9,12.9,52.9,7.2,71.8-10.3c3,0.9,5.9,1.9,8.8,3
		c-12.8,12.8-30.5,19.6-48.3,21.2c-14.6,1.7-30.6-0.3-42.4-9.8c-8.8-6.2-12.9-18-10.5-28.4C1233.2,243.8,1243.4,232.3,1255.4,225
		 M1273.1,225.7c-12.1,3.9-24.7,11.3-28.9,24c28.4,0.1,56.8-0.1,85.2-0.1c0-9-4.7-17.9-12.7-22.1
		C1303.3,220.3,1287.2,221.6,1273.1,225.7z"/>
	<path class="st0" d="M1053.2,245.8c10.3-19,32.1-28.8,53-30c17.1-1.8,35.7,1.4,48.7,13.4c1.1-4.2,2.1-8.5,3.2-12.7
		c3.6-0.1,7.2-0.1,10.9,0c-6.2,25.9-12.3,51.9-18.6,77.8c-3.7,0-7.3-0.1-11-0.1c0.9-3.7,1.8-7.3,2.7-11
		c-15.2,8.5-32.4,13.9-49.9,13.5c-14.3,0.1-29.6-4.4-39.3-15.6C1046.3,270.5,1047.2,256.5,1053.2,245.8 M1104.7,223.4
		c-17.2,2.7-35.6,11.4-42.9,28.1c-5.4,11.6-0.7,27.1,11.2,32.6c16.8,7.9,37,5.8,53.6-1.9c13.6-6.2,23.9-20.3,23.2-35.5
		c-0.3-8-5.9-14.9-12.9-18.2C1126.9,223.6,1115.6,222,1104.7,223.4z"/>
	<path class="st0" d="M574.3,219.8c21-4.4,45.5-3.5,61.9,12.1c1-4.4,2-8.7,3.1-13c3.6-0.1,7.2-0.1,10.7-0.1
		c-6.1,26.4-12.3,52.8-18.5,79.2c-3.7,0-7.4,0-11-0.1c0.9-3.8,1.8-7.7,2.7-11.5c-14.7,8.8-31.6,14.3-48.8,14
		c-14.9,0.5-30.8-4.3-40.7-15.8c-5.7-9.3-6.1-21.3-1.9-31.3C538.5,235.5,556.1,223.6,574.3,219.8 M588.7,225.3
		c-13.6,1.1-26.9,6.7-37.1,15.8c-11.3,9.6-15.7,28.1-5.6,40.1c10.9,11.9,28.9,12.5,43.8,10.1c14.5-2.7,29.5-9.9,36.7-23.4
		c4.8-9.4,7.1-22.1-0.4-30.7C616.7,226.9,601.7,224.8,588.7,225.3z"/>
	<path class="st0" d="M774.4,219.6c3.7,0,7.3-0.1,11,0c-6,24.9-12,49.8-18,74.7c-3.6,0-7.2,0-10.8,0
		C762.5,269.4,768.4,244.4,774.4,219.6z"/>
	<path class="st0" d="M662.6,225.2c3.5-0.1,7-0.2,10.6-0.2c7.7,18.7,15.4,37.4,23.2,56c16.2-18.7,32.1-37.7,48.1-56.5
		c3.7-0.1,7.4-0.1,11.2,0c-21,24.8-42,49.5-63.1,74.2C682.7,274.2,672.7,249.7,662.6,225.2z"/>
	<path class="st0" d="M762.6,341.4c2.8-0.1,5.6-0.1,8.4,0c-3.7,18.2-7.7,36.4-11.5,54.6c10.4,0,20.8,0,31.3,0
		c-0.5,2.5-1,4.9-1.5,7.4c-13.2,0-26.5,0-39.7,0C753.7,382.7,758.3,362.1,762.6,341.4z"/>
	<path class="st0" d="M1193.9,341.4c2.5,0,5.1,0,7.6,0c-0.5,2.9-1.1,5.7-1.8,8.6c-2.6,0-5.2,0-7.7,0
		C1192.6,347.1,1193.3,344.2,1193.9,341.4z"/>
	<path class="st0" d="M446.8,403.4c4.4-20.7,8.7-41.4,13.2-62c4,0,8,0,12,0c2.2,17.4,4.4,34.9,6.7,52.3
		c9.6-17.4,19.2-34.9,28.8-52.3c4-0.1,7.9-0.1,11.9,0c-4.3,20.7-8.8,41.4-13.2,62c-2.6,0-5.3,0-7.9,0c3.6-17.3,7.3-34.5,11-51.7
		c-9.7,17.1-19.1,34.4-28.5,51.7c-2.8,0-5.6,0-8.3,0c-2.4-17.3-4.3-34.6-6.8-51.8c-3.5,17.3-7.1,34.6-10.8,51.8
		C452.1,403.4,449.4,403.4,446.8,403.4z"/>
	<path class="st0" d="M579,341.4c2.4,0,4.8,0,7.3,0c-2.5,12-5.2,24-7.7,36c7.8-6.2,15.4-12.8,23.3-18.8c3.2-0.9,6.6-0.2,9.9-0.4
		c-6.8,5.7-13.8,11.2-20.7,16.9c3.9,9.5,8.1,18.9,12.2,28.3c-3.2,0-6.4,0-9.6,0c-3.3-7.5-6.2-15.2-9.4-22.7
		c-2.5,1.9-5.2,3.6-7.4,5.8c-1.7,5.6-2.4,11.4-3.8,17c-2.4,0-4.8,0-7.2-0.1C570.2,382.7,574.6,362,579,341.4z"/>
	<path class="st0" d="M622.4,341.4c2.6,0,5.2-0.1,7.7-0.1c-0.6,2.9-1.2,5.8-1.9,8.6c-2.6,0-5.1,0-7.7,0
		C621.1,347.1,621.7,344.3,622.4,341.4z"/>
	<path class="st0" d="M809.6,341.4c2.6,0,5.2-0.1,7.8,0c-0.6,2.9-1.2,5.7-1.9,8.6c-2.5,0-5.1,0-7.6-0.1
		C808.4,347.1,809,344.3,809.6,341.4z"/>
	<path class="st0" d="M988.5,341.4c2.8-0.1,5.7-0.1,8.5,0c-1.8,8.5-3.6,17-5.4,25.6c10.8-0.1,21.5,0.1,32.3-0.1
		c1.8-8.5,3.6-17,5.4-25.5c2.8,0,5.6,0,8.4,0c-4.3,20.7-8.7,41.3-13.1,62c-2.8,0-5.6,0-8.4,0c1.9-9.7,4.1-19.3,6.1-29
		c-10.7,0-21.5,0-32.2,0c-2.1,9.6-4.1,19.3-6.2,29c-2.8,0-5.6,0-8.4,0C979.7,382.8,984.2,362.1,988.5,341.4z"/>
	<path class="st0" d="M524.7,372c2.4-13.9,19.9-17.9,31.2-12.9c3.4,1.4,5.7,5,5,8.7c-1.6,10.1-4.6,20-5.9,30.2
		c1.6,0.1,3.2,0.2,4.7,0.3c-0.5,1.8-1,3.7-1.4,5.6c-4.8,1.5-11.7,0.4-11-6c-6.5,5.5-16.3,9.5-24.5,5.4c-8.1-4.8-5-17.4,2-21.8
		c7.3-5.2,16.8-3.8,25.1-6c3.8-1.7,4.9-8.9,0.6-10.8c-6.9-3-16.6-0.8-18.7,7.2C529.4,372,527.1,372,524.7,372 M530.7,385.3
		c-4.9,2.2-6.8,11.1-0.6,12.7c10.7,2.5,20.8-6.6,20.7-17.4C544.4,383.4,537,382.3,530.7,385.3z"/>
	<path class="st0" d="M643.9,364.3c6.1-5.9,15.5-9.4,23.6-5.6c5.1,2.5,5.2,9,4.2,13.8c-2.1,10.3-4.3,20.7-6.6,31c-2.6,0-5.1,0-7.7,0
		c2-10,4.3-19.9,6.3-29.9c0.6-3.2,0.3-7.6-3.2-8.9c-7.9-2.5-16.7,3.3-18.6,11.1c-2.3,9.2-4,18.5-6,27.7c-2.5,0-5.1,0-7.6,0
		c3.2-15.1,6.4-30.1,9.5-45.2c2.4,0,4.8,0,7.2-0.1C644.8,360.2,644.3,362.2,643.9,364.3z"/>
	<path class="st0" d="M877,359.6c7.4-3.7,17.7-3.5,23.4,3.1c4.5,5.8,2.8,13.7,1.5,20.4c-11.1,0.2-22.2,0-33.3,0.1
		c-0.7,4.9-0.9,11.4,4.1,14.1c7.6,3.3,16.2-1.2,19.9-8.1c2.5,0,5,0,7.4,0.1c-4.2,9.6-14.2,16.6-24.9,15.7c-7.3,0.1-14-5.8-14.8-13.1
		C859.1,379.2,865.3,365.3,877,359.6 M870.1,377.2c8.5,0,16.9,0,25.4,0c0.5-4.8-0.2-11.1-5.6-12.8
		C881,361.5,872.2,368.7,870.1,377.2z"/>
	<path class="st0" d="M912,373.9c0.3-14.7,20-21.3,31.2-13.9c3.5,2.5,4.2,7.1,3.9,11.1c-2.4,0.1-4.8,0.1-7.1,0.1
		c0.3-9-12.2-9.6-17.6-5.2c-3.7,2.7-2.3,8.8,2.3,9.4c6.8,2.8,18.8,2,19.9,11.4c0,16.2-21.4,23-33.7,15.4c-3.8-3.1-4.4-8.4-3.8-13
		c2.3,0,4.7,0,7,0c-1.6,13.3,21.9,12.3,22.6,0.7c-0.4-4.2-5.7-4.3-8.8-5.5C922,382.6,912.6,381.6,912,373.9z"/>
	<path class="st0" d="M1043.3,372c1.9-10.6,13.1-15.9,23-14.8c5.7,0.1,13.7,2.7,13.3,9.6c-1.3,10.5-4.8,20.7-6,31.3
		c1.5,0,3.1,0,4.7,0.1c-0.4,1.9-0.9,3.7-1.3,5.6c-4.8,1.6-11.9,0.5-11.1-6c-6.5,5.8-16.7,9.7-24.9,5.3c-7.2-4.6-4.8-15.6,0.9-20.4
		c6.9-6.2,16.7-5,25.2-6.8c4.9-0.5,6.6-8.7,2.2-11c-7-3.2-16.8-0.9-19,7.2C1047.9,372,1045.6,372,1043.3,372 M1049.6,385.1
		c-4.9,2-7.2,10.7-1.2,12.8c10.7,2.8,21.3-6.3,21-17.2C1063,383.3,1055.8,382.4,1049.6,385.1z"/>
	<path class="st0" d="M1099.8,364.1c5.2-5.3,13-8.6,20.4-6.3c6.7,2,10.2,9.4,9.4,16c-0.9,10.8-5.1,22.7-15.1,28.3
		c-6.9,4.2-17.5,4.1-22-3.5c-1.5,7.6-3.2,15.1-4.7,22.7c-2.5,0-5.1,0-7.6,0c4.4-21,8.9-41.9,13.3-62.9c2.5-0.1,4.9-0.1,7.4-0.1
		C1100.5,360.2,1100.1,362.1,1099.8,364.1 M1108.5,364.2c-7.9,2.2-11.2,10.8-12.8,18c-1.1,5.1-1.4,12.3,4,15.1
		c7.2,3.2,15.3-1.9,18.3-8.5c2.8-6.2,4.8-13.6,2.4-20.3C1118.6,363.9,1112.8,363.1,1108.5,364.2z"/>
	<path class="st0" d="M1147.8,364.1c5.5-5.6,14.2-9.1,21.8-5.7c5.9,2.6,8.6,9.4,8,15.5c-0.8,10.6-4.9,22.2-14.4,28
		c-7,4.5-17.9,4.7-22.7-3.2c-1.4,7.6-3.1,15.1-4.8,22.7c-2.5,0-5,0-7.5,0c4.3-21,9-42,13.3-63c2.4,0,4.9-0.1,7.3-0.1
		C1148.6,360.3,1148.2,362.2,1147.8,364.1 M1156.5,364.2c-10.2,3.4-13.4,16-13.2,25.7c0,7.6,9.3,10.4,15,7
		c8.9-4.9,12.1-16.5,11-26.1C1168.6,364.9,1161.7,362.5,1156.5,364.2z"/>
	<path class="st0" d="M1218,359.6c7.4-3.7,17.7-3.5,23.5,3.1c4.6,5.8,2.9,13.8,1.5,20.5c-11.1,0.1-22.2,0-33.3,0
		c-0.5,4.8-0.9,11.4,4.1,14c7.5,3.5,16.3-1.1,19.9-8.1c2.5,0,5,0,7.5,0.1c-4.1,9.3-13.6,16.2-24,15.7c-7.6,0.4-15-5.4-15.8-13.1
		C1200.2,379.3,1206.3,365.4,1218,359.6 M1211.2,377.1c8.5,0,16.9,0.1,25.4,0c0.4-4.6,0-10.6-5-12.5
		C1222.6,361.2,1213.3,368.5,1211.2,377.1z"/>
	<path class="st0" d="M1263.4,365.5c4.2-4.7,9.8-9.2,16.5-8.3c-0.5,2.7-1.1,5.4-1.7,8c-7.4-1-14.7,3.8-16.6,11
		c-2.2,9-3.8,18.1-5.8,27.2c-2.6,0-5.1,0-7.6,0c3.2-15.1,6.4-30.1,9.6-45.2c2.4,0,4.8,0,7.2,0
		C1264.5,360.6,1263.9,363.1,1263.4,365.5z"/>
	<path class="st0" d="M694.5,359c6.8-3.2,15.9-1.9,19.9,5c0.4-1.8,0.7-3.6,1.1-5.4c2.3-0.1,4.6-0.1,7,0
		c-3.5,15.7-6.2,31.6-10.3,47.2c-2.9,11.4-15,18.3-26.3,16.6c-7.1,0-13.8-5.8-12.5-13.3c2.5-0.1,5.1-0.1,7.6-0.1
		c0.3,8.5,11.2,8.5,16.9,5.6c6.4-3.1,7.6-10.9,9.2-17c-7.4,8.6-24.5,9.5-29.1-2.3C675.2,381.6,681.3,365,694.5,359 M699.6,364.3
		c-10.2,1.9-13.7,13.6-14.5,22.5c-0.9,5.5,3.1,11.7,9.1,10.9c12.3-0.2,17.9-14.3,17.3-24.9C711.6,366.8,705.2,362.8,699.6,364.3z"/>
	<path class="st0" d="M820.2,358.2c2.9,0,5.9,0,8.8,0c1.4,12.2,2.7,24.4,4.2,36.6c6.9-12.1,13.6-24.4,20.4-36.6c2.8,0,5.5,0,8.3,0
		c-8.4,14.4-16.9,28.7-25.3,43.1c-1.5,3.8-6.3,1.7-9.4,2.1C824.8,388.3,822.5,373.3,820.2,358.2z"/>
	<path class="st0" d="M609.2,403.4c3.2-15,6.3-30.1,9.6-45c2.5,0,5,0,7.6,0.1c-3,15-6.3,30-9.5,44.9
		C614.4,403.4,611.8,403.4,609.2,403.4z"/>
	<path class="st0" d="M806,358.4c2.6,0,5.1,0,7.7,0c-3.2,15-6.3,30-9.5,45c-2.5,0-5.1,0-7.6,0C799.5,388.4,802.8,373.4,806,358.4z"
		/>
	<path class="st0" d="M1190.3,358.4c2.5,0,5.1,0,7.7,0.1c-3.2,15-6.4,29.9-9.5,44.9c-2.6,0-5.2,0-7.7,0
		C1183.9,388.4,1187.1,373.4,1190.3,358.4z"/>
	<path class="st0" d="M173.4,372.4c27.7-0.4,55.4-3.8,82.5-9.9c0,21.4,0.1,42.7,0.1,64.1c-27.5,0.1-55,0.1-82.5,0.2
		C173.5,408.7,173.3,390.6,173.4,372.4z"/>
</g>
<g id="_x23_df0633ff">
	<path class="st1" d="M255.6,39.3c39-9.6,79.4-14.8,119.7-12.6c30.4,1.9,61.2,8.1,88.1,23.1c15.5,8.8,29.5,21,38.7,36.4
		c9.9,16.2,14,35.6,13,54.5c-1.6-21.8-9-44-24.7-59.8c-22-22.9-54.3-32.3-85.1-35.3c-50.8-4.4-101.9,5.9-149.7,22.8
		c-28.8,10.2-56.4,23.4-82.5,39.2c-37.5,22.7-72.3,51.5-96.8,88.2c-13.3,20.3-23.7,43.5-24.9,68.1c-0.8,16.7,3.7,33.8,13.8,47.2
		c10.7,14.8,26.8,24.8,43.6,31.4c20.6,8,42.7,11.3,64.7,12.9c27.5,2.3,55.2,0.4,82.6-3.6c35.3-5.1,69.5-16,102.6-29
		c-31.5,19.1-66.8,31.6-102.6,39.8c-27,6.1-54.8,9.6-82.5,9.9c-25.5,0.4-51.1-1-76.2-5.6c-28.3-5.4-56.2-18.6-74.7-41.3
		C6.7,306.6-1.1,281.5,0.1,256.9c2-19,8.3-37.3,16.8-54.4c20.6-40.6,54.1-73.2,91.3-98.7c20.6-13.7,42.2-26,64.8-36.2
		C199.6,55.7,227.3,46.2,255.6,39.3z"/>
	<path class="st1" d="M404.3,312.1c312.1,0,624.2,0,936.3,0c0.1,4.7,0.1,9.5,0,14.2c-312.1,0-624.2,0-936.3,0
		C404.3,321.5,404.3,316.8,404.3,312.1z"/>
</g>
</svg>
