<?xml version="1.0" encoding="UTF-8"?>
<svg id="Layer_1" data-name="Layer 1" xmlns="http://www.w3.org/2000/svg" viewBox="0 0 214.95 98.77">
  <defs>
    <style>
      .cls-1 {
        fill: #58595b;
      }

      .cls-1, .cls-2, .cls-3, .cls-4, .cls-5, .cls-6, .cls-7 {
        stroke-width: 0px;
      }

      .cls-2, .cls-3, .cls-4, .cls-5 {
        opacity: .35;
      }

      .cls-2, .cls-7 {
        fill: #5e9732;
      }

      .cls-3 {
        fill: #b2bb1e;
      }

      .cls-4 {
        fill: #00a651;
      }

      .cls-5, .cls-6 {
        fill: #007f3e;
      }
    </style>
  </defs>
  <g>
    <g>
      <path class="cls-2" d="M58.28,21.98c-.33.13-.66.28-.97.47l-.03-.03-1.25-1.06-1.27,1.11.82,1.49c-.23.29-.45.58-.63.9h-.03s-1.6-.33-1.6-.33l-.6,1.6,1.42.9c-.07.36-.11.73-.13,1.1h-.03s-1.55.51-1.55.51l.23,1.69,1.67.11c.11.35.14.55.42,1.03l-.02.02-1.1,1.16,1,1.37,1.49-.72c.35.34.71.64,1.11.89v.03s-.35,1.63-.35,1.63l1.55.63.91-1.43c.53.11,1.07.17,1.62.15v.04s.6,1.54.6,1.54l1.64-.35-.02-1.71h0c.33-.13.65-.29.97-.48l.03.03,1.25,1.06,1.27-1.11-.82-1.49h0c.23-.29.44-.59.62-.9l.05.02,1.6.31.59-1.6-1.42-.91h-.02c.07-.36.11-.72.12-1.08h.06s1.55-.52,1.55-.52l-.23-1.69-1.67-.1-.09-.09c-.1-.34-.2-.62-.47-1.1l.05-.04,1.1-.88-1-1.37-1.43.68.02-.02c-.34-.33-.69-.64-1.08-.89l.03-.07.34-1.63-1.55-.64-.91,1.44h0c-.53-.1-1.07-.16-1.61-.14v-.05s-.61-1.54-.61-1.54l-1.64.34.02,1.71h0ZM64.33,25.6c1.48,2.04,1.07,4.91-.92,6.43-1.99,1.52-4.81,1.1-6.3-.94-1.48-2.03-1.07-4.91.92-6.43,2-1.52,4.81-1.09,6.3.94Z"/>
      <path class="cls-4" d="M42.74,5.13c-.46.18-.91.4-1.35.66l-.04-.04-1.74-1.48-1.78,1.54,1.14,2.08c-.33.4-.63.81-.88,1.25h-.04s-2.23-.45-2.23-.45l-.83,2.22,1.98,1.26c-.1.5-.16,1.02-.18,1.53h-.04s-2.16.71-2.16.71l.32,2.36,2.32.15c.15.49.2.77.58,1.44l-.03.02-1.54,1.62,1.39,1.91,2.07-1.01c.48.47.99.89,1.55,1.24l-.02.04-.47,2.27,2.16.88,1.27-2c.74.16,1.5.23,2.26.2v.05s.84,2.15.84,2.15l2.28-.48-.02-2.39h0c.46-.19.91-.4,1.35-.67l.04.04,1.74,1.48,1.77-1.54-1.15-2.08h-.01c.32-.4.62-.82.86-1.25l.07.03,2.23.44.83-2.22-1.99-1.26h-.03c.1-.51.15-1.01.17-1.52h.09s2.16-.72,2.16-.72l-.32-2.36-2.34-.13-.12-.13c-.15-.48-.28-.87-.66-1.54l.07-.05,1.53-1.23-1.39-1.91-2,.94.03-.02c-.48-.46-.96-.89-1.51-1.24l.05-.09.47-2.27-2.16-.88-1.27,2v.02c-.74-.16-1.49-.23-2.25-.21l-.02-.07-.83-2.15-2.28.48.02,2.39h0ZM51.17,10.19c2.07,2.84,1.5,6.85-1.28,8.96-2.78,2.11-6.71,1.53-8.78-1.31-2.07-2.84-1.49-6.85,1.28-8.97,2.78-2.11,6.71-1.52,8.78,1.31Z"/>
      <path class="cls-3" d="M71.3,3.14c-.51.2-1,.44-1.47.72l-.04-.05-1.9-1.61-1.94,1.69,1.25,2.27c-.36.43-.68.89-.96,1.36l-.04-.02-2.43-.48-.9,2.43,2.16,1.37c-.1.55-.17,1.11-.19,1.67h-.04s-2.36.78-2.36.78l.35,2.57,2.54.16c.17.53.22.84.64,1.58l-.04.03-1.68,1.77,1.52,2.08,2.26-1.1c.53.51,1.09.97,1.69,1.35l-.02.05-.51,2.48,2.36.96,1.38-2.18c.81.18,1.64.26,2.47.23v.05s.92,2.35.92,2.35l2.49-.53-.02-2.61h0c.5-.21,1-.44,1.47-.73l.04.05,1.9,1.62,1.94-1.69-1.25-2.27h-.01c.35-.44.68-.89.95-1.37l.07.03,2.43.48.9-2.43-2.17-1.38h-.03c.1-.55.17-1.1.18-1.66h.09s2.36-.79,2.36-.79l-.35-2.58-2.55-.14-.14-.14c-.16-.52-.31-.95-.73-1.68l.08-.06,1.67-1.35-1.52-2.08-2.18,1.03.04-.03c-.52-.51-1.05-.97-1.65-1.35l.05-.1.52-2.48-2.36-.97-1.38,2.19v.02c-.81-.17-1.63-.26-2.45-.23l-.02-.08-.91-2.35-2.49.53.03,2.61h0ZM80.5,8.66c2.26,3.1,1.63,7.48-1.4,9.79-3.04,2.31-7.33,1.67-9.59-1.43-2.26-3.1-1.63-7.48,1.4-9.79,3.04-2.31,7.33-1.67,9.59,1.43Z"/>
      <path class="cls-5" d="M36.86,27.59c-.54.22-1.07.47-1.58.77l-.04-.05-2.04-1.73-2.08,1.81,1.34,2.43c-.38.46-.73.95-1.03,1.46l-.05-.02-2.61-.52-.97,2.61,2.31,1.47c-.12.59-.19,1.19-.21,1.79h-.05s-2.53.83-2.53.83l.37,2.76,2.72.17c.18.57.24.9.68,1.69l-.04.03-1.8,1.9,1.63,2.24,2.43-1.18c.57.55,1.16,1.04,1.81,1.45l-.02.05-.55,2.65,2.54,1.04,1.48-2.34c.87.19,1.75.27,2.64.24v.06s.99,2.52.99,2.52l2.67-.57-.03-2.8h0c.54-.22,1.07-.47,1.58-.78l.04.06,2.04,1.73,2.08-1.81-1.34-2.44h-.01c.37-.48.72-.96,1.01-1.47l.08.03,2.61.51.97-2.61-2.32-1.48h-.03c.11-.59.18-1.18.2-1.78h.1s2.53-.84,2.53-.84l-.38-2.76-2.73-.16-.15-.15c-.17-.56-.33-1.02-.78-1.8l.09-.06,1.79-1.45-1.63-2.24-2.34,1.1.04-.03c-.56-.54-1.13-1.04-1.77-1.45l.05-.11.56-2.66-2.53-1.04-1.48,2.35v.02c-.87-.19-1.75-.28-2.63-.25l-.02-.09-.97-2.52-2.67.56.03,2.8h0ZM46.87,33.4c2.48,3.4,1.79,8.21-1.54,10.75-3.33,2.53-8.04,1.83-10.53-1.57-2.48-3.4-1.79-8.22,1.54-10.75,3.33-2.53,8.04-1.83,10.53,1.57Z"/>
    </g>
    <path class="cls-7" d="M13.22,25.85l-3.7-6.56H2.47l1.26-4.3h7.87c.89,0,1.58-.71,1.58-1.62v-3.42c0-.9-.7-1.61-1.58-1.61h-7.44v17.51H0V4.04h11.7c3.1,0,5.63,2.55,5.69,5.72v3.81c-.03,2.29-1.39,4.3-3.35,5.2l4.02,7.08h-4.84ZM17.4,9.86v-.1.1ZM17.4,13.57v-.1.1Z"/>
    <path class="cls-7" d="M34.34,12.8v4.3h-10.69v2.87c0,.87.73,1.62,1.58,1.62h9.11v4.26h-9.18c-3.13,0-5.69-2.62-5.69-5.81v-10.17c0-3.2,2.56-5.82,5.69-5.82h9.18l-1.26,4.3h-7.85c-.85,0-1.58.71-1.58,1.61v5.01l-1.31-2.16h12Z"/>
    <path class="cls-6" d="M166.52,50.18c-.4,2.53-2.33,1.99-2.56.68l-3.19-13.83c-3.68-.02-4.55,0-8.23,0-5.85,0-6.83-.68-8.28,4.52-.13.56-.44,2.36-.52,2.8-.87,5.19-1.75,10.38-2.59,15.57-.48,2.96-1.03,6.48-1.51,9.64h8.4c1.22.05,1.59-.45,1.81-1.54.93-4.55,2.03-9.63,3.05-14.16.4-2.2,1.31-1.79,1.44-.99l3.06,16.71h15.53c.86,0,1.08-.93,1.21-1.73,1.26-7.34,2.58-14.66,3.86-21.99.51-2.91.97-5.82,1.47-8.82h-10.55c-.82,4.44-1.65,8.78-2.4,13.13ZM211.06,69.57c-2.87-5.64-5.86-11.57-8.59-16.92,4.13-5.16,8.12-10.16,12.49-15.63h-13.56c-.42,0-.89.49-1.21.88l-6.08,6.51c.24-2.82.43-5.08.63-7.38h-11.92c-1.94,10.16-3.08,16.12-6.22,32.53h12.61c.48-4,.93-7.73,1.4-11.62.07-.33.67-1.4,1.67,1.02,1.21,2.94,2.38,5.89,3.57,8.84.55,1.37,1.6,1.83,3,1.76h12.2Z"/>
    <path class="cls-6" d="M115.44,37h11.93c-.52,3.23-.99,6.36-1.54,9.48-.95,5.34-1.88,10.69-2.98,16.01-.31,1.49-.96,3-1.81,4.25-1.36,1.99-2.82,2.83-5.82,2.83h-6c.44-3.82.85-7.3,1.3-11.12-2.13,0-4.09-.06-6.05.06-.37.02-.88.72-1.01,1.19-.85,3.24-1.62,6.51-2.44,9.88h-11.97c1.85-10.9,3.69-21.69,5.54-32.55h12.61c-.42,3.49-.84,6.9-1.29,10.57,2.15,0,4.11.06,6.07-.06.36-.02.86-.74,1-1.23.86-3.06,1.63-6.14,2.45-9.3Z"/>
    <path class="cls-6" d="M62.09,37.02c-.66,0-1.39.25-1.97.61-3.71,2.29-4.19,5.86-3.67,10.08h11.73c-1.39,7.14-2.94,14.69-4.33,21.87h11.14c1.19.03,1.61-.38,1.82-1.51,1.16-6.16,2.63-12.83,3.75-19,.22-1.18.68-1.42,1.72-1.4,2.74.06,5.47.02,8.3.02.7-3.6,1.37-7.12,2.06-10.66h-30.56Z"/>
    <path class="cls-7" d="M135.4,78.64c0,3.69-2.93,6.69-6.55,6.69s-6.55-3-6.55-6.69,2.93-6.69,6.55-6.69,6.55,2.99,6.55,6.69Z"/>
    <path class="cls-7" d="M136.49,30.54c-5.48,0-4.53-.78-7.08,10.31l-.47,2.32c-1,4.97-1.92,9.96-2.89,14.95-.74,3.78-1.48,7.49-2.25,11.45h9.53c.83,0,3.8-1.2,4.77-7.14.66-4.32,4.21-25.38,5.3-31.91h-6.91Z"/>
  </g>
  <g>
    <path class="cls-1" d="M67.28,96.8c0,.31-.06.59-.17.84-.12.25-.28.45-.5.62s-.47.3-.77.38-.62.13-.98.13c-.22,0-.43-.02-.63-.05-.2-.03-.38-.08-.53-.13-.16-.05-.29-.11-.4-.16-.11-.06-.19-.11-.24-.15s-.09-.11-.11-.19-.03-.19-.03-.33c0-.09,0-.16.01-.22s.02-.11.03-.14.03-.06.06-.08c.02-.02.05-.02.08-.02.05,0,.12.03.22.09.1.06.22.13.36.2.14.07.31.14.51.2.2.06.42.09.68.09.19,0,.36-.02.52-.06s.29-.1.4-.18c.11-.08.2-.18.26-.3.06-.12.09-.27.09-.44s-.04-.32-.13-.44c-.09-.12-.21-.22-.35-.31s-.31-.17-.49-.24c-.18-.07-.37-.14-.56-.22-.19-.08-.38-.17-.57-.26-.19-.1-.35-.22-.5-.36s-.26-.31-.35-.51c-.09-.2-.13-.43-.13-.7,0-.24.05-.47.14-.69.09-.22.23-.41.42-.58.19-.17.42-.3.7-.4.28-.1.61-.15.98-.15.16,0,.33.01.49.04s.31.06.44.1.25.08.34.13c.09.05.16.09.21.13.05.04.08.07.1.1.02.03.03.06.03.09,0,.03.01.08.02.13,0,.05,0,.11,0,.18,0,.08,0,.14,0,.2,0,.06-.02.1-.04.14-.02.04-.04.06-.06.08-.02.02-.05.02-.08.02-.04,0-.1-.03-.18-.08s-.18-.1-.3-.16c-.12-.06-.27-.11-.43-.16-.17-.05-.36-.08-.57-.08-.19,0-.36.02-.51.06-.15.04-.27.11-.36.19-.09.08-.16.17-.21.28-.05.11-.07.23-.07.36,0,.18.05.33.14.45.09.12.21.23.36.32s.31.17.5.25.38.15.57.23c.19.08.39.16.57.26.19.1.36.21.5.35s.26.3.35.49c.09.19.13.42.13.68Z"/>
    <path class="cls-1" d="M74.62,95.33c0,.5-.07.96-.2,1.38-.13.42-.33.79-.59,1.09-.26.31-.59.54-.98.71-.39.17-.85.26-1.37.26s-.95-.08-1.32-.23c-.38-.15-.69-.37-.94-.66s-.44-.64-.56-1.05-.18-.88-.18-1.39.06-.96.2-1.38c.13-.42.33-.79.59-1.09.26-.31.59-.54.98-.71s.85-.25,1.37-.25.95.08,1.32.23c.38.15.69.37.94.66s.44.64.56,1.05c.12.41.19.87.19,1.39ZM73.45,95.4c0-.33-.03-.65-.09-.94-.06-.3-.17-.56-.31-.78s-.33-.4-.58-.53c-.24-.13-.55-.2-.91-.2-.34,0-.62.06-.87.18s-.44.29-.6.5c-.16.22-.27.47-.35.77-.08.3-.11.62-.11.97s.03.65.09.95c.06.3.17.55.31.78.15.22.34.4.58.53.24.13.55.2.91.2.33,0,.62-.06.86-.18.24-.12.44-.29.6-.5s.27-.47.34-.77.11-.62.11-.98Z"/>
    <path class="cls-1" d="M77.41,98.47s0,.07-.03.09c-.02.02-.05.05-.09.06s-.1.03-.17.04-.17.01-.28.01-.2,0-.27-.01-.13-.02-.17-.04c-.04-.02-.07-.04-.09-.06-.02-.03-.02-.06-.02-.09v-9.13s0-.07.02-.1c.02-.03.04-.05.09-.07.04-.02.1-.03.17-.04s.16-.01.27-.01.21,0,.28.01.13.02.17.04.07.04.09.07.03.06.03.1v9.13Z"/>
    <path class="cls-1" d="M84.76,98.47s0,.07-.02.09c-.02.02-.04.05-.09.06s-.09.03-.16.04c-.07,0-.15.01-.24.01-.1,0-.19,0-.26-.01-.07,0-.12-.02-.16-.04-.04-.02-.07-.04-.08-.06-.01-.03-.02-.06-.02-.09v-.81c-.35.39-.7.67-1.04.85s-.69.27-1.04.27c-.41,0-.76-.07-1.04-.21-.28-.14-.51-.32-.68-.56-.17-.23-.3-.51-.37-.82-.08-.31-.11-.69-.11-1.14v-3.73s0-.07.02-.09c.02-.02.05-.05.09-.07.05-.02.1-.03.18-.04.07,0,.16,0,.27,0s.2,0,.27,0c.07,0,.13.02.17.04.04.02.07.04.09.07.02.03.03.06.03.09v3.58c0,.36.03.65.08.86.05.22.13.4.24.55.11.15.24.27.41.36.16.08.36.13.57.13.28,0,.56-.1.84-.3.28-.2.58-.49.89-.88v-4.3s0-.07.02-.09c.02-.02.05-.05.09-.07.05-.02.1-.03.17-.04.07,0,.16,0,.28,0s.2,0,.27,0c.07,0,.13.02.17.04.04.02.07.04.09.07.02.03.03.06.03.09v6.15Z"/>
    <path class="cls-1" d="M100.37,95.33c0,.5-.07.96-.2,1.38-.13.42-.33.79-.59,1.09-.26.31-.59.54-.98.71-.39.17-.85.26-1.37.26s-.95-.08-1.32-.23c-.38-.15-.69-.37-.94-.66s-.44-.64-.56-1.05-.18-.88-.18-1.39.06-.96.2-1.38c.13-.42.33-.79.59-1.09.26-.31.59-.54.98-.71s.85-.25,1.37-.25.95.08,1.32.23c.38.15.69.37.94.66s.44.64.56,1.05c.12.41.19.87.19,1.39ZM99.2,95.4c0-.33-.03-.65-.09-.94-.06-.3-.17-.56-.31-.78s-.33-.4-.58-.53c-.24-.13-.55-.2-.91-.2-.34,0-.62.06-.87.18s-.44.29-.6.5c-.16.22-.27.47-.35.77-.08.3-.11.62-.11.97s.03.65.09.95c.06.3.17.55.31.78.15.22.34.4.58.53.24.13.55.2.91.2.33,0,.62-.06.86-.18.24-.12.44-.29.6-.5s.27-.47.34-.77.11-.62.11-.98Z"/>
    <path class="cls-1" d="M107.33,98.47s0,.07-.03.09c-.02.02-.05.05-.09.06s-.1.03-.17.04-.16.01-.27.01-.21,0-.28-.01-.13-.02-.17-.04-.07-.04-.09-.06c-.02-.03-.03-.06-.03-.09v-3.6c0-.35-.03-.63-.08-.85s-.13-.4-.24-.55-.24-.27-.41-.36c-.17-.08-.36-.12-.58-.12-.28,0-.57.1-.85.3s-.58.49-.89.88v4.3s0,.07-.03.09c-.02.02-.05.05-.09.06s-.1.03-.17.04-.17.01-.28.01-.2,0-.27-.01-.13-.02-.17-.04c-.04-.02-.07-.04-.09-.06-.02-.03-.02-.06-.02-.09v-6.15s0-.07.02-.09c.01-.02.04-.05.08-.07.04-.02.09-.03.16-.04.06,0,.15,0,.25,0s.18,0,.25,0c.07,0,.12.02.15.04.04.02.06.04.08.07.02.03.02.06.02.09v.81c.35-.39.69-.67,1.04-.85.34-.18.69-.27,1.04-.27.41,0,.76.07,1.04.21.28.14.51.32.68.56s.3.5.37.82c.08.31.11.69.11,1.12v3.75Z"/>
    <path class="cls-1" d="M113.25,96.8c0,.31-.06.59-.17.84-.12.25-.28.45-.5.62s-.47.3-.77.38-.62.13-.98.13c-.22,0-.43-.02-.63-.05-.2-.03-.38-.08-.53-.13-.16-.05-.29-.11-.4-.16-.11-.06-.19-.11-.24-.15s-.09-.11-.11-.19-.03-.19-.03-.33c0-.09,0-.16.01-.22s.02-.11.03-.14.03-.06.06-.08c.02-.02.05-.02.08-.02.05,0,.12.03.22.09.1.06.22.13.36.2.14.07.31.14.51.2.2.06.42.09.68.09.19,0,.36-.02.52-.06s.29-.1.4-.18c.11-.08.2-.18.26-.3.06-.12.09-.27.09-.44s-.04-.32-.13-.44c-.09-.12-.21-.22-.35-.31s-.31-.17-.49-.24c-.18-.07-.37-.14-.56-.22-.19-.08-.38-.17-.57-.26-.19-.1-.35-.22-.5-.36s-.26-.31-.35-.51c-.09-.2-.13-.43-.13-.7,0-.24.05-.47.14-.69.09-.22.23-.41.42-.58.19-.17.42-.3.7-.4.28-.1.61-.15.98-.15.16,0,.33.01.49.04s.31.06.44.1.25.08.34.13c.09.05.16.09.21.13.05.04.08.07.1.1.02.03.03.06.03.09,0,.03.01.08.02.13,0,.05,0,.11,0,.18,0,.08,0,.14,0,.2,0,.06-.02.1-.04.14-.02.04-.04.06-.06.08-.02.02-.05.02-.08.02-.04,0-.1-.03-.18-.08s-.18-.1-.3-.16c-.12-.06-.27-.11-.43-.16-.17-.05-.36-.08-.57-.08-.19,0-.36.02-.51.06-.15.04-.27.11-.36.19-.09.08-.16.17-.21.28-.05.11-.07.23-.07.36,0,.18.05.33.14.45.09.12.21.23.36.32s.31.17.5.25.38.15.57.23c.19.08.39.16.57.26.19.1.36.21.5.35s.26.3.35.49c.09.19.13.42.13.68Z"/>
    <path class="cls-1" d="M119.16,98.47s0,.07-.03.09c-.02.02-.05.05-.09.06s-.1.03-.17.04-.17.01-.28.01-.2,0-.27-.01-.13-.02-.17-.04c-.04-.02-.07-.04-.09-.06-.02-.03-.02-.06-.02-.09v-9.13s0-.07.02-.1c.02-.03.04-.05.09-.07.04-.02.1-.03.17-.04s.16-.01.27-.01.21,0,.28.01.13.02.17.04.07.04.09.07.03.06.03.1v9.13Z"/>
    <path class="cls-1" d="M122.5,90.24c0,.26-.05.44-.15.54s-.29.14-.55.14-.45-.05-.54-.14c-.1-.09-.15-.27-.15-.53s.05-.44.15-.54.29-.14.55-.14.45.05.54.14c.1.09.15.27.15.53ZM122.37,98.47s0,.07-.03.09c-.02.02-.05.05-.09.06s-.1.03-.17.04-.17.01-.28.01-.2,0-.27-.01-.13-.02-.17-.04c-.04-.02-.07-.04-.09-.06-.02-.03-.02-.06-.02-.09v-6.15s0-.06.02-.09c.02-.03.04-.05.09-.07.04-.02.1-.03.17-.04s.16-.01.27-.01.21,0,.28.01.13.02.17.04.07.04.09.07.03.06.03.09v6.15Z"/>
    <path class="cls-1" d="M129.5,98.47s0,.07-.03.1-.05.05-.09.07c-.04.02-.1.03-.18.04s-.18.01-.29.01-.22,0-.3,0c-.08,0-.15-.02-.2-.04-.05-.02-.1-.04-.13-.07-.03-.03-.06-.06-.09-.11l-2.6-3.4v3.41s0,.07-.03.09c-.02.02-.05.05-.09.06s-.1.03-.17.04-.17.01-.28.01-.2,0-.27-.01-.13-.02-.17-.04c-.04-.02-.07-.04-.09-.06-.02-.03-.02-.06-.02-.09v-9.13s0-.07.02-.1c.02-.03.04-.05.09-.07.04-.02.1-.03.17-.04s.16-.01.27-.01.21,0,.28.01.13.02.17.04.07.04.09.07.03.06.03.1v5.56l2.32-2.56s.08-.08.12-.11c.04-.03.09-.05.15-.08.06-.02.12-.03.2-.04.08,0,.17,0,.28,0s.21,0,.29,0c.08,0,.14.02.19.04.05.02.08.04.1.06.02.03.03.06.03.1,0,.05-.01.11-.04.16-.03.05-.08.12-.15.19l-2.23,2.23,2.5,3.25c.06.08.1.14.13.19.02.05.04.09.04.13Z"/>
    <path class="cls-1" d="M135.62,95.13c0,.18-.04.3-.13.38-.09.08-.19.11-.31.11h-4.05c0,.34.03.65.1.92.07.27.18.51.34.7s.37.35.62.45c.26.1.57.16.94.16.29,0,.55-.02.78-.07.23-.05.43-.1.59-.16s.3-.11.41-.16c.11-.05.19-.07.24-.07.03,0,.06,0,.09.02.03.02.04.04.06.07s.02.08.03.13c0,.06.01.13.01.21,0,.06,0,.11,0,.15,0,.04,0,.08-.02.12,0,.03-.02.06-.03.09-.02.03-.04.05-.06.08-.02.03-.1.07-.22.12-.12.06-.28.11-.48.17s-.42.1-.68.15c-.26.04-.53.07-.82.07-.51,0-.95-.07-1.33-.21-.38-.14-.7-.35-.96-.63s-.46-.63-.59-1.05-.2-.91-.2-1.46.07-1,.21-1.42c.14-.42.33-.78.59-1.07.26-.29.57-.52.93-.68.36-.16.77-.24,1.22-.24.48,0,.89.08,1.23.23.34.16.62.36.84.62.22.26.38.57.48.92.1.35.15.73.15,1.13v.21ZM134.48,94.8c.01-.59-.12-1.06-.4-1.39s-.69-.51-1.23-.51c-.28,0-.53.05-.74.16s-.39.24-.53.42c-.14.17-.25.38-.33.6-.08.23-.12.47-.13.72h3.36Z"/>
    <path class="cls-1" d="M145.79,98.47s0,.07-.03.09c-.02.02-.05.05-.09.06s-.1.03-.17.04-.16.01-.27.01-.21,0-.28-.01-.13-.02-.17-.04-.07-.04-.09-.06c-.02-.03-.03-.06-.03-.09v-3.6c0-.35-.03-.63-.08-.85s-.13-.4-.24-.55-.24-.27-.41-.36c-.17-.08-.36-.12-.58-.12-.28,0-.57.1-.85.3s-.58.49-.89.88v4.3s0,.07-.03.09c-.02.02-.05.05-.09.06s-.1.03-.17.04-.17.01-.28.01-.2,0-.27-.01-.13-.02-.17-.04c-.04-.02-.07-.04-.09-.06-.02-.03-.02-.06-.02-.09v-6.15s0-.07.02-.09c.01-.02.04-.05.08-.07.04-.02.09-.03.16-.04.06,0,.15,0,.25,0s.18,0,.25,0c.07,0,.12.02.15.04.04.02.06.04.08.07.02.03.02.06.02.09v.81c.35-.39.69-.67,1.04-.85.34-.18.69-.27,1.04-.27.41,0,.76.07,1.04.21.28.14.51.32.68.56s.3.5.37.82c.08.31.11.69.11,1.12v3.75Z"/>
    <path class="cls-1" d="M153.1,95.13c0,.18-.04.3-.13.38-.09.08-.19.11-.31.11h-4.05c0,.34.03.65.1.92.07.27.18.51.34.7s.37.35.62.45c.26.1.57.16.94.16.29,0,.55-.02.78-.07.23-.05.43-.1.59-.16s.3-.11.41-.16c.11-.05.19-.07.24-.07.03,0,.06,0,.09.02.03.02.04.04.06.07s.02.08.03.13c0,.06.01.13.01.21,0,.06,0,.11,0,.15,0,.04,0,.08-.02.12,0,.03-.02.06-.03.09-.02.03-.04.05-.06.08-.02.03-.1.07-.22.12-.12.06-.28.11-.48.17s-.42.1-.68.15c-.26.04-.53.07-.82.07-.51,0-.95-.07-1.33-.21-.38-.14-.7-.35-.96-.63s-.46-.63-.59-1.05-.2-.91-.2-1.46.07-1,.21-1.42c.14-.42.33-.78.59-1.07.26-.29.57-.52.93-.68.36-.16.77-.24,1.22-.24.48,0,.89.08,1.23.23.34.16.62.36.84.62.22.26.38.57.48.92.1.35.15.73.15,1.13v.21ZM151.97,94.8c.01-.59-.12-1.06-.4-1.39s-.69-.51-1.23-.51c-.28,0-.53.05-.74.16s-.39.24-.53.42c-.14.17-.25.38-.33.6-.08.23-.12.47-.13.72h3.36Z"/>
    <path class="cls-1" d="M159.79,92.31s0,.04,0,.06c0,.02,0,.04-.01.07s-.01.05-.02.08c0,.03-.02.06-.02.09l-2.1,5.84s-.04.09-.07.12c-.03.03-.07.06-.13.08s-.13.03-.23.04c-.09,0-.21,0-.34,0s-.25,0-.34-.01-.17-.02-.22-.04c-.06-.02-.1-.04-.13-.08s-.06-.07-.08-.12l-2.09-5.84c-.02-.05-.03-.1-.04-.14-.01-.04-.02-.07-.02-.09,0-.02,0-.04,0-.05,0-.04,0-.07.03-.1s.05-.05.09-.07c.04-.02.1-.03.17-.03.07,0,.16,0,.26,0,.13,0,.24,0,.32,0,.08,0,.14.02.19.04.04.02.07.04.1.07.02.03.04.06.06.1l1.74,5.07.03.08.02-.08,1.72-5.07s.03-.08.05-.1.06-.05.1-.07c.04-.02.1-.03.18-.04.07,0,.17,0,.3,0,.1,0,.19,0,.26,0s.12.02.16.03c.04.02.07.04.08.06.02.03.02.06.02.09Z"/>
    <path class="cls-1" d="M166.19,95.13c0,.18-.04.3-.13.38-.09.08-.19.11-.31.11h-4.05c0,.34.03.65.1.92.07.27.18.51.34.7s.37.35.62.45c.26.1.57.16.94.16.29,0,.55-.02.78-.07.23-.05.43-.1.59-.16s.3-.11.41-.16c.11-.05.19-.07.24-.07.03,0,.06,0,.09.02.03.02.04.04.06.07s.02.08.03.13c0,.06.01.13.01.21,0,.06,0,.11,0,.15,0,.04,0,.08-.02.12,0,.03-.02.06-.03.09-.02.03-.04.05-.06.08-.02.03-.1.07-.22.12-.12.06-.28.11-.48.17s-.42.1-.68.15c-.26.04-.53.07-.82.07-.51,0-.95-.07-1.33-.21-.38-.14-.7-.35-.96-.63s-.46-.63-.59-1.05-.2-.91-.2-1.46.07-1,.21-1.42c.14-.42.33-.78.59-1.07.26-.29.57-.52.93-.68.36-.16.77-.24,1.22-.24.48,0,.89.08,1.23.23.34.16.62.36.84.62.22.26.38.57.48.92.1.35.15.73.15,1.13v.21ZM165.05,94.8c.01-.59-.12-1.06-.4-1.39s-.69-.51-1.23-.51c-.28,0-.53.05-.74.16s-.39.24-.53.42c-.14.17-.25.38-.33.6-.08.23-.12.47-.13.72h3.36Z"/>
    <path class="cls-1" d="M171.5,92.72c0,.1,0,.18,0,.25s-.01.12-.03.16c-.01.04-.03.07-.05.09-.02.02-.05.03-.09.03s-.08,0-.13-.03c-.05-.02-.11-.04-.18-.06-.07-.02-.14-.04-.22-.06s-.17-.03-.27-.03c-.11,0-.23.02-.33.07s-.22.12-.35.23c-.12.1-.25.24-.38.42s-.28.38-.44.64v4.05s0,.07-.03.09c-.02.02-.05.05-.09.06s-.1.03-.17.04-.17.01-.28.01-.2,0-.27-.01-.13-.02-.17-.04c-.04-.02-.07-.04-.09-.06-.02-.03-.02-.06-.02-.09v-6.15s0-.07.02-.09c.01-.02.04-.05.08-.07.04-.02.09-.03.16-.04.06,0,.15,0,.25,0s.18,0,.25,0c.07,0,.12.02.15.04.04.02.06.04.08.07.02.03.02.06.02.09v.9c.17-.25.33-.45.47-.6.15-.16.29-.28.42-.37.13-.09.26-.15.39-.19.13-.03.26-.05.39-.05.06,0,.13,0,.2,0,.08,0,.15.02.24.04s.16.04.22.06c.07.02.11.05.14.07s.05.04.05.06c0,.02.02.05.02.08,0,.03.01.08.01.14,0,.06,0,.15,0,.25Z"/>
    <path class="cls-1" d="M181.61,95.32c0,.53-.06,1.01-.17,1.44-.12.43-.29.79-.51,1.09-.23.3-.5.53-.83.69s-.7.24-1.13.24c-.2,0-.38-.02-.54-.06-.17-.04-.33-.1-.49-.19s-.32-.2-.48-.33-.33-.29-.51-.48v.75s0,.07-.03.1-.05.05-.09.07c-.04.02-.09.03-.15.04-.06,0-.14.01-.24.01s-.17,0-.23-.01-.12-.02-.16-.04c-.04-.02-.07-.04-.08-.07s-.02-.06-.02-.1v-9.13s0-.07.02-.1c.02-.03.04-.05.09-.07.04-.02.1-.03.17-.04s.16-.01.27-.01.21,0,.28.01.13.02.17.04.07.04.09.07.03.06.03.1v3.68c.18-.19.36-.34.53-.47.17-.13.34-.23.5-.31.16-.08.33-.14.49-.17s.34-.05.52-.05c.45,0,.83.09,1.15.27.32.18.57.42.77.71.2.3.34.65.43,1.05s.14.83.14,1.27ZM180.44,95.45c0-.31-.02-.62-.07-.92s-.13-.56-.25-.79-.28-.41-.47-.55c-.2-.14-.44-.21-.74-.21-.15,0-.29.02-.43.06-.14.04-.29.11-.43.21s-.3.22-.46.37-.33.34-.51.57v2.45c.31.38.61.67.89.86.28.2.58.3.89.3.28,0,.53-.07.73-.21.2-.14.37-.32.49-.54.13-.22.22-.48.28-.76.06-.28.09-.56.09-.85Z"/>
    <path class="cls-1" d="M188.55,95.13c0,.18-.04.3-.13.38-.09.08-.19.11-.31.11h-4.05c0,.34.03.65.1.92.07.27.18.51.34.7s.37.35.62.45c.26.1.57.16.94.16.29,0,.55-.02.78-.07.23-.05.43-.1.59-.16s.3-.11.41-.16c.11-.05.19-.07.24-.07.03,0,.06,0,.09.02.03.02.04.04.06.07s.02.08.03.13c0,.06.01.13.01.21,0,.06,0,.11,0,.15,0,.04,0,.08-.02.12,0,.03-.02.06-.03.09-.02.03-.04.05-.06.08-.02.03-.1.07-.22.12-.12.06-.28.11-.48.17s-.42.1-.68.15c-.26.04-.53.07-.82.07-.51,0-.95-.07-1.33-.21-.38-.14-.7-.35-.96-.63s-.46-.63-.59-1.05-.2-.91-.2-1.46.07-1,.21-1.42c.14-.42.33-.78.59-1.07.26-.29.57-.52.93-.68.36-.16.77-.24,1.22-.24.48,0,.89.08,1.23.23.34.16.62.36.84.62.22.26.38.57.48.92.1.35.15.73.15,1.13v.21ZM187.42,94.8c.01-.59-.12-1.06-.4-1.39s-.69-.51-1.23-.51c-.28,0-.53.05-.74.16s-.39.24-.53.42c-.14.17-.25.38-.33.6-.08.23-.12.47-.13.72h3.36Z"/>
    <path class="cls-1" d="M193.52,89.79c0,.09,0,.16-.01.21,0,.05-.02.09-.03.13-.01.03-.03.05-.04.06-.02.01-.04.02-.07.02-.03,0-.07,0-.12-.03-.05-.02-.11-.04-.17-.07-.07-.02-.15-.05-.24-.07-.09-.02-.2-.03-.33-.03-.17,0-.31.03-.43.08s-.21.14-.29.26c-.07.12-.12.27-.16.45-.03.18-.05.41-.05.67v.67h1.37s.07,0,.09.02c.02.02.05.04.07.08.02.04.04.09.05.15.01.06.02.13.02.22,0,.16-.02.28-.06.36s-.1.11-.16.11h-1.37v5.39s0,.07-.03.09c-.02.02-.05.05-.09.06-.04.02-.1.03-.17.04s-.16.01-.27.01-.2,0-.27-.01-.13-.02-.17-.04c-.04-.02-.07-.04-.09-.06-.02-.03-.03-.06-.03-.09v-5.39h-.87c-.07,0-.13-.04-.16-.11s-.05-.19-.05-.36c0-.09,0-.16.01-.22s.02-.11.04-.15c.02-.04.04-.07.07-.08.03-.02.06-.02.1-.02h.87v-.64c0-.43.04-.8.12-1.1.08-.31.2-.56.37-.76s.37-.34.62-.43c.25-.09.54-.14.88-.14.16,0,.31.01.46.04.15.03.27.06.35.1.08.03.14.06.16.09s.05.06.07.11c.02.04.03.1.04.16,0,.06,0,.13,0,.22Z"/>
    <path class="cls-1" d="M199.85,95.33c0,.5-.07.96-.2,1.38-.13.42-.33.79-.59,1.09-.26.31-.59.54-.98.71-.39.17-.85.26-1.37.26s-.95-.08-1.32-.23c-.38-.15-.69-.37-.94-.66s-.44-.64-.56-1.05-.18-.88-.18-1.39.06-.96.2-1.38c.13-.42.33-.79.59-1.09.26-.31.59-.54.98-.71s.85-.25,1.37-.25.95.08,1.32.23c.38.15.69.37.94.66s.44.64.56,1.05c.12.41.19.87.19,1.39ZM198.68,95.4c0-.33-.03-.65-.09-.94-.06-.3-.17-.56-.31-.78s-.33-.4-.58-.53c-.24-.13-.55-.2-.91-.2-.34,0-.62.06-.87.18s-.44.29-.6.5c-.16.22-.27.47-.35.77-.08.3-.11.62-.11.97s.03.65.09.95c.06.3.17.55.31.78.15.22.34.4.58.53.24.13.55.2.91.2.33,0,.62-.06.86-.18.24-.12.44-.29.6-.5s.27-.47.34-.77.11-.62.11-.98Z"/>
    <path class="cls-1" d="M205.1,92.72c0,.1,0,.18,0,.25s-.01.12-.03.16c-.01.04-.03.07-.05.09-.02.02-.05.03-.09.03s-.08,0-.13-.03c-.05-.02-.11-.04-.18-.06-.07-.02-.14-.04-.22-.06s-.17-.03-.27-.03c-.11,0-.23.02-.33.07s-.22.12-.35.23c-.12.1-.25.24-.38.42s-.28.38-.44.64v4.05s0,.07-.03.09c-.02.02-.05.05-.09.06s-.1.03-.17.04-.17.01-.28.01-.2,0-.27-.01-.13-.02-.17-.04c-.04-.02-.07-.04-.09-.06-.02-.03-.02-.06-.02-.09v-6.15s0-.07.02-.09c.01-.02.04-.05.08-.07.04-.02.09-.03.16-.04.06,0,.15,0,.25,0s.18,0,.25,0c.07,0,.12.02.15.04.04.02.06.04.08.07.02.03.02.06.02.09v.9c.17-.25.33-.45.47-.6.15-.16.29-.28.42-.37.13-.09.26-.15.39-.19.13-.03.26-.05.39-.05.06,0,.13,0,.2,0,.08,0,.15.02.24.04s.16.04.22.06c.07.02.11.05.14.07s.05.04.05.06c0,.02.02.05.02.08,0,.03.01.08.01.14,0,.06,0,.15,0,.25Z"/>
    <path class="cls-1" d="M211.45,95.13c0,.18-.04.3-.13.38-.09.08-.19.11-.31.11h-4.05c0,.34.03.65.1.92.07.27.18.51.34.7s.37.35.62.45c.26.1.57.16.94.16.29,0,.55-.02.78-.07.23-.05.43-.1.59-.16s.3-.11.41-.16c.11-.05.19-.07.24-.07.03,0,.06,0,.09.02.03.02.04.04.06.07s.02.08.03.13c0,.06.01.13.01.21,0,.06,0,.11,0,.15,0,.04,0,.08-.02.12,0,.03-.02.06-.03.09-.02.03-.04.05-.06.08-.02.03-.1.07-.22.12-.12.06-.28.11-.48.17s-.42.1-.68.15c-.26.04-.53.07-.82.07-.51,0-.95-.07-1.33-.21-.38-.14-.7-.35-.96-.63s-.46-.63-.59-1.05-.2-.91-.2-1.46.07-1,.21-1.42c.14-.42.33-.78.59-1.07.26-.29.57-.52.93-.68.36-.16.77-.24,1.22-.24.48,0,.89.08,1.23.23.34.16.62.36.84.62.22.26.38.57.48.92.1.35.15.73.15,1.13v.21ZM210.32,94.8c.01-.59-.12-1.06-.4-1.39s-.69-.51-1.23-.51c-.28,0-.53.05-.74.16s-.39.24-.53.42c-.14.17-.25.38-.33.6-.08.23-.12.47-.13.72h3.36Z"/>
    <path class="cls-1" d="M90.05,98.02c0,.13,0,.24-.03.31s-.05.13-.08.17-.09.07-.16.1-.16.06-.25.08c-.09.02-.19.04-.3.05s-.21.02-.31.02c-.32,0-.59-.04-.82-.13-.23-.08-.41-.21-.56-.38-.15-.17-.25-.39-.32-.65-.07-.26-.1-.57-.1-.93v-3.6h-.86c-.07,0-.12-.04-.16-.11s-.06-.19-.06-.36c0-.09,0-.16.02-.22s.03-.11.04-.15c.02-.04.04-.07.07-.08.03-.02.06-.02.1-.02h.85v-1.46s0-.06.02-.09.05-.05.09-.07c.04-.02.1-.04.17-.04s.16-.01.27-.01.21,0,.28.01.13.02.17.04c.04.02.07.04.09.07s.03.06.03.09v1.46h1.58s.07,0,.1.02c.03.02.05.04.07.08.02.04.04.09.04.15s.01.13.01.22c0,.16-.02.28-.06.36s-.1.11-.16.11h-1.58v3.43c0,.42.06.74.19.96.13.22.35.32.67.32.1,0,.2,0,.28-.03.08-.02.15-.04.22-.06s.12-.04.16-.06c.05-.02.09-.03.12-.03.02,0,.04,0,.06.02.02.01.04.03.05.06s.02.08.03.13.01.12.01.21Z"/>
    <path class="cls-1" d="M92.8,90.24c0,.26-.05.44-.15.54s-.28.14-.55.14-.45-.05-.54-.14c-.1-.09-.15-.27-.15-.53s.05-.44.15-.54.28-.14.55-.14.45.05.54.14c.1.09.15.27.15.53ZM92.67,98.47s0,.07-.03.09c-.02.02-.05.05-.09.06s-.1.03-.17.04-.17.01-.28.01-.2,0-.27-.01-.13-.02-.17-.04-.07-.04-.09-.06c-.02-.03-.02-.06-.02-.09v-6.15s0-.06.02-.09.05-.05.09-.07.1-.03.17-.04.16-.01.27-.01.21,0,.28.01.13.02.17.04.07.04.09.07.03.06.03.09v6.15Z"/>
  </g>
</svg>