<svg id="Layer_1" data-name="Layer 1" xmlns="http://www.w3.org/2000/svg" viewBox="0 0 215 100.87">
  <defs>
    <style>
      .cls-1{opacity:0.35;}.cls-2{fill:#5d9632;}.cls-3{fill:#00a551;}.cls-4{fill:#b1ba1e;}.cls-5,.cls-7{fill:#00803e;}.cls-6{fill:#333;}.cls-7{font-size:12px;font-family:ArialMT, Arial;}.cls-8{letter-spacing:-0.06em;}
    </style>
  </defs>
  <g class="cls-1">
    <path class="cls-2" d="M58.28,22a6.09,6.09,0,0,0-1,.47l0,0L56,21.36l-1.27,1.11L55.58,24a6.75,6.75,0,0,0-.62.89h0l-1.6-.31-.59,1.59,1.41.9a8.06,8.06,0,0,0-.13,1.1h0l-1.55.51.23,1.69,1.67.11a3.81,3.81,0,0,0,.41,1l0,0-1.1,1.16,1,1.37,1.48-.72a6.67,6.67,0,0,0,1.11.89v0l-.34,1.62,1.55.64L59.34,35a6.74,6.74,0,0,0,1.62.14v0l.59,1.54,1.64-.35,0-1.71h0a6.24,6.24,0,0,0,1-.48l0,0,1.25,1.05,1.27-1.1-.82-1.49h0a6.47,6.47,0,0,0,.62-.89l.05,0,1.6.31.59-1.59-1.42-.91h0a6.49,6.49,0,0,0,.12-1.08h.06L69,28l-.23-1.68-1.68-.1-.09-.1a4.66,4.66,0,0,0-.47-1.1l0,0,1.09-.88-1-1.37-1.43.67h0a6.47,6.47,0,0,0-1.08-.89l0-.07.34-1.62L63,20.21l-.91,1.44h0a6.71,6.71,0,0,0-1.61-.15v-.05l-.6-1.54-1.63.34V22Zm6,3.62A4.67,4.67,0,0,1,63.41,32a4.43,4.43,0,0,1-6.3-.94A4.67,4.67,0,0,1,58,24.66,4.45,4.45,0,0,1,64.33,25.6Z"/>
    <path class="cls-3" d="M42.74,5.13a10.52,10.52,0,0,0-1.35.66l0,0L39.61,4.27,37.84,5.82,39,7.89a10.47,10.47,0,0,0-.88,1.25h0l-2.22-.44L35,10.91l2,1.26a9.69,9.69,0,0,0-.18,1.53h0l-2.16.71.33,2.36,2.32.14a5.36,5.36,0,0,0,.59,1.45l0,0L36.27,20l1.39,1.91,2.07-1a8.27,8.27,0,0,0,1.55,1.24l0,.05-.47,2.26,2.16.89,1.27-2a8.94,8.94,0,0,0,2.25.2v.06l.84,2.15,2.28-.48,0-2.39h0a8.76,8.76,0,0,0,1.34-.66l0,0,1.75,1.48,1.77-1.54L53.34,20.1h0a8.75,8.75,0,0,0,.87-1.25l.07,0,2.22.44.83-2.23-2-1.26h0a10.9,10.9,0,0,0,.17-1.51h.09l2.16-.71-.33-2.35-2.33-.14L54.93,11a7,7,0,0,0-.66-1.54l.07,0,1.53-1.23L54.48,6.24l-2,.94,0,0A9.68,9.68,0,0,0,51,5.92l0-.09.48-2.27-2.17-.89-1.26,2v0a9.4,9.4,0,0,0-2.24-.21V4.41L45,2.26l-2.28.48,0,2.39Zm8.43,5.06a6.49,6.49,0,0,1-1.29,9,6.18,6.18,0,0,1-8.78-1.31,6.51,6.51,0,0,1,1.29-9A6.19,6.19,0,0,1,51.17,10.19Z"/>
    <path class="cls-4" d="M71.3,3.14a10.52,10.52,0,0,0-1.47.72l0,0L67.88,2.2,65.94,3.89l1.25,2.27a10.75,10.75,0,0,0-1,1.36l0,0L63.76,7l-.91,2.43L65,10.82a10.42,10.42,0,0,0-.19,1.67h0l-2.35.77.35,2.58L65.3,16a6.46,6.46,0,0,0,.64,1.57l0,0-1.68,1.77,1.52,2.08L68,20.36a9.72,9.72,0,0,0,1.69,1.35l0,.05-.51,2.48,2.36,1L72.91,23a10.24,10.24,0,0,0,2.47.22v.06l.91,2.35,2.49-.52,0-2.61h0a9.52,9.52,0,0,0,1.47-.72l0,.05,1.9,1.61,1.94-1.68-1.25-2.28h0a9,9,0,0,0,1-1.36l.07,0,2.43.48.91-2.43L85,14.82h0a10.05,10.05,0,0,0,.19-1.64l.09,0,2.36-.77L87.3,9.8l-2.55-.14-.14-.14a7.15,7.15,0,0,0-.73-1.68L84,7.78l1.67-1.35L84.11,4.35l-2.18,1,0,0A9.56,9.56,0,0,0,80.32,4l.05-.1.52-2.48-2.36-1L77.15,2.64v0a10.52,10.52,0,0,0-2.44-.23l0-.08L73.77,0l-2.5.53,0,2.6Zm9.2,5.52a7.1,7.1,0,0,1-1.4,9.79A6.77,6.77,0,0,1,69.51,17a7.09,7.09,0,0,1,1.41-9.79A6.75,6.75,0,0,1,80.5,8.66Z"/>
    <path class="cls-5" d="M36.86,27.59a12.12,12.12,0,0,0-1.58.77l0-.05-2-1.73-2.08,1.81,1.34,2.43a10.51,10.51,0,0,0-1,1.47l-.05,0-2.61-.52-1,2.61,2.32,1.47a10.79,10.79,0,0,0-.21,1.79h-.05l-2.53.82.38,2.77,2.72.17a6.68,6.68,0,0,0,.68,1.68l0,0L29.28,45l1.63,2.24,2.42-1.18a11.36,11.36,0,0,0,1.82,1.45l0,.05-.55,2.65,2.54,1,1.48-2.34a10.64,10.64,0,0,0,2.64.24v.06l1,2.52,2.67-.56,0-2.8h0a10.13,10.13,0,0,0,1.58-.79l.05.06,2,1.73,2.08-1.81-1.34-2.44h0a11.06,11.06,0,0,0,1-1.45l.08,0,2.6.51,1-2.6L51.6,40.12h0a11.84,11.84,0,0,0,.2-1.77h.1l2.52-.83L54,34.74l-2.74-.16-.15-.15a7.82,7.82,0,0,0-.77-1.8l.08-.07,1.79-1.44L50.6,28.88,48.26,30l.05,0a10.94,10.94,0,0,0-1.77-1.44l.05-.11.56-2.66-2.54-1-1.48,2.34v0a10.62,10.62,0,0,0-2.63-.25l0-.09-1-2.52-2.68.56,0,2.8Zm10,5.81a7.79,7.79,0,0,1-1.54,10.75A7.43,7.43,0,0,1,34.8,42.58a7.79,7.79,0,0,1,1.54-10.75A7.42,7.42,0,0,1,46.87,33.4Z"/>
  </g>
  <path class="cls-2" d="M13.22,25.85l-3.7-6.56h-7L3.74,15h7.87a1.58,1.58,0,0,0,1.58-1.61V10a1.58,1.58,0,0,0-1.58-1.61H4.18V25.85H0V4H11.7a5.78,5.78,0,0,1,5.7,5.72v3.81A5.81,5.81,0,0,1,14,18.77l4,7.08Zm4.18-16v0Zm0,3.71v0Z"/>
  <path class="cls-2" d="M34.34,12.8v4.29H23.64V20a1.62,1.62,0,0,0,1.59,1.61h9.11v4.27H25.16A5.77,5.77,0,0,1,19.47,20V9.86A5.77,5.77,0,0,1,25.16,4h9.18l-1.27,4.3H25.23A1.6,1.6,0,0,0,23.64,10v5l-1.3-2.16Z"/>
  <path class="cls-5" d="M166.52,50.18c-.39,2.53-2.32,2-2.56.69L160.77,37c-3.69,0-4.55,0-8.24,0-5.85,0-6.83-.69-8.28,4.52-.13.56-.44,2.36-.52,2.8-.87,5.19-1.75,10.38-2.59,15.58-.48,3-1,6.48-1.51,9.63H148c1.22.05,1.58-.45,1.81-1.54.92-4.55,2-9.62,3.05-14.15.4-2.21,1.31-1.79,1.44-1l3,16.71h15.53c.86,0,1.08-.93,1.21-1.73,1.26-7.34,2.58-14.66,3.86-22,.51-2.91,1-5.82,1.48-8.82H168.92C168.1,41.49,167.26,45.83,166.52,50.18Zm44.54,19.39c-2.88-5.64-5.86-11.57-8.59-16.92C206.6,47.49,210.58,42.49,215,37H201.4c-.42,0-.89.49-1.21.88l-6.08,6.51c.24-2.82.43-5.07.63-7.37H182.82c-1.94,10.16-3.08,16.11-6.22,32.53h12.61c.48-4,.93-7.74,1.4-11.62.07-.33.68-1.4,1.68,1,1.21,2.94,2.38,5.89,3.56,8.84a2.73,2.73,0,0,0,3,1.76Z"/>
  <path class="cls-5" d="M115.44,37h11.93c-.52,3.23-1,6.36-1.54,9.48-1,5.35-1.88,10.7-3,16A11.71,11.71,0,0,1,121,66.74c-1.36,2-2.82,2.83-5.82,2.83h-6c.45-3.81.85-7.29,1.3-11.12-2.13,0-4.09-.06-6,.06-.37,0-.88.71-1,1.19-.85,3.24-1.62,6.51-2.44,9.87h-12C90.91,58.68,92.75,47.88,94.6,37h12.61c-.43,3.49-.84,6.9-1.29,10.57,2.15,0,4.11.07,6.07-.06.36,0,.86-.74,1-1.23C113.85,43.24,114.62,40.16,115.44,37Z"/>
  <path class="cls-5" d="M62.09,37a4,4,0,0,0-2,.61c-3.71,2.28-4.19,5.85-3.67,10.07H68.17c-1.39,7.15-2.93,14.69-4.33,21.87H75c1.19,0,1.62-.37,1.83-1.51,1.16-6.16,2.62-12.83,3.75-19,.22-1.18.68-1.42,1.72-1.4,2.74.06,5.47,0,8.3,0,.7-3.6,1.38-7.12,2.06-10.66Z"/>
  <path class="cls-2" d="M135.4,78.64A6.56,6.56,0,1,1,128.84,72,6.63,6.63,0,0,1,135.4,78.64Z"/>
  <path class="cls-2" d="M136.49,30.54c-5.48,0-4.54-.77-7.08,10.31l-.48,2.32c-1,5-1.92,10-2.88,14.95-.74,3.77-1.48,7.48-2.26,11.45h9.54c.83,0,3.8-1.2,4.77-7.13.66-4.32,4.21-25.38,5.3-31.91Z"/>
  <path class="cls-6" d="M68.74,96.51a2.3,2.3,0,0,1-.2,1,1.92,1.92,0,0,1-.55.71,2.69,2.69,0,0,1-.86.44,4.11,4.11,0,0,1-1.8.09,3.75,3.75,0,0,1-.6-.15,2.43,2.43,0,0,1-.45-.19,1.42,1.42,0,0,1-.27-.17.43.43,0,0,1-.12-.22,1.41,1.41,0,0,1,0-.39,1.69,1.69,0,0,1,0-.25,1.57,1.57,0,0,1,0-.16A.22.22,0,0,1,64,97.1a.16.16,0,0,1,.09,0,.46.46,0,0,1,.25.11l.41.23a4,4,0,0,0,.57.23,2.54,2.54,0,0,0,.76.1,2.17,2.17,0,0,0,.59-.07,1.17,1.17,0,0,0,.45-.21.87.87,0,0,0,.29-.34,1.15,1.15,0,0,0,.11-.5.85.85,0,0,0-.15-.51,1.57,1.57,0,0,0-.4-.36,4.69,4.69,0,0,0-.55-.28l-.63-.25c-.22-.09-.43-.19-.64-.3a2.52,2.52,0,0,1-.56-.41,2.11,2.11,0,0,1-.39-.58,2,2,0,0,1-.15-.81,2.09,2.09,0,0,1,.15-.79,1.88,1.88,0,0,1,.48-.67,2.3,2.3,0,0,1,.78-.46A3.41,3.41,0,0,1,66.54,91a3.48,3.48,0,0,1,.55,0l.5.12a2.29,2.29,0,0,1,.38.16l.24.14a.47.47,0,0,1,.1.11.36.36,0,0,1,0,.11.46.46,0,0,1,0,.14,1.34,1.34,0,0,1,0,.21,1.55,1.55,0,0,1,0,.23.34.34,0,0,1,0,.16s0,.08-.06.09a.13.13,0,0,1-.08,0,.37.37,0,0,1-.2-.09l-.34-.18a3.4,3.4,0,0,0-.49-.18,2.11,2.11,0,0,0-.64-.09,2,2,0,0,0-.57.08,1,1,0,0,0-.4.21.93.93,0,0,0-.24.32,1.11,1.11,0,0,0-.08.41.85.85,0,0,0,.15.51,1.78,1.78,0,0,0,.4.37,3.66,3.66,0,0,0,.56.28l.64.26c.22.09.44.19.65.3a2.24,2.24,0,0,1,.56.39,1.78,1.78,0,0,1,.4.57A1.87,1.87,0,0,1,68.74,96.51Z"/>
  <path class="cls-6" d="M77,94.83a5.29,5.29,0,0,1-.22,1.58,3.69,3.69,0,0,1-.66,1.26,3.13,3.13,0,0,1-1.11.81,3.71,3.71,0,0,1-1.54.3A3.91,3.91,0,0,1,72,98.52a2.63,2.63,0,0,1-1.06-.75,3.27,3.27,0,0,1-.63-1.2,5.65,5.65,0,0,1-.2-1.6,5.72,5.72,0,0,1,.21-1.59,3.64,3.64,0,0,1,.66-1.25,3,3,0,0,1,1.1-.81,4.31,4.31,0,0,1,3,0,2.7,2.7,0,0,1,1.06.75,3.27,3.27,0,0,1,.63,1.2A5.57,5.57,0,0,1,77,94.83Zm-1.31.08a5.34,5.34,0,0,0-.11-1.08,2.7,2.7,0,0,0-.34-.89,1.73,1.73,0,0,0-.65-.61,2.11,2.11,0,0,0-1-.22,2.21,2.21,0,0,0-1,.2,1.79,1.79,0,0,0-.67.58,2.44,2.44,0,0,0-.39.88,4.33,4.33,0,0,0-.13,1.11,5.39,5.39,0,0,0,.1,1.09,2.63,2.63,0,0,0,.35.89,1.67,1.67,0,0,0,.66.6,2.34,2.34,0,0,0,2,0,1.71,1.71,0,0,0,.68-.57,2.55,2.55,0,0,0,.38-.87A4.44,4.44,0,0,0,75.66,94.91Z"/>
  <path class="cls-6" d="M80.1,98.43a.2.2,0,0,1,0,.11.2.2,0,0,1-.1.07.64.64,0,0,1-.19,0l-.31,0-.31,0a.83.83,0,0,1-.2,0,.26.26,0,0,1-.1-.07.36.36,0,0,1,0-.11V88a.43.43,0,0,1,0-.11.26.26,0,0,1,.1-.07.53.53,0,0,1,.2,0l.31,0,.31,0a.43.43,0,0,1,.19,0,.2.2,0,0,1,.1.07.23.23,0,0,1,0,.11Z"/>
  <path class="cls-6" d="M88.36,98.43a.2.2,0,0,1,0,.11s0,0-.09.07l-.18,0-.27,0-.29,0a.56.56,0,0,1-.18,0,.22.22,0,0,1-.09-.07.36.36,0,0,1,0-.11V97.5a4.32,4.32,0,0,1-1.17,1,2.38,2.38,0,0,1-1.16.31,2.6,2.6,0,0,1-1.17-.24A2.07,2.07,0,0,1,83,97.9a2.7,2.7,0,0,1-.42-.94,6,6,0,0,1-.12-1.3V91.38a.2.2,0,0,1,0-.11.35.35,0,0,1,.11-.07.48.48,0,0,1,.2,0h.61a.53.53,0,0,1,.2,0l.1.07a.2.2,0,0,1,0,.11v4.11a4.39,4.39,0,0,0,.09,1,1.82,1.82,0,0,0,.27.63,1.26,1.26,0,0,0,.45.41,1.36,1.36,0,0,0,.65.15,1.59,1.59,0,0,0,.94-.35,5.63,5.63,0,0,0,1-1V91.38a.36.36,0,0,1,0-.11.35.35,0,0,1,.11-.07.48.48,0,0,1,.19,0H88a.43.43,0,0,1,.19,0,.52.52,0,0,1,.11.07.2.2,0,0,1,0,.11Z"/>
  <path class="cls-6" d="M96.71,91.18a.37.37,0,0,1,.31.1.48.48,0,0,1,.09.31v6.84a.2.2,0,0,1,0,.11.23.23,0,0,1-.11.07.64.64,0,0,1-.19,0l-.3,0-.32,0a.74.74,0,0,1-.19,0,.2.2,0,0,1-.1-.07.15.15,0,0,1,0-.11V92.25H92.27v3.93a2.25,2.25,0,0,0,.21,1.1.79.79,0,0,0,.75.38,1,1,0,0,0,.32,0l.24-.07.19-.08.13,0a.11.11,0,0,1,.08,0,.1.1,0,0,1,0,.07.89.89,0,0,1,.05.38,1.6,1.6,0,0,1,0,.36.46.46,0,0,1-.09.2.7.7,0,0,1-.18.12,1.23,1.23,0,0,1-.29.09l-.33.06-.35,0a2.74,2.74,0,0,1-.92-.14,1.53,1.53,0,0,1-.63-.44,2,2,0,0,1-.36-.75A4.67,4.67,0,0,1,91,96.37V92.25H90a.2.2,0,0,1-.18-.13.82.82,0,0,1-.07-.4.9.9,0,0,1,0-.25.58.58,0,0,1,0-.17.21.21,0,0,1,.08-.1l.11,0h1V89.5a.17.17,0,0,1,0-.1.22.22,0,0,1,.1-.09.74.74,0,0,1,.19,0h.62a.72.72,0,0,1,.2,0,.45.45,0,0,1,.1.09.17.17,0,0,1,0,.1v1.68ZM97.25,89a.89.89,0,0,1-.16.62.92.92,0,0,1-.63.16.88.88,0,0,1-.61-.16.86.86,0,0,1-.16-.61.64.64,0,0,1,.79-.78.62.62,0,0,1,.77.77Z"/>
  <path class="cls-6" d="M105.88,94.83a5.29,5.29,0,0,1-.22,1.58,3.54,3.54,0,0,1-.67,1.26,3,3,0,0,1-1.1.81,3.71,3.71,0,0,1-1.54.3,3.91,3.91,0,0,1-1.48-.26,2.63,2.63,0,0,1-1.06-.75,3.27,3.27,0,0,1-.63-1.2A5.64,5.64,0,0,1,99,95a5.71,5.71,0,0,1,.22-1.59,3.64,3.64,0,0,1,.66-1.25,3,3,0,0,1,1.1-.81,4.31,4.31,0,0,1,3,0A2.77,2.77,0,0,1,105,92a3.27,3.27,0,0,1,.63,1.2A5.57,5.57,0,0,1,105.88,94.83Zm-1.31.08a5.34,5.34,0,0,0-.11-1.08,2.7,2.7,0,0,0-.34-.89,1.73,1.73,0,0,0-.65-.61,2.14,2.14,0,0,0-1-.22,2.28,2.28,0,0,0-1,.2,1.76,1.76,0,0,0-.66.58,2.63,2.63,0,0,0-.4.88,4.84,4.84,0,0,0-.12,1.11,5.39,5.39,0,0,0,.1,1.09,2.63,2.63,0,0,0,.35.89,1.71,1.71,0,0,0,.65.6,2.15,2.15,0,0,0,1,.23,2.06,2.06,0,0,0,1-.21,1.71,1.71,0,0,0,.68-.57,2.55,2.55,0,0,0,.38-.87A4.44,4.44,0,0,0,104.57,94.91Z"/>
  <path class="cls-6" d="M113.69,98.43a.2.2,0,0,1,0,.11.2.2,0,0,1-.1.07.64.64,0,0,1-.19,0l-.31,0-.31,0a.64.64,0,0,1-.19,0,.2.2,0,0,1-.1-.07.2.2,0,0,1,0-.11V94.3a3.7,3.7,0,0,0-.1-1,2.13,2.13,0,0,0-.26-.63,1.13,1.13,0,0,0-.46-.41,1.35,1.35,0,0,0-.65-.14,1.6,1.6,0,0,0-.95.34,5.31,5.31,0,0,0-1,1v4.93a.2.2,0,0,1,0,.11.2.2,0,0,1-.1.07.64.64,0,0,1-.19,0l-.32,0-.3,0a.72.72,0,0,1-.2,0,.15.15,0,0,1-.12-.18V91.38a.2.2,0,0,1,0-.11.17.17,0,0,1,.09-.07.43.43,0,0,1,.18,0h.56a.38.38,0,0,1,.17,0,.35.35,0,0,1,.09.07.2.2,0,0,1,0,.11v.93a4.15,4.15,0,0,1,1.16-1,2.44,2.44,0,0,1,1.17-.31,2.52,2.52,0,0,1,1.16.24,2.18,2.18,0,0,1,.77.63,2.78,2.78,0,0,1,.42.94,6,6,0,0,1,.12,1.29Z"/>
  <path class="cls-6" d="M120.34,96.51a2.3,2.3,0,0,1-.2,1,1.92,1.92,0,0,1-.55.71,2.69,2.69,0,0,1-.86.44,4.11,4.11,0,0,1-1.8.09,3.75,3.75,0,0,1-.6-.15,2.43,2.43,0,0,1-.45-.19,1.16,1.16,0,0,1-.27-.17.43.43,0,0,1-.12-.22,1.41,1.41,0,0,1,0-.39,1.85,1.85,0,0,1,0-.25c0-.07,0-.12,0-.16a.22.22,0,0,1,.07-.09.16.16,0,0,1,.09,0,.46.46,0,0,1,.25.11l.41.23a4,4,0,0,0,.57.23,2.5,2.5,0,0,0,.76.1,2.17,2.17,0,0,0,.59-.07,1.17,1.17,0,0,0,.45-.21.87.87,0,0,0,.29-.34,1.15,1.15,0,0,0,.11-.5.85.85,0,0,0-.15-.51,1.57,1.57,0,0,0-.4-.36,4.69,4.69,0,0,0-.55-.28l-.63-.25c-.22-.09-.43-.19-.64-.3a2.52,2.52,0,0,1-.56-.41,2.11,2.11,0,0,1-.39-.58,2,2,0,0,1-.15-.81,2.09,2.09,0,0,1,.15-.79,1.88,1.88,0,0,1,.48-.67,2.3,2.3,0,0,1,.78-.46,3.36,3.36,0,0,1,1.11-.17,3.48,3.48,0,0,1,.55,0l.5.12a2.72,2.72,0,0,1,.38.16l.24.14a.47.47,0,0,1,.1.11.36.36,0,0,1,0,.11s0,.08,0,.14a1.34,1.34,0,0,1,0,.21,1.55,1.55,0,0,1,0,.23.53.53,0,0,1,0,.16.16.16,0,0,1-.06.09.13.13,0,0,1-.08,0,.37.37,0,0,1-.2-.09l-.34-.18a3.4,3.4,0,0,0-.49-.18,2.11,2.11,0,0,0-.64-.09,1.91,1.91,0,0,0-.57.08,1,1,0,0,0-.4.21.82.82,0,0,0-.24.32,1.11,1.11,0,0,0-.08.41.85.85,0,0,0,.15.51,1.78,1.78,0,0,0,.4.37,3.66,3.66,0,0,0,.56.28l.64.26c.22.09.44.19.65.3a2.24,2.24,0,0,1,.56.39,1.78,1.78,0,0,1,.4.57A1.87,1.87,0,0,1,120.34,96.51Z"/>
  <path class="cls-6" d="M123.82,97.51c0,.16,0,.31,0,.44a2.24,2.24,0,0,1-.08.39,1.78,1.78,0,0,1-.14.36,4,4,0,0,1-.22.37l-1,1.61-.09.1-.12.07-.17,0h-.46a.33.33,0,0,1-.13,0,.1.1,0,0,1,0-.07.23.23,0,0,1,0-.11l1-2.16v-1a1.09,1.09,0,0,1,0-.34.38.38,0,0,1,.13-.19.57.57,0,0,1,.23-.08,1.72,1.72,0,0,1,.34,0,1.55,1.55,0,0,1,.33,0,.52.52,0,0,1,.23.08.38.38,0,0,1,.13.19A1.09,1.09,0,0,1,123.82,97.51Z"/>
  <path class="cls-6" d="M137.27,98.07a.54.54,0,0,1-.05.27.59.59,0,0,1-.13.18.5.5,0,0,1-.19.1.76.76,0,0,1-.21,0h-.43a1.28,1.28,0,0,1-.36,0,.73.73,0,0,1-.3-.16,1.43,1.43,0,0,1-.27-.31,2.74,2.74,0,0,1-.3-.5l-3-5.77q-.24-.44-.48-.93l-.45-1h0c0,.37,0,.76,0,1.15s0,.78,0,1.16v6.12a.2.2,0,0,1,0,.11.31.31,0,0,1-.11.08l-.2,0-.33,0-.31,0-.2,0a.24.24,0,0,1-.11-.08.2.2,0,0,1,0-.11V89.07a.55.55,0,0,1,.17-.45.62.62,0,0,1,.38-.13H131a1.46,1.46,0,0,1,.39,0,.68.68,0,0,1,.27.13,1,1,0,0,1,.24.25,2.81,2.81,0,0,1,.24.4l2.33,4.45c.15.27.28.54.42.8l.38.76.37.74.36.73h0c0-.41,0-.84,0-1.28s0-.88,0-1.29V88.71a.12.12,0,0,1,0-.09.22.22,0,0,1,.1-.09.93.93,0,0,1,.21,0h.63a.81.81,0,0,1,.21,0,.22.22,0,0,1,.1.09.16.16,0,0,1,0,.09Z"/>
  <path class="cls-6" d="M145.66,94.6a.56.56,0,0,1-.15.44.52.52,0,0,1-.34.12h-4.55a4.24,4.24,0,0,0,.12,1.06,2,2,0,0,0,.38.81,1.74,1.74,0,0,0,.7.52,2.76,2.76,0,0,0,1.06.18,4.63,4.63,0,0,0,.88-.08,4.93,4.93,0,0,0,.66-.19l.47-.18a.64.64,0,0,1,.27-.08.16.16,0,0,1,.1,0,.16.16,0,0,1,.06.08.53.53,0,0,1,0,.16,1.63,1.63,0,0,1,0,.24.91.91,0,0,1,0,.17.59.59,0,0,1,0,.14.21.21,0,0,1,0,.1.28.28,0,0,1-.07.09.8.8,0,0,1-.24.14,3,3,0,0,1-.54.19,6,6,0,0,1-.77.17,5.25,5.25,0,0,1-.92.08,4,4,0,0,1-1.49-.25,2.7,2.7,0,0,1-1.08-.72,3.12,3.12,0,0,1-.66-1.19,5.7,5.7,0,0,1-.22-1.68,5.24,5.24,0,0,1,.23-1.64,3.46,3.46,0,0,1,.66-1.23,3,3,0,0,1,1.05-.77,3.73,3.73,0,0,1,2.76,0A2.71,2.71,0,0,1,145,92a3,3,0,0,1,.54,1.06,4.54,4.54,0,0,1,.17,1.3Zm-1.27-.38a2.44,2.44,0,0,0-.45-1.6,1.65,1.65,0,0,0-1.38-.58,1.81,1.81,0,0,0-.83.18,1.84,1.84,0,0,0-.59.48,2.09,2.09,0,0,0-.37.69,2.84,2.84,0,0,0-.15.83Z"/>
  <path class="cls-6" d="M153.17,91.36v.07s0,0,0,.08,0,0,0,.08l0,.1-2.35,6.7a.37.37,0,0,1-.08.14.38.38,0,0,1-.15.09,1,1,0,0,1-.26,0l-.38,0-.38,0a1.09,1.09,0,0,1-.25,0,.35.35,0,0,1-.15-.08.42.42,0,0,1-.09-.14l-2.35-6.7c0-.06,0-.11,0-.16a.65.65,0,0,1,0-.11v-.06a.23.23,0,0,1,0-.11.2.2,0,0,1,.1-.07.5.5,0,0,1,.19,0h.66l.2,0a.24.24,0,0,1,.11.08.63.63,0,0,1,.07.12l1.94,5.81,0,.09,0-.09,1.92-5.81a.23.23,0,0,1,.06-.12.24.24,0,0,1,.11-.08.88.88,0,0,1,.2,0h.63a.29.29,0,0,1,.17,0,.2.2,0,0,1,.1.07A.3.3,0,0,1,153.17,91.36Z"/>
  <path class="cls-6" d="M160.35,94.6a.56.56,0,0,1-.15.44.54.54,0,0,1-.34.12h-4.55a4.8,4.8,0,0,0,.11,1.06,2.11,2.11,0,0,0,.39.81,1.68,1.68,0,0,0,.7.52,2.76,2.76,0,0,0,1.06.18,4.63,4.63,0,0,0,.88-.08,5.41,5.41,0,0,0,.66-.19l.47-.18a.64.64,0,0,1,.27-.08.16.16,0,0,1,.1,0,.24.24,0,0,1,.06.08.53.53,0,0,1,0,.16c0,.06,0,.14,0,.24a.91.91,0,0,1,0,.17s0,.1,0,.14a.42.42,0,0,1,0,.1l-.07.09a.92.92,0,0,1-.25.14,2.63,2.63,0,0,1-.53.19,6,6,0,0,1-.77.17,5.34,5.34,0,0,1-.92.08,4,4,0,0,1-1.49-.25,2.7,2.7,0,0,1-1.08-.72,3.12,3.12,0,0,1-.66-1.19,5.7,5.7,0,0,1-.22-1.68,5.56,5.56,0,0,1,.22-1.64,3.64,3.64,0,0,1,.67-1.23,3,3,0,0,1,1.05-.77,3.35,3.35,0,0,1,1.37-.27,3.45,3.45,0,0,1,1.39.26,2.71,2.71,0,0,1,.94.72,3,3,0,0,1,.54,1.06,4.92,4.92,0,0,1,.17,1.3Zm-1.27-.38a2.44,2.44,0,0,0-.45-1.6,1.65,1.65,0,0,0-1.38-.58,1.81,1.81,0,0,0-.83.18,1.77,1.77,0,0,0-.6.48,2.29,2.29,0,0,0-.37.69,3.2,3.2,0,0,0-.14.83Z"/>
  <path class="cls-6" d="M166.31,91.84a2.44,2.44,0,0,1,0,.29.5.5,0,0,1,0,.19.23.23,0,0,1-.05.1.17.17,0,0,1-.1,0l-.15,0-.2-.07-.25-.07a1.39,1.39,0,0,0-.3,0,1,1,0,0,0-.37.08,1.26,1.26,0,0,0-.39.26,3.38,3.38,0,0,0-.43.47c-.15.2-.31.45-.49.73v4.64a.2.2,0,0,1,0,.11.2.2,0,0,1-.1.07.64.64,0,0,1-.19,0l-.32,0-.3,0a.83.83,0,0,1-.2,0,.15.15,0,0,1-.12-.18V91.38a.2.2,0,0,1,0-.11.17.17,0,0,1,.09-.07.43.43,0,0,1,.18,0h.56a.38.38,0,0,1,.17,0,.35.35,0,0,1,.09.07.2.2,0,0,1,0,.11v1a5.8,5.8,0,0,1,.53-.69,3.32,3.32,0,0,1,.47-.42,1.59,1.59,0,0,1,.44-.21,1.74,1.74,0,0,1,.45-.06h.22l.27,0,.25.07.15.08a.17.17,0,0,1,.07.08.51.51,0,0,0,0,.09.57.57,0,0,1,0,.16Z"/>
  <path class="cls-6" d="M177.66,94.81a6.45,6.45,0,0,1-.19,1.65,3.7,3.7,0,0,1-.58,1.25,2.43,2.43,0,0,1-.93.79,2.73,2.73,0,0,1-1.27.28,2.37,2.37,0,0,1-.61-.07,2.11,2.11,0,0,1-.55-.22,3.4,3.4,0,0,1-.53-.37,5.72,5.72,0,0,1-.57-.55v.86a.2.2,0,0,1,0,.11.27.27,0,0,1-.1.08l-.18,0-.26,0-.26,0-.18,0a.24.24,0,0,1-.09-.08.36.36,0,0,1,0-.11V88a.43.43,0,0,1,0-.11.23.23,0,0,1,.11-.07.43.43,0,0,1,.19,0l.31,0,.31,0a.43.43,0,0,1,.19,0,.2.2,0,0,1,.1.07.23.23,0,0,1,0,.11v4.23a4.7,4.7,0,0,1,.6-.54,3.28,3.28,0,0,1,.56-.36,2.63,2.63,0,0,1,.55-.2,2.81,2.81,0,0,1,.59-.06A2.42,2.42,0,0,1,177,92.15a3.69,3.69,0,0,1,.49,1.2A6.88,6.88,0,0,1,177.66,94.81Zm-1.31.15a7.2,7.2,0,0,0-.08-1A3.28,3.28,0,0,0,176,93a1.85,1.85,0,0,0-.54-.63,1.35,1.35,0,0,0-.82-.24,1.61,1.61,0,0,0-.49.07,2.38,2.38,0,0,0-.49.23,5.84,5.84,0,0,0-.51.43,5.6,5.6,0,0,0-.57.65v2.81a4.88,4.88,0,0,0,1,1,1.68,1.68,0,0,0,1,.35,1.37,1.37,0,0,0,.82-.24,1.74,1.74,0,0,0,.55-.62,3,3,0,0,0,.31-.87A4.59,4.59,0,0,0,176.35,95Z"/>
  <path class="cls-6" d="M185.46,94.6a.56.56,0,0,1-.15.44.54.54,0,0,1-.34.12h-4.55a4.8,4.8,0,0,0,.11,1.06,2.11,2.11,0,0,0,.39.81,1.68,1.68,0,0,0,.7.52,2.76,2.76,0,0,0,1.06.18,4.63,4.63,0,0,0,.88-.08,5.41,5.41,0,0,0,.66-.19l.47-.18a.64.64,0,0,1,.27-.08.16.16,0,0,1,.1,0,.24.24,0,0,1,.06.08.53.53,0,0,1,0,.16c0,.06,0,.14,0,.24s0,.12,0,.17,0,.1,0,.14a.42.42,0,0,1,0,.1l-.07.09a.92.92,0,0,1-.25.14,2.63,2.63,0,0,1-.53.19,6,6,0,0,1-.77.17,5.34,5.34,0,0,1-.92.08,4,4,0,0,1-1.49-.25,2.7,2.7,0,0,1-1.08-.72,3.12,3.12,0,0,1-.66-1.19,5.7,5.7,0,0,1-.22-1.68,5.24,5.24,0,0,1,.23-1.64,3.46,3.46,0,0,1,.66-1.23,3,3,0,0,1,1.05-.77,3.35,3.35,0,0,1,1.37-.27,3.45,3.45,0,0,1,1.39.26,2.71,2.71,0,0,1,.94.72,3,3,0,0,1,.54,1.06,4.92,4.92,0,0,1,.17,1.3Zm-1.27-.38a2.44,2.44,0,0,0-.45-1.6,1.65,1.65,0,0,0-1.38-.58,1.81,1.81,0,0,0-.83.18,1.64,1.64,0,0,0-.59.48,2.31,2.31,0,0,0-.38.69,3.2,3.2,0,0,0-.14.83Z"/>
  <path class="cls-6" d="M191,88.48a1.63,1.63,0,0,1,0,.24.84.84,0,0,1,0,.14.12.12,0,0,1,0,.08l-.08,0a.27.27,0,0,1-.13,0l-.2-.08-.27-.07a1.28,1.28,0,0,0-.36,0,1.22,1.22,0,0,0-.49.09.84.84,0,0,0-.32.3,1.32,1.32,0,0,0-.17.52,4.22,4.22,0,0,0-.06.77v.77h1.54l.11,0a.29.29,0,0,1,.07.1.56.56,0,0,1,.06.17,1.57,1.57,0,0,1,0,.25,1,1,0,0,1-.07.4.21.21,0,0,1-.19.13h-1.54v6.18a.2.2,0,0,1,0,.11.2.2,0,0,1-.1.07.83.83,0,0,1-.2,0l-.31,0-.3,0a.83.83,0,0,1-.2,0,.2.2,0,0,1-.1-.07.2.2,0,0,1,0-.11V92.25h-1a.19.19,0,0,1-.18-.13,1,1,0,0,1-.06-.4,1.78,1.78,0,0,1,0-.25.58.58,0,0,1,0-.17.2.2,0,0,1,.07-.1l.11,0h1v-.73a5.28,5.28,0,0,1,.13-1.27,2.22,2.22,0,0,1,.41-.86,1.67,1.67,0,0,1,.7-.5,2.61,2.61,0,0,1,1-.16,2.87,2.87,0,0,1,.52,0,2,2,0,0,1,.4.11.67.67,0,0,1,.18.1.57.57,0,0,1,.08.13.69.69,0,0,1,0,.18A1.85,1.85,0,0,1,191,88.48Z"/>
  <path class="cls-6" d="M198.14,94.83a5.29,5.29,0,0,1-.23,1.58,3.37,3.37,0,0,1-.66,1.26,3,3,0,0,1-1.11.81,3.66,3.66,0,0,1-1.53.3,4,4,0,0,1-1.49-.26,2.66,2.66,0,0,1-1.05-.75,3.27,3.27,0,0,1-.63-1.2,5.64,5.64,0,0,1-.21-1.6,5.36,5.36,0,0,1,.22-1.59,3.33,3.33,0,0,1,.66-1.25,2.9,2.9,0,0,1,1.1-.81,3.68,3.68,0,0,1,1.54-.29,3.81,3.81,0,0,1,1.49.26,2.66,2.66,0,0,1,1,.75,3.44,3.44,0,0,1,.64,1.2A5.57,5.57,0,0,1,198.14,94.83Zm-1.32.08a5.35,5.35,0,0,0-.1-1.08,2.7,2.7,0,0,0-.34-.89,1.76,1.76,0,0,0-.66-.61,2.08,2.08,0,0,0-1-.22,2.24,2.24,0,0,0-1,.2,1.87,1.87,0,0,0-.67.58,2.83,2.83,0,0,0-.39.88,4.33,4.33,0,0,0-.13,1.11,5.37,5.37,0,0,0,.11,1.09,2.44,2.44,0,0,0,.35.89,1.71,1.71,0,0,0,.65.6,2.08,2.08,0,0,0,1,.23,2.1,2.1,0,0,0,1-.21,1.68,1.68,0,0,0,.67-.57,2.39,2.39,0,0,0,.39-.87A5,5,0,0,0,196.82,94.91Z"/>
  <path class="cls-6" d="M204,91.84c0,.12,0,.21,0,.29s0,.14,0,.19a.44.44,0,0,1-.06.1.12.12,0,0,1-.09,0l-.15,0-.2-.07-.25-.07a1.45,1.45,0,0,0-.3,0,1,1,0,0,0-.38.08,1.55,1.55,0,0,0-.39.26,4.15,4.15,0,0,0-.42.47c-.15.2-.31.45-.49.73v4.64a.2.2,0,0,1,0,.11.26.26,0,0,1-.1.07.72.72,0,0,1-.2,0l-.31,0-.31,0a.74.74,0,0,1-.19,0,.2.2,0,0,1-.1-.07.2.2,0,0,1,0-.11V91.38a.36.36,0,0,1,0-.11.29.29,0,0,1,.1-.07.38.38,0,0,1,.17,0h.57a.38.38,0,0,1,.17,0,.35.35,0,0,1,.09.07.2.2,0,0,1,0,.11v1a4.89,4.89,0,0,1,.54-.69,2.5,2.5,0,0,1,.47-.42,1.59,1.59,0,0,1,.44-.21A1.67,1.67,0,0,1,203,91h.23l.26,0,.25.07.16.08a.21.21,0,0,1,.06.08l0,.09a.67.67,0,0,1,0,.16A2.18,2.18,0,0,1,204,91.84Z"/>
  <path class="cls-6" d="M211.17,94.6A.56.56,0,0,1,211,95a.55.55,0,0,1-.35.12h-4.55a4.24,4.24,0,0,0,.12,1.06,2.11,2.11,0,0,0,.39.81,1.68,1.68,0,0,0,.7.52,2.74,2.74,0,0,0,1,.18,4.56,4.56,0,0,0,.88-.08,5.61,5.61,0,0,0,.67-.19l.46-.18a.67.67,0,0,1,.28-.08.13.13,0,0,1,.09,0,.27.27,0,0,1,.07.08.57.57,0,0,1,0,.16,1.44,1.44,0,0,1,0,.24c0,.06,0,.12,0,.17s0,.1,0,.14a.42.42,0,0,1,0,.1l-.07.09a.92.92,0,0,1-.25.14,3.18,3.18,0,0,1-.53.19,6.37,6.37,0,0,1-.77.17,5.43,5.43,0,0,1-.92.08,4.07,4.07,0,0,1-1.5-.25,2.85,2.85,0,0,1-1.08-.72,3,3,0,0,1-.65-1.19,5.69,5.69,0,0,1-.23-1.68A5.55,5.55,0,0,1,205,93.3a3.64,3.64,0,0,1,.67-1.23,2.86,2.86,0,0,1,1-.77,3.4,3.4,0,0,1,1.38-.27,3.36,3.36,0,0,1,1.38.26,2.62,2.62,0,0,1,.94.72,2.73,2.73,0,0,1,.54,1.06,4.54,4.54,0,0,1,.18,1.3Zm-1.28-.38a2.38,2.38,0,0,0-.44-1.6,1.67,1.67,0,0,0-1.39-.58,1.77,1.77,0,0,0-1.42.66,2.29,2.29,0,0,0-.37.69,2.84,2.84,0,0,0-.15.83Z"/>
</svg>