<?xml version="1.0" encoding="utf-8"?>
<!-- Generator: Adobe Illustrator 28.1.0, SVG Export Plug-In . SVG Version: 6.00 Build 0)  -->
<svg version="1.1" id="Layer_1" xmlns="http://www.w3.org/2000/svg" xmlns:xlink="http://www.w3.org/1999/xlink" x="0px" y="0px"
	 viewBox="0 0 215 100.9" style="enable-background:new 0 0 215 100.9;" xml:space="preserve">
<style type="text/css">
	.st0{opacity:0.35;}
	.st1{fill:#5D9632;}
	.st2{fill:#00A551;}
	.st3{fill:#B1BA1E;}
	.st4{fill:#00803E;}
	.st5{fill:#333333;}
</style>
<g class="st0">
	<path class="st1" d="M58.3,22c-0.3,0.1-0.7,0.3-1,0.5l0,0L56,21.4l-1.3,1.1l0.9,1.5c-0.2,0.3-0.4,0.6-0.6,0.9l0,0l-1.6-0.3
		l-0.6,1.6l1.4,0.9c-0.1,0.4-0.1,0.7-0.1,1.1l0,0l-1.5,0.5l0.2,1.7l1.7,0.1c0.1,0.4,0.2,0.7,0.4,1l0,0l-1.1,1.2l1,1.4l1.5-0.7
		c0.3,0.3,0.7,0.6,1.1,0.9l0,0L57,35.8l1.5,0.6l0.8-1.4c0.5,0.1,1.1,0.2,1.6,0.1l0,0l0.6,1.5l1.6-0.3v-1.7l0,0
		c0.3-0.1,0.7-0.3,1-0.5l0,0l1.2,1l1.3-1.1l-0.8-1.5l0,0c0.2-0.3,0.4-0.6,0.6-0.9h0.1l1.6,0.3l0.6-1.6l-1.4-0.9l0,0
		c0.1-0.4,0.1-0.7,0.1-1.1h0.1L69,28l-0.2-1.7l-1.7-0.1L67,26.1c-0.1-0.4-0.3-0.8-0.5-1.1l0,0l1.1-0.9l-1-1.4l-1.4,0.7l0,0
		c-0.3-0.3-0.7-0.6-1.1-0.9v-0.1l0.3-1.6L63,20.2l-0.9,1.4l0,0c-0.5-0.1-1.1-0.2-1.6-0.1v0l-0.6-1.5l-1.6,0.3L58.3,22L58.3,22z
		 M64.3,25.6c1.5,2,1.1,4.8-0.9,6.4c-1.9,1.5-4.7,1.1-6.2-0.8c0,0-0.1-0.1-0.1-0.1c-1.5-2-1.1-4.8,0.9-6.4c1.9-1.5,4.7-1.1,6.2,0.8
		C64.3,25.5,64.3,25.6,64.3,25.6L64.3,25.6z"/>
	<path class="st2" d="M42.7,5.1c-0.5,0.2-0.9,0.4-1.3,0.7l0,0l-1.8-1.5l-1.8,1.6L39,7.9c-0.3,0.4-0.6,0.8-0.9,1.2l0,0l-2.2-0.4
		L35,10.9l2,1.3c-0.1,0.5-0.2,1-0.2,1.5l0,0l-2.2,0.7l0.3,2.4l2.3,0.1c0.1,0.5,0.3,1,0.6,1.5l0,0L36.3,20l1.4,1.9l2.1-1
		c0.5,0.5,1,0.9,1.5,1.2v0l-0.5,2.3l2.2,0.9l1.3-2c0.7,0.2,1.5,0.2,2.2,0.2v0.1l0.8,2.1l2.3-0.5v-2.4l0,0c0.5-0.2,0.9-0.4,1.3-0.7
		l0,0l1.8,1.5l1.8-1.5l-1.1-2.1l0,0c0.3-0.4,0.6-0.8,0.9-1.2h0.1l2.2,0.4l0.8-2.2l-2-1.3l0,0c0.1-0.5,0.1-1,0.2-1.5h0.1l2.2-0.7
		l-0.3-2.3l-2.3-0.1L54.9,11c-0.2-0.5-0.4-1.1-0.7-1.5h0.1l1.5-1.2l-1.4-2l-2,0.9l0,0C52,6.7,51.5,6.3,51,5.9V5.8l0.5-2.3l-2.2-0.9
		l-1.3,2l0,0c-0.7-0.2-1.5-0.2-2.2-0.2V4.4L45,2.3l-2.3,0.5L42.7,5.1L42.7,5.1z M51.2,10.2c2.1,2.9,1.5,6.9-1.3,9
		c-2.7,2.1-6.6,1.6-8.7-1.2c0-0.1-0.1-0.1-0.1-0.2c-2.1-2.9-1.5-6.8,1.3-9c2.7-2.1,6.6-1.5,8.7,1.2C51.1,10.1,51.1,10.1,51.2,10.2z"
		/>
	<path class="st3" d="M71.3,3.1c-0.5,0.2-1,0.4-1.5,0.7l0,0l-2-1.7l-1.9,1.7l1.2,2.3c-0.4,0.4-0.7,0.9-1,1.4l0,0L63.8,7l-0.9,2.4
		l2.2,1.4c-0.1,0.6-0.2,1.1-0.2,1.7l0,0l-2.3,0.8l0.3,2.6l2.5,0.2c0.1,0.5,0.4,1.1,0.6,1.6l0,0l-1.7,1.8l1.5,2.1l2.2-1.1
		c0.5,0.5,1.1,1,1.7,1.4v0l-0.5,2.5l2.4,1l1.4-2.2c0.8,0.2,1.6,0.2,2.5,0.2v0.1l0.9,2.4l2.5-0.5v-2.6l0,0c0.5-0.2,1-0.4,1.5-0.7v0
		l1.9,1.6l1.9-1.7l-1.2-2.3l0,0c0.4-0.4,0.7-0.9,1-1.4h0.1l2.4,0.5l0.9-2.4L85,14.8l0,0c0.1-0.5,0.2-1.1,0.2-1.6h0.1l2.4-0.8
		l-0.3-2.6l-2.6-0.1l-0.1-0.1c-0.2-0.6-0.4-1.2-0.7-1.7L84,7.8l1.7-1.3l-1.6-2.1l-2.2,1l0,0c-0.5-0.5-1-1-1.6-1.3l0.1-0.1l0.5-2.5
		l-2.4-1l-1.4,2.2l0,0c-0.8-0.2-1.6-0.2-2.4-0.2V2.3L73.8,0l-2.5,0.5L71.3,3.1L71.3,3.1z M80.5,8.7c2.3,3.1,1.6,7.4-1.4,9.8
		c-3,2.3-7.2,1.7-9.5-1.3c0,0-0.1-0.1-0.1-0.1c-2.3-3.1-1.6-7.4,1.4-9.8c3-2.3,7.2-1.7,9.5,1.3C80.4,8.5,80.5,8.6,80.5,8.7z"/>
	<path class="st4" d="M36.9,27.6c-0.5,0.2-1.1,0.5-1.6,0.8v0l-2-1.7l-2.1,1.8l1.3,2.4c-0.4,0.5-0.7,1-1,1.5h0l-2.6-0.5l-1,2.6
		l2.3,1.5C30.1,36.4,30,37,30,37.6h0l-2.5,0.8l0.4,2.8l2.7,0.2c0.1,0.6,0.4,1.2,0.7,1.7l0,0L29.3,45l1.6,2.2l2.4-1.2
		c0.6,0.5,1.2,1,1.8,1.5v0l-0.5,2.7l2.5,1l1.5-2.3c0.9,0.2,1.8,0.3,2.6,0.2v0.1l1,2.5l2.7-0.6v-2.8l0,0c0.5-0.2,1.1-0.5,1.6-0.8
		l0,0.1l2,1.7l2.1-1.8l-1.3-2.4l0,0c0.4-0.5,0.7-0.9,1-1.5h0.1l2.6,0.5l1-2.6l-2.4-1.4l0,0c0.1-0.6,0.2-1.2,0.2-1.8h0.1l2.5-0.8
		L54,34.7l-2.7-0.2l-0.2-0.2c-0.2-0.6-0.4-1.2-0.8-1.8l0.1-0.1l1.8-1.4l-1.6-2.2L48.3,30h0c-0.5-0.5-1.1-1-1.8-1.4l0-0.1l0.6-2.7
		l-2.5-1l-1.5,2.3l0,0c-0.9-0.2-1.7-0.3-2.6-0.2v-0.1l-1-2.5l-2.7,0.6L36.9,27.6L36.9,27.6z M46.9,33.4c2.5,3.4,1.8,8.2-1.5,10.8
		c-3.3,2.5-7.9,1.8-10.4-1.4c0,0-0.1-0.1-0.1-0.1c-2.5-3.4-1.8-8.2,1.5-10.8c3.3-2.5,7.9-1.9,10.4,1.4
		C46.8,33.3,46.8,33.3,46.9,33.4L46.9,33.4z"/>
</g>
<path class="st1" d="M13.2,25.9l-3.7-6.6h-7L3.7,15h7.9c0.9,0,1.6-0.7,1.6-1.6c0,0,0,0,0,0V10c0-0.9-0.7-1.6-1.5-1.6c0,0,0,0,0,0
	H4.2v17.5H0V4h11.7c3.1,0,5.7,2.6,5.7,5.7v3.8c0,2.3-1.3,4.3-3.4,5.2l4,7.1H13.2z M17.4,9.9L17.4,9.9z M17.4,13.6L17.4,13.6z"/>
<path class="st1" d="M34.3,12.8v4.3H23.6V20c0,0.9,0.7,1.6,1.6,1.6h9.1v4.3h-9.2c-3.2,0-5.7-2.7-5.7-5.8c0,0,0,0,0,0V9.9
	C19.4,6.7,22,4.1,25.1,4c0,0,0,0,0,0h9.2l-1.3,4.3h-7.8c-0.9,0-1.6,0.7-1.6,1.6c0,0,0,0.1,0,0.1v5l-1.3-2.2L34.3,12.8z"/>
<path class="st4" d="M166.5,50.2c-0.4,2.5-2.3,2-2.6,0.7L160.8,37c-3.7,0-4.6,0-8.2,0c-5.9,0-6.8-0.7-8.3,4.5
	c-0.1,0.6-0.4,2.4-0.5,2.8c-0.9,5.2-1.8,10.4-2.6,15.6c-0.5,3-1,6.5-1.5,9.6h8.4c1.2,0.1,1.6-0.4,1.8-1.5c0.9-4.5,2-9.6,3.1-14.2
	c0.4-2.2,1.3-1.8,1.4-1l3,16.7h15.5c0.9,0,1.1-0.9,1.2-1.7c1.3-7.3,2.6-14.7,3.9-22c0.5-2.9,1-5.8,1.5-8.8h-10.5
	C168.1,41.5,167.3,45.8,166.5,50.2z M211.1,69.6c-2.9-5.6-5.9-11.6-8.6-16.9c4.1-5.2,8.1-10.2,12.5-15.7h-13.6
	c-0.4,0-0.9,0.5-1.2,0.9l-6.1,6.5c0.2-2.8,0.4-5.1,0.6-7.4h-11.9c-1.9,10.2-3.1,16.1-6.2,32.5h12.6c0.5-4,0.9-7.7,1.4-11.6
	c0.1-0.3,0.7-1.4,1.7,1c1.2,2.9,2.4,5.9,3.6,8.8c0.4,1.2,1.7,2,3,1.8L211.1,69.6z"/>
<path class="st4" d="M115.4,37h11.9c-0.5,3.2-1,6.4-1.5,9.5c-1,5.3-1.9,10.7-3,16c-0.3,1.5-0.9,3-1.8,4.3c-1.4,2-2.8,2.8-5.8,2.8h-6
	c0.4-3.8,0.8-7.3,1.3-11.1c-2.1,0-4.1-0.1-6,0.1c-0.4,0-0.9,0.7-1,1.2c-0.8,3.2-1.6,6.5-2.4,9.9H89c1.9-10.9,3.7-21.7,5.6-32.6h12.6
	c-0.4,3.5-0.8,6.9-1.3,10.6c2.2,0,4.1,0.1,6.1-0.1c0.4,0,0.9-0.7,1-1.2C113.8,43.2,114.6,40.2,115.4,37z"/>
<path class="st4" d="M62.1,37c-0.7,0-1.4,0.2-2,0.6c-3.7,2.3-4.2,5.8-3.7,10.1h11.8c-1.4,7.2-2.9,14.7-4.3,21.9H75
	c1.2,0,1.6-0.4,1.8-1.5c1.2-6.2,2.6-12.8,3.8-19c0.2-1.2,0.7-1.4,1.7-1.4c2.7,0.1,5.5,0,8.3,0C91.3,44,92,40.5,92.7,37L62.1,37z"/>
<path class="st1" d="M135.4,78.6c0,3.6-3,6.5-6.6,6.5c-3.6,0-6.5-3-6.5-6.6c0-3.6,3-6.5,6.6-6.5C132.5,72,135.4,75,135.4,78.6z"/>
<path class="st1" d="M136.5,30.5c-5.5,0-4.5-0.8-7.1,10.3l-0.5,2.3c-1,5-1.9,10-2.9,15c-0.7,3.8-1.5,7.5-2.3,11.4h9.5
	c0.8,0,3.8-1.2,4.8-7.1c0.7-4.3,4.2-25.4,5.3-31.9L136.5,30.5z"/>
<path class="st5" d="M68.7,96.5c0,0.3-0.1,0.7-0.2,1c-0.1,0.3-0.3,0.5-0.6,0.7c-0.3,0.2-0.5,0.3-0.9,0.4c-0.6,0.2-1.2,0.2-1.8,0.1
	c-0.2,0-0.4-0.1-0.6-0.2c-0.2,0-0.3-0.1-0.4-0.2c-0.1,0-0.2-0.1-0.3-0.2c-0.1-0.1-0.1-0.1-0.1-0.2c0-0.1,0-0.3,0-0.4
	c0-0.1,0-0.2,0-0.2c0-0.1,0-0.1,0-0.2c0-0.1,0.1-0.1,0.1-0.1c0,0,0.1,0,0.1,0c0.1,0,0.2,0,0.2,0.1l0.4,0.2c0.2,0.1,0.4,0.2,0.6,0.2
	c0.2,0.1,0.5,0.1,0.8,0.1c0.2,0,0.4,0,0.6-0.1c0.2,0,0.3-0.1,0.4-0.2c0.1-0.1,0.2-0.2,0.3-0.3c0.1-0.2,0.1-0.3,0.1-0.5
	c0-0.2,0-0.4-0.2-0.5c-0.1-0.1-0.2-0.3-0.4-0.4c-0.2-0.1-0.4-0.2-0.6-0.3l-0.6-0.2c-0.2-0.1-0.4-0.2-0.6-0.3
	c-0.2-0.1-0.4-0.2-0.6-0.4c-0.2-0.2-0.3-0.4-0.4-0.6c-0.1-0.3-0.2-0.5-0.2-0.8c0-0.3,0-0.5,0.2-0.8c0.1-0.3,0.3-0.5,0.5-0.7
	c0.2-0.2,0.5-0.4,0.8-0.5c0.3-0.1,0.7-0.2,1.1-0.2c0.2,0,0.4,0,0.6,0l0.5,0.1c0.1,0,0.3,0.1,0.4,0.2l0.2,0.1c0,0,0.1,0.1,0.1,0.1
	c0,0,0,0.1,0,0.1c0,0,0,0.1,0,0.1c0,0.1,0,0.1,0,0.2c0,0.1,0,0.2,0,0.2c0,0.1,0,0.1,0,0.2c0,0,0,0.1-0.1,0.1c0,0-0.1,0-0.1,0
	c-0.1,0-0.1,0-0.2-0.1l-0.3-0.2c-0.2-0.1-0.3-0.1-0.5-0.2c-0.2-0.1-0.4-0.1-0.6-0.1c-0.2,0-0.4,0-0.6,0.1c-0.1,0-0.3,0.1-0.4,0.2
	c-0.1,0.1-0.2,0.2-0.2,0.3c-0.1,0.1-0.1,0.3-0.1,0.4c0,0.2,0,0.4,0.2,0.5c0.1,0.1,0.2,0.3,0.4,0.4c0.2,0.1,0.4,0.2,0.6,0.3l0.6,0.3
	c0.2,0.1,0.4,0.2,0.7,0.3c0.2,0.1,0.4,0.2,0.6,0.4c0.2,0.2,0.3,0.4,0.4,0.6C68.7,95.9,68.8,96.2,68.7,96.5z"/>
<path class="st5" d="M77,94.8c0,0.5-0.1,1.1-0.2,1.6c-0.1,0.5-0.4,0.9-0.7,1.3c-0.3,0.3-0.7,0.6-1.1,0.8c-0.5,0.2-1,0.3-1.5,0.3
	c-0.5,0-1-0.1-1.5-0.3c-0.4-0.2-0.8-0.4-1.1-0.8c-0.3-0.4-0.5-0.8-0.6-1.2c-0.1-0.5-0.2-1.1-0.2-1.6c0-0.5,0.1-1.1,0.2-1.6
	c0.1-0.5,0.4-0.9,0.7-1.2c0.3-0.4,0.7-0.6,1.1-0.8c1-0.4,2-0.4,3,0c0.4,0.2,0.8,0.4,1.1,0.8c0.3,0.4,0.5,0.8,0.6,1.2
	C76.9,93.8,77,94.3,77,94.8z M75.7,94.9c0-0.4,0-0.7-0.1-1.1c-0.1-0.3-0.2-0.6-0.3-0.9c-0.2-0.3-0.4-0.5-0.7-0.6
	c-0.3-0.2-0.7-0.2-1-0.2c-0.3,0-0.7,0.1-1,0.2c-0.3,0.1-0.5,0.3-0.7,0.6c-0.2,0.3-0.3,0.6-0.4,0.9c-0.1,0.4-0.1,0.7-0.1,1.1
	c0,0.4,0,0.7,0.1,1.1c0.1,0.3,0.2,0.6,0.3,0.9c0.2,0.3,0.4,0.5,0.7,0.6c0.6,0.3,1.4,0.3,2,0c0.3-0.1,0.5-0.3,0.7-0.6
	c0.2-0.3,0.3-0.6,0.4-0.9C75.6,95.7,75.7,95.3,75.7,94.9L75.7,94.9z"/>
<path class="st5" d="M80.1,98.4c0,0,0,0.1,0,0.1c0,0-0.1,0.1-0.1,0.1c-0.1,0-0.1,0-0.2,0h-0.3h-0.3c-0.1,0-0.1,0-0.2,0
	c0,0-0.1,0-0.1-0.1c0,0,0-0.1,0-0.1V88c0,0,0-0.1,0-0.1c0,0,0.1-0.1,0.1-0.1c0.1,0,0.1,0,0.2,0h0.3h0.3c0.1,0,0.1,0,0.2,0
	c0,0,0.1,0,0.1,0.1c0,0,0,0.1,0,0.1V98.4z"/>
<path class="st5" d="M88.4,98.4c0,0,0,0.1,0,0.1c0,0,0,0-0.1,0.1h-0.2h-0.3h-0.3c-0.1,0-0.1,0-0.2,0c0,0-0.1,0-0.1-0.1
	c0,0,0-0.1,0-0.1v-0.9c-0.3,0.4-0.7,0.7-1.2,1c-0.4,0.2-0.8,0.3-1.2,0.3c-0.4,0-0.8-0.1-1.2-0.2c-0.3-0.2-0.6-0.4-0.8-0.7
	c-0.2-0.3-0.3-0.6-0.4-0.9c-0.1-0.4-0.1-0.9-0.1-1.3v-4.3c0,0,0-0.1,0-0.1c0,0,0.1-0.1,0.1-0.1c0.1,0,0.1,0,0.2,0h0.6
	c0.1,0,0.1,0,0.2,0l0.1,0.1c0,0,0,0.1,0,0.1v4.1c0,0.3,0,0.7,0.1,1c0,0.2,0.1,0.4,0.3,0.6c0.1,0.2,0.3,0.3,0.4,0.4
	c0.2,0.1,0.4,0.2,0.7,0.2c0.3,0,0.7-0.1,0.9-0.3c0.4-0.3,0.7-0.6,1-1v-5c0,0,0-0.1,0-0.1c0,0,0.1-0.1,0.1-0.1c0.1,0,0.1,0,0.2,0H88
	c0.1,0,0.1,0,0.2,0c0,0,0.1,0,0.1,0.1c0,0,0,0.1,0,0.1L88.4,98.4z"/>
<path class="st5" d="M96.7,91.2c0.1,0,0.2,0,0.3,0.1c0.1,0.1,0.1,0.2,0.1,0.3v6.8c0,0,0,0.1,0,0.1c0,0-0.1,0.1-0.1,0.1
	c-0.1,0-0.1,0-0.2,0h-0.3h-0.3c-0.1,0-0.1,0-0.2,0c0,0-0.1,0-0.1-0.1c0,0,0-0.1,0-0.1v-6.2h-3.6v3.9c0,0.4,0,0.8,0.2,1.1
	c0.2,0.3,0.4,0.4,0.8,0.4c0.1,0,0.2,0,0.3,0l0.2-0.1l0.2-0.1h0.1c0,0,0.1,0,0.1,0c0,0,0,0,0,0.1c0,0.1,0.1,0.3,0.1,0.4
	c0,0.1,0,0.2,0,0.4c0,0.1,0,0.1-0.1,0.2c-0.1,0-0.1,0.1-0.2,0.1c-0.1,0-0.2,0.1-0.3,0.1l-0.3,0.1H93c-0.3,0-0.6,0-0.9-0.1
	c-0.2-0.1-0.5-0.2-0.6-0.4c-0.2-0.2-0.3-0.5-0.4-0.8C91,97.1,91,96.7,91,96.4v-4.1h-1c-0.1,0-0.2-0.1-0.2-0.1
	c-0.1-0.1-0.1-0.3-0.1-0.4c0-0.1,0-0.2,0-0.2c0-0.1,0-0.1,0-0.2c0,0,0-0.1,0.1-0.1h0.1h1v-1.7c0,0,0-0.1,0-0.1c0,0,0.1-0.1,0.1-0.1
	c0.1,0,0.1,0,0.2,0h0.6c0.1,0,0.1,0,0.2,0c0,0,0.1,0.1,0.1,0.1c0,0,0,0.1,0,0.1v1.7H96.7z M97.2,89c0,0.2,0,0.4-0.2,0.6
	c-0.2,0.1-0.4,0.2-0.6,0.2c-0.2,0-0.4,0-0.6-0.2c-0.1-0.2-0.2-0.4-0.2-0.6c-0.1-0.3,0.1-0.7,0.5-0.8c0.1,0,0.2,0,0.3,0
	c0.3-0.1,0.7,0.1,0.8,0.4C97.3,88.8,97.3,88.9,97.2,89z"/>
<path class="st5" d="M105.9,94.8c0,0.5-0.1,1.1-0.2,1.6c-0.1,0.5-0.4,0.9-0.7,1.3c-0.3,0.4-0.7,0.6-1.1,0.8c-0.5,0.2-1,0.3-1.5,0.3
	c-0.5,0-1-0.1-1.5-0.3c-0.4-0.2-0.8-0.4-1.1-0.8c-0.3-0.4-0.5-0.8-0.6-1.2C99,96.1,99,95.5,99,95c0-0.5,0.1-1.1,0.2-1.6
	c0.1-0.5,0.4-0.9,0.7-1.2c0.3-0.4,0.7-0.6,1.1-0.8c1-0.4,2-0.4,3,0c0.4,0.1,0.7,0.4,1,0.6c0.3,0.4,0.5,0.8,0.6,1.2
	C105.8,93.7,105.9,94.3,105.9,94.8z M104.6,94.9c0-0.4,0-0.7-0.1-1.1c-0.1-0.3-0.2-0.6-0.3-0.9c-0.2-0.3-0.4-0.5-0.7-0.6
	c-0.3-0.2-0.7-0.2-1-0.2c-0.3,0-0.7,0.1-1,0.2c-0.3,0.1-0.5,0.3-0.7,0.6c-0.2,0.3-0.3,0.6-0.4,0.9c-0.1,0.4-0.1,0.7-0.1,1.1
	c0,0.4,0,0.7,0.1,1.1c0.1,0.3,0.2,0.6,0.3,0.9c0.2,0.3,0.4,0.5,0.7,0.6c0.3,0.2,0.7,0.2,1,0.2c0.3,0,0.7-0.1,1-0.2
	c0.3-0.1,0.5-0.3,0.7-0.6c0.2-0.3,0.3-0.6,0.4-0.9C104.5,95.7,104.6,95.3,104.6,94.9z"/>
<path class="st5" d="M113.7,98.4c0,0,0,0.1,0,0.1c0,0-0.1,0.1-0.1,0.1c-0.1,0-0.1,0-0.2,0h-0.3h-0.3c-0.1,0-0.1,0-0.2,0
	c0,0-0.1,0-0.1-0.1c0,0,0-0.1,0-0.1v-4.1c0-0.3,0-0.7-0.1-1c-0.1-0.2-0.1-0.4-0.3-0.6c-0.1-0.2-0.3-0.3-0.5-0.4
	c-0.2-0.1-0.4-0.1-0.7-0.1c-0.3,0-0.7,0.1-0.9,0.3c-0.4,0.3-0.7,0.6-1,1v4.9c0,0,0,0.1,0,0.1c0,0-0.1,0.1-0.1,0.1
	c-0.1,0-0.1,0-0.2,0h-0.3h-0.3c-0.1,0-0.1,0-0.2,0c-0.1,0-0.1-0.1-0.1-0.2c0,0,0,0,0,0v-7c0,0,0-0.1,0-0.1c0,0,0.1-0.1,0.1-0.1
	c0.1,0,0.1,0,0.2,0h0.6c0.1,0,0.1,0,0.2,0c0,0,0.1,0,0.1,0.1c0,0,0,0.1,0,0.1v0.9c0.3-0.4,0.7-0.7,1.2-1c0.4-0.2,0.8-0.3,1.2-0.3
	c0.4,0,0.8,0.1,1.2,0.2c0.3,0.1,0.6,0.4,0.8,0.6c0.2,0.3,0.3,0.6,0.4,0.9c0.1,0.4,0.1,0.9,0.1,1.3L113.7,98.4z"/>
<path class="st5" d="M120.3,96.5c0,0.3-0.1,0.7-0.2,1c-0.1,0.3-0.3,0.5-0.6,0.7c-0.3,0.2-0.5,0.3-0.9,0.4c-0.6,0.2-1.2,0.2-1.8,0.1
	c-0.2,0-0.4-0.1-0.6-0.2c-0.2,0-0.3-0.1-0.4-0.2c-0.1,0-0.2-0.1-0.3-0.2c-0.1-0.1-0.1-0.1-0.1-0.2c0-0.1,0-0.3,0-0.4
	c0-0.1,0-0.2,0-0.2c0-0.1,0-0.1,0-0.2c0,0,0-0.1,0.1-0.1c0,0,0.1,0,0.1,0c0.1,0,0.2,0,0.2,0.1l0.4,0.2c0.2,0.1,0.4,0.2,0.6,0.2
	c0.2,0.1,0.5,0.1,0.8,0.1c0.2,0,0.4,0,0.6-0.1c0.2,0,0.3-0.1,0.4-0.2c0.1-0.1,0.2-0.2,0.3-0.3c0.1-0.2,0.1-0.3,0.1-0.5
	c0-0.2,0-0.4-0.2-0.5c-0.1-0.1-0.2-0.3-0.4-0.4c-0.2-0.1-0.4-0.2-0.6-0.3l-0.6-0.2c-0.2-0.1-0.4-0.2-0.6-0.3
	c-0.2-0.1-0.4-0.2-0.6-0.4c-0.2-0.2-0.3-0.4-0.4-0.6c-0.1-0.3-0.2-0.5-0.2-0.8c0-0.3,0-0.5,0.2-0.8c0.1-0.3,0.3-0.5,0.5-0.7
	c0.2-0.2,0.5-0.4,0.8-0.5c0.4-0.1,0.7-0.2,1.1-0.2c0.2,0,0.4,0,0.6,0l0.5,0.1c0.1,0,0.3,0.1,0.4,0.2l0.2,0.1c0,0,0.1,0.1,0.1,0.1
	c0,0,0,0.1,0,0.1c0,0,0,0.1,0,0.1c0,0.1,0,0.1,0,0.2c0,0.1,0,0.2,0,0.2c0,0.1,0,0.1,0,0.2c0,0,0,0.1-0.1,0.1c0,0-0.1,0-0.1,0
	c-0.1,0-0.1,0-0.2-0.1l-0.3-0.2c-0.2-0.1-0.3-0.1-0.5-0.2c-0.2-0.1-0.4-0.1-0.6-0.1c-0.2,0-0.4,0-0.6,0.1c-0.1,0-0.3,0.1-0.4,0.2
	c-0.1,0.1-0.2,0.2-0.2,0.3c-0.1,0.1-0.1,0.3-0.1,0.4c0,0.2,0,0.4,0.2,0.5c0.1,0.1,0.2,0.3,0.4,0.4c0.2,0.1,0.4,0.2,0.6,0.3l0.6,0.3
	c0.2,0.1,0.4,0.2,0.7,0.3c0.2,0.1,0.4,0.2,0.6,0.4c0.2,0.2,0.3,0.4,0.4,0.6C120.3,96,120.3,96.2,120.3,96.5z"/>
<path class="st5" d="M123.8,97.5c0,0.2,0,0.3,0,0.4c0,0.1,0,0.3-0.1,0.4c0,0.1-0.1,0.2-0.1,0.4c-0.1,0.1-0.1,0.3-0.2,0.4l-1,1.6
	l-0.1,0.1l-0.1,0.1H122h-0.5c0,0-0.1,0-0.1,0c0,0,0,0,0-0.1c0,0,0-0.1,0-0.1l1-2.2v-1c0-0.1,0-0.2,0-0.3c0-0.1,0.1-0.1,0.1-0.2
	c0.1,0,0.1-0.1,0.2-0.1c0.1,0,0.2,0,0.3,0c0.1,0,0.2,0,0.3,0c0.1,0,0.2,0,0.2,0.1c0.1,0,0.1,0.1,0.1,0.2
	C123.8,97.3,123.8,97.4,123.8,97.5z"/>
<path class="st5" d="M137.3,98.1c0,0.1,0,0.2-0.1,0.3c0,0.1-0.1,0.1-0.1,0.2c-0.1,0-0.1,0.1-0.2,0.1c-0.1,0-0.1,0-0.2,0h-0.4
	c-0.1,0-0.2,0-0.4,0c-0.1,0-0.2-0.1-0.3-0.2c-0.1-0.1-0.2-0.2-0.3-0.3c-0.1-0.2-0.2-0.3-0.3-0.5l-3-5.8c-0.2-0.3-0.3-0.6-0.5-0.9
	l-0.4-1l0,0c0,0.4,0,0.8,0,1.2s0,0.8,0,1.2v6.1c0,0,0,0.1,0,0.1c0,0-0.1,0.1-0.1,0.1h-0.2h-0.3h-0.3h-0.2c0,0-0.1,0-0.1-0.1
	c0,0,0-0.1,0-0.1v-9.3c0-0.2,0-0.3,0.2-0.4c0.1-0.1,0.2-0.1,0.4-0.1h0.6c0.1,0,0.3,0,0.4,0c0.1,0,0.2,0.1,0.3,0.1
	c0.1,0.1,0.2,0.2,0.2,0.2c0.1,0.1,0.2,0.3,0.2,0.4l2.3,4.4c0.1,0.3,0.3,0.5,0.4,0.8l0.4,0.8l0.4,0.7l0.4,0.7l0,0c0-0.4,0-0.8,0-1.3
	s0-0.9,0-1.3v-5.5c0,0,0-0.1,0-0.1c0,0,0.1-0.1,0.1-0.1c0.1,0,0.1,0,0.2,0h0.6c0.1,0,0.1,0,0.2,0c0,0,0.1,0.1,0.1,0.1
	c0,0,0,0.1,0,0.1L137.3,98.1z"/>
<path class="st5" d="M145.7,94.6c0,0.2,0,0.3-0.1,0.4c-0.1,0.1-0.2,0.1-0.3,0.1h-4.6c0,0.4,0,0.7,0.1,1.1c0.1,0.3,0.2,0.6,0.4,0.8
	c0.2,0.2,0.4,0.4,0.7,0.5c0.3,0.1,0.7,0.2,1.1,0.2c0.3,0,0.6,0,0.9-0.1c0.2,0,0.4-0.1,0.7-0.2l0.5-0.2c0.1,0,0.2-0.1,0.3-0.1
	c0,0,0.1,0,0.1,0c0,0,0,0,0.1,0.1c0,0.1,0,0.1,0,0.2c0,0.1,0,0.2,0,0.2c0,0.1,0,0.1,0,0.2c0,0,0,0.1,0,0.1c0,0,0,0.1,0,0.1
	c0,0,0,0.1-0.1,0.1c-0.1,0.1-0.2,0.1-0.2,0.1c-0.2,0.1-0.4,0.1-0.5,0.2c-0.3,0.1-0.5,0.1-0.8,0.2c-0.3,0.1-0.6,0.1-0.9,0.1
	c-0.5,0-1-0.1-1.5-0.2c-0.4-0.1-0.8-0.4-1.1-0.7c-0.3-0.3-0.5-0.7-0.7-1.2c-0.2-0.5-0.2-1.1-0.2-1.7c0-0.6,0.1-1.1,0.2-1.6
	c0.1-0.5,0.4-0.9,0.7-1.2c0.3-0.3,0.6-0.6,1.1-0.8c0.9-0.4,1.9-0.4,2.8,0c0.4,0.2,0.7,0.4,1,0.7c0.2,0.3,0.4,0.7,0.5,1.1
	c0.1,0.4,0.2,0.9,0.2,1.3L145.7,94.6z M144.4,94.2c0-0.6-0.1-1.1-0.4-1.6c-0.3-0.4-0.9-0.6-1.4-0.6c-0.3,0-0.6,0.1-0.8,0.2
	c-0.2,0.1-0.4,0.3-0.6,0.5c-0.2,0.2-0.3,0.4-0.4,0.7c-0.1,0.3-0.1,0.5-0.1,0.8L144.4,94.2z"/>
<path class="st5" d="M153.2,91.4L153.2,91.4c0,0.1,0,0.1,0,0.2s0,0,0,0.1v0.1l-2.4,6.7c0,0.1,0,0.1-0.1,0.1c0,0-0.1,0.1-0.1,0.1
	c-0.1,0-0.2,0-0.3,0h-0.4h-0.4c-0.1,0-0.2,0-0.2,0c-0.1,0-0.1,0-0.1-0.1c0,0-0.1-0.1-0.1-0.1l-2.4-6.7c0-0.1,0-0.1,0-0.2
	c0,0,0-0.1,0-0.1v-0.1c0,0,0-0.1,0-0.1c0,0,0.1-0.1,0.1-0.1c0.1,0,0.1,0,0.2,0h0.7h0.2c0,0,0.1,0,0.1,0.1c0,0,0.1,0.1,0.1,0.1
	l1.9,5.8v0.1v-0.1l1.9-5.8c0,0,0-0.1,0.1-0.1c0,0,0.1-0.1,0.1-0.1c0.1,0,0.1,0,0.2,0h0.6c0.1,0,0.1,0,0.2,0c0,0,0.1,0,0.1,0.1
	C153.2,91.3,153.2,91.3,153.2,91.4z"/>
<path class="st5" d="M160.4,94.6c0,0.2,0,0.3-0.1,0.4c-0.1,0.1-0.2,0.1-0.3,0.1h-4.6c0,0.4,0,0.7,0.1,1.1c0.1,0.3,0.2,0.6,0.4,0.8
	c0.2,0.2,0.4,0.4,0.7,0.5c0.3,0.1,0.7,0.2,1.1,0.2c0.3,0,0.6,0,0.9-0.1c0.2,0,0.4-0.1,0.7-0.2l0.5-0.2c0.1,0,0.2-0.1,0.3-0.1
	c0,0,0.1,0,0.1,0c0,0,0,0,0.1,0.1c0,0.1,0,0.1,0,0.2c0,0.1,0,0.1,0,0.2c0,0.1,0,0.1,0,0.2c0,0,0,0.1,0,0.1c0,0,0,0.1,0,0.1l-0.1,0.1
	c-0.1,0.1-0.2,0.1-0.2,0.1c-0.2,0.1-0.3,0.1-0.5,0.2c-0.3,0.1-0.5,0.1-0.8,0.2c-0.3,0.1-0.6,0.1-0.9,0.1c-0.5,0-1-0.1-1.5-0.2
	c-0.4-0.1-0.8-0.4-1.1-0.7c-0.3-0.3-0.5-0.7-0.7-1.2c-0.2-0.5-0.2-1.1-0.2-1.7c0-0.6,0.1-1.1,0.2-1.6c0.1-0.4,0.4-0.9,0.7-1.2
	c0.3-0.3,0.6-0.6,1.1-0.8c0.4-0.2,0.9-0.3,1.4-0.3c0.5,0,0.9,0.1,1.4,0.3c0.4,0.2,0.7,0.4,0.9,0.7c0.2,0.3,0.4,0.7,0.5,1.1
	c0.1,0.4,0.2,0.9,0.2,1.3L160.4,94.6z M159.1,94.2c0-0.6-0.1-1.1-0.4-1.6c-0.3-0.4-0.9-0.6-1.4-0.6c-0.3,0-0.6,0.1-0.8,0.2
	c-0.2,0.1-0.4,0.3-0.6,0.5c-0.2,0.2-0.3,0.4-0.4,0.7c-0.1,0.3-0.1,0.5-0.1,0.8L159.1,94.2z"/>
<path class="st5" d="M166.3,91.8c0,0.1,0,0.2,0,0.3c0,0.1,0,0.1,0,0.2c0,0,0,0.1-0.1,0.1c0,0-0.1,0-0.1,0H166l-0.2-0.1l-0.2-0.1
	c-0.1,0-0.2,0-0.3,0c-0.1,0-0.3,0-0.4,0.1c-0.1,0.1-0.3,0.1-0.4,0.3c-0.2,0.1-0.3,0.3-0.4,0.5c-0.1,0.2-0.3,0.4-0.5,0.7v4.6
	c0,0,0,0.1,0,0.1c0,0-0.1,0.1-0.1,0.1c-0.1,0-0.1,0-0.2,0H163h-0.3c-0.1,0-0.1,0-0.2,0c-0.1,0-0.1-0.1-0.1-0.2c0,0,0,0,0,0v-7.1
	c0,0,0-0.1,0-0.1c0,0,0.1-0.1,0.1-0.1c0.1,0,0.1,0,0.2,0h0.6c0.1,0,0.1,0,0.2,0c0,0,0.1,0,0.1,0.1c0,0,0,0.1,0,0.1v1
	c0.2-0.2,0.3-0.5,0.5-0.7c0.1-0.2,0.3-0.3,0.5-0.4c0.1-0.1,0.3-0.2,0.4-0.2c0.1,0,0.3-0.1,0.4-0.1h0.2h0.3l0.2,0.1l0.1,0.1
	c0,0,0.1,0,0.1,0.1c0,0,0,0.1,0,0.1c0,0.1,0,0.1,0,0.2L166.3,91.8z"/>
<path class="st5" d="M177.7,94.8c0,0.6-0.1,1.1-0.2,1.7c-0.1,0.4-0.3,0.9-0.6,1.2c-0.2,0.3-0.6,0.6-0.9,0.8
	c-0.4,0.2-0.8,0.3-1.3,0.3c-0.2,0-0.4,0-0.6-0.1c-0.2,0-0.4-0.1-0.6-0.2c-0.2-0.1-0.4-0.2-0.5-0.4c-0.2-0.2-0.4-0.4-0.6-0.6v0.9
	c0,0,0,0.1,0,0.1c0,0-0.1,0.1-0.1,0.1h-0.2h-0.3h-0.3h-0.2c0,0-0.1,0-0.1-0.1c0,0,0-0.1,0-0.1V88c0,0,0-0.1,0-0.1
	c0,0,0.1-0.1,0.1-0.1c0.1,0,0.1,0,0.2,0h0.3h0.3c0.1,0,0.1,0,0.2,0c0,0,0.1,0,0.1,0.1c0,0,0,0.1,0,0.1v4.2c0.2-0.2,0.4-0.4,0.6-0.5
	c0.2-0.1,0.4-0.3,0.6-0.4c0.2-0.1,0.4-0.2,0.6-0.2c0.2,0,0.4-0.1,0.6-0.1c0.9,0,1.7,0.4,2.1,1.1c0.2,0.4,0.4,0.8,0.5,1.2
	C177.6,93.8,177.7,94.3,177.7,94.8z M176.4,95c0-0.3,0-0.7-0.1-1c0-0.3-0.1-0.7-0.3-1c-0.1-0.2-0.3-0.5-0.5-0.6
	c-0.2-0.2-0.5-0.3-0.8-0.2c-0.2,0-0.3,0-0.5,0.1c-0.2,0.1-0.3,0.1-0.5,0.2c-0.2,0.1-0.3,0.3-0.5,0.4c-0.2,0.2-0.4,0.4-0.6,0.7v2.8
	c0.3,0.4,0.6,0.7,1,1c0.3,0.2,0.6,0.3,1,0.3c0.3,0,0.6-0.1,0.8-0.2c0.2-0.2,0.4-0.4,0.6-0.6c0.1-0.3,0.3-0.6,0.3-0.9
	C176.3,95.6,176.4,95.3,176.4,95L176.4,95z"/>
<path class="st5" d="M185.5,94.6c0,0.2,0,0.3-0.1,0.4c-0.1,0.1-0.2,0.1-0.3,0.1h-4.6c0,0.4,0,0.7,0.1,1.1c0.1,0.3,0.2,0.6,0.4,0.8
	c0.2,0.2,0.4,0.4,0.7,0.5c0.3,0.1,0.7,0.2,1.1,0.2c0.3,0,0.6,0,0.9-0.1c0.2,0,0.4-0.1,0.7-0.2l0.5-0.2c0.1,0,0.2-0.1,0.3-0.1
	c0,0,0.1,0,0.1,0c0,0,0,0,0.1,0.1c0,0.1,0,0.1,0,0.2c0,0.1,0,0.1,0,0.2s0,0.1,0,0.2s0,0.1,0,0.1c0,0,0,0.1,0,0.1l-0.1,0.1
	c-0.1,0.1-0.2,0.1-0.2,0.1c-0.2,0.1-0.3,0.1-0.5,0.2c-0.3,0.1-0.5,0.1-0.8,0.2c-0.3,0.1-0.6,0.1-0.9,0.1c-0.5,0-1-0.1-1.5-0.2
	c-0.4-0.1-0.8-0.4-1.1-0.7c-0.3-0.3-0.5-0.7-0.7-1.2c-0.2-0.5-0.2-1.1-0.2-1.7c0-0.6,0.1-1.1,0.2-1.6c0.1-0.5,0.4-0.9,0.7-1.2
	c0.3-0.3,0.6-0.6,1.1-0.8c0.4-0.2,0.9-0.3,1.4-0.3c0.5,0,0.9,0.1,1.4,0.3c0.4,0.2,0.7,0.4,0.9,0.7c0.2,0.3,0.4,0.7,0.5,1.1
	c0.1,0.4,0.2,0.9,0.2,1.3L185.5,94.6z M184.2,94.2c0-0.6-0.1-1.1-0.4-1.6c-0.3-0.4-0.9-0.6-1.4-0.6c-0.3,0-0.6,0.1-0.8,0.2
	c-0.2,0.1-0.4,0.3-0.6,0.5c-0.2,0.2-0.3,0.4-0.4,0.7c-0.1,0.3-0.1,0.5-0.1,0.8L184.2,94.2z"/>
<path class="st5" d="M191,88.5c0,0.1,0,0.2,0,0.2c0,0,0,0.1,0,0.1c0,0,0,0.1,0,0.1h-0.1c0,0-0.1,0-0.1,0l-0.2-0.1l-0.3-0.1
	c-0.1,0-0.2,0-0.4,0c-0.2,0-0.3,0-0.5,0.1c-0.1,0.1-0.2,0.2-0.3,0.3c-0.1,0.2-0.2,0.3-0.2,0.5c0,0.3-0.1,0.5-0.1,0.8v0.8h1.5h0.1
	c0,0,0.1,0.1,0.1,0.1c0,0.1,0,0.1,0.1,0.2c0,0.1,0,0.2,0,0.2c0,0.1,0,0.3-0.1,0.4c0,0.1-0.1,0.1-0.2,0.1h-1.5v6.2c0,0,0,0.1,0,0.1
	c0,0-0.1,0.1-0.1,0.1c-0.1,0-0.1,0-0.2,0h-0.3H188c-0.1,0-0.1,0-0.2,0c0,0-0.1,0-0.1-0.1c0,0,0-0.1,0-0.1v-6.2h-1
	c-0.1,0-0.2-0.1-0.2-0.1c0-0.1-0.1-0.3-0.1-0.4c0-0.1,0-0.2,0-0.2c0-0.1,0-0.1,0-0.2c0,0,0-0.1,0.1-0.1h0.1h1v-0.7
	c0-0.4,0-0.9,0.1-1.3c0.1-0.3,0.2-0.6,0.4-0.9c0.2-0.2,0.4-0.4,0.7-0.5c0.3-0.1,0.7-0.2,1-0.2c0.2,0,0.3,0,0.5,0
	c0.1,0,0.3,0.1,0.4,0.1c0.1,0,0.1,0.1,0.2,0.1c0,0,0.1,0.1,0.1,0.1c0,0.1,0,0.1,0,0.2C191,88.3,191,88.4,191,88.5z"/>
<path class="st5" d="M198.1,94.8c0,0.5-0.1,1.1-0.2,1.6c-0.1,0.5-0.4,0.9-0.7,1.3c-0.3,0.4-0.7,0.6-1.1,0.8c-0.5,0.2-1,0.3-1.5,0.3
	c-0.5,0-1-0.1-1.5-0.3c-0.4-0.2-0.8-0.4-1.1-0.8c-0.3-0.4-0.5-0.8-0.6-1.2c-0.1-0.5-0.2-1.1-0.2-1.6c0-0.5,0.1-1.1,0.2-1.6
	c0.1-0.5,0.4-0.9,0.7-1.2c0.3-0.4,0.7-0.6,1.1-0.8c0.5-0.2,1-0.3,1.5-0.3c0.5,0,1,0.1,1.5,0.3c0.4,0.2,0.7,0.4,1,0.8
	c0.3,0.4,0.5,0.8,0.6,1.2C198,93.8,198.1,94.3,198.1,94.8z M196.8,94.9c0-0.4,0-0.7-0.1-1.1c-0.1-0.3-0.2-0.6-0.3-0.9
	c-0.2-0.3-0.4-0.5-0.7-0.6c-0.3-0.2-0.7-0.2-1-0.2c-0.3,0-0.7,0.1-1,0.2c-0.3,0.1-0.5,0.3-0.7,0.6c-0.2,0.3-0.3,0.6-0.4,0.9
	c-0.1,0.4-0.1,0.7-0.1,1.1c0,0.4,0,0.7,0.1,1.1c0.1,0.3,0.2,0.6,0.4,0.9c0.2,0.3,0.4,0.5,0.6,0.6c0.3,0.2,0.7,0.2,1,0.2
	c0.3,0,0.7-0.1,1-0.2c0.3-0.1,0.5-0.3,0.7-0.6c0.2-0.3,0.3-0.6,0.4-0.9C196.8,95.7,196.8,95.3,196.8,94.9L196.8,94.9z"/>
<path class="st5" d="M204,91.8c0,0.1,0,0.2,0,0.3s0,0.1,0,0.2c0,0,0,0.1-0.1,0.1c0,0-0.1,0-0.1,0h-0.1l-0.2-0.1l-0.2-0.1
	c-0.1,0-0.2,0-0.3,0c-0.1,0-0.3,0-0.4,0.1c-0.1,0.1-0.3,0.2-0.4,0.3c-0.2,0.1-0.3,0.3-0.4,0.5c-0.1,0.2-0.3,0.4-0.5,0.7v4.6
	c0,0,0,0.1,0,0.1c0,0-0.1,0.1-0.1,0.1c-0.1,0-0.1,0-0.2,0h-0.3h-0.3c-0.1,0-0.1,0-0.2,0c0,0-0.1,0-0.1-0.1c0,0,0-0.1,0-0.1v-7.1
	c0,0,0-0.1,0-0.1c0,0,0.1-0.1,0.1-0.1c0.1,0,0.1,0,0.2,0h0.6c0.1,0,0.1,0,0.2,0c0,0,0.1,0,0.1,0.1c0,0,0,0.1,0,0.1v1
	c0.2-0.2,0.3-0.5,0.5-0.7c0.1-0.2,0.3-0.3,0.5-0.4c0.1-0.1,0.3-0.2,0.4-0.2c0.1,0,0.3-0.1,0.4-0.1h0.2h0.3l0.2,0.1l0.2,0.1
	c0,0,0,0,0.1,0.1v0.1c0,0.1,0,0.1,0,0.2C204,91.6,204,91.7,204,91.8z"/>
<path class="st5" d="M211.2,94.6c0,0.2-0.1,0.3-0.2,0.4c-0.1,0.1-0.2,0.1-0.4,0.1h-4.6c0,0.4,0,0.7,0.1,1.1c0.1,0.3,0.2,0.6,0.4,0.8
	c0.2,0.2,0.4,0.4,0.7,0.5c0.3,0.1,0.7,0.2,1,0.2c0.3,0,0.6,0,0.9-0.1c0.2,0,0.5-0.1,0.7-0.2l0.5-0.2c0.1,0,0.2-0.1,0.3-0.1
	c0,0,0.1,0,0.1,0c0,0,0.1,0,0.1,0.1c0,0.1,0,0.1,0,0.2c0,0.1,0,0.2,0,0.2c0,0.1,0,0.1,0,0.2s0,0.1,0,0.1c0,0,0,0.1,0,0.1l-0.1,0.1
	c-0.1,0.1-0.2,0.1-0.2,0.1c-0.2,0.1-0.3,0.1-0.5,0.2c-0.3,0.1-0.5,0.1-0.8,0.2c-0.3,0.1-0.6,0.1-0.9,0.1c-0.5,0-1-0.1-1.5-0.2
	c-0.4-0.2-0.8-0.4-1.1-0.7c-0.3-0.3-0.5-0.7-0.6-1.2c-0.2-0.5-0.2-1.1-0.2-1.7c0-0.5,0.1-1.1,0.2-1.6c0.1-0.4,0.4-0.9,0.7-1.2
	c0.3-0.3,0.6-0.6,1-0.8c0.4-0.2,0.9-0.3,1.4-0.3c0.5,0,0.9,0.1,1.4,0.3c0.4,0.2,0.7,0.4,0.9,0.7c0.3,0.3,0.4,0.7,0.5,1.1
	c0.1,0.4,0.2,0.9,0.2,1.3L211.2,94.6z M209.9,94.2c0.1-0.6-0.1-1.1-0.4-1.6c-0.3-0.4-0.9-0.6-1.4-0.6c-0.6,0-1.1,0.2-1.4,0.7
	c-0.2,0.2-0.3,0.4-0.4,0.7c-0.1,0.3-0.1,0.5-0.1,0.8L209.9,94.2z"/>
</svg>
