<svg xmlns="http://www.w3.org/2000/svg" viewBox="0 0 60.2 51.7" xmlns:v="https://vecta.io/nano"><path d="M30.9 22a4.67 4.67 0 0 0-1 .5h0l-1.3-1.1-1.3 1.1.9 1.5-.6.9h0l-1.6-.3-.6 1.6 1.4.9c-.1.4-.1.7-.1 1.1h0l-1.5.5.2 1.7 1.7.1c.1.4.2.7.4 1h0l-1.1 1.2 1 1.4 1.5-.7c.3.3.7.6 1.1.9h0l-.3 1.6 1.5.6.8-1.4c.5.1 1.1.2 1.6.1h0l.6 1.5 1.6-.3v-1.7h0a4.67 4.67 0 0 0 1-.5h0l1.2 1 1.3-1.1-.8-1.5h0l.6-.9h.1l1.6.3.6-1.6-1.4-.9h0c.1-.4.1-.7.1-1.1h.1l1.5-.4-.2-1.7-1.7-.1-.1-.1c-.1-.4-.3-.8-.5-1.1h0l1.1-.9-1-1.4-1.4.7h0c-.3-.3-.7-.6-1.1-.9v-.1l.3-1.6-1.4-.6-.9 1.4h0c-.5-.1-1.1-.2-1.6-.1h0l-.6-1.5-1.6.3-.1 1.7h0zm6 3.6c1.5 2 1.1 4.8-.9 6.4-1.9 1.5-4.7 1.1-6.2-.8l-.1-.1c-1.5-2-1.1-4.8.9-6.4 1.9-1.5 4.7-1.1 6.2.8.1 0 .1.1.1.1h0z" fill="#5d9632"/><path d="M15.3 5.1c-.5.2-.9.4-1.3.7h0l-1.8-1.5-1.8 1.6L11.6 8l-.9 1.2h0l-2.2-.5-.9 2.2 2 1.3c-.1.5-.2 1-.2 1.5h0l-2.2.7.3 2.4 2.3.1c.1.5.3 1 .6 1.5h0L8.9 20l1.4 1.9 2.1-1c.5.5 1 .9 1.5 1.2h0l-.5 2.3 2.2.9 1.3-2c.7.2 1.5.2 2.2.2v.1l.8 2.1 2.3-.5v-2.4h0c.5-.2.9-.4 1.3-.7h0l1.8 1.5 1.8-1.5L26 20h0l.9-1.2h.1l2.2.4.8-2.2-2-1.3h0c.1-.5.1-1 .2-1.5h.1l2.2-.7-.5-2.3-2.3-.1-.2-.1c-.2-.5-.4-1.1-.7-1.5h.1l1.5-1.2-1.4-2-2 .9h0c-.4-.5-.9-.9-1.5-1.3v-.1l.5-2.3-2.2-.9-1.3 2h0c-.7-.2-1.5-.2-2.2-.2h0l-.8-2.1-2.3.5.1 2.3h0zm8.5 5.1c2.1 2.9 1.5 6.9-1.3 9-2.7 2.1-6.6 1.6-8.7-1.2 0-.1-.1-.1-.1-.2-2.1-2.9-1.5-6.8 1.3-9 2.7-2.1 6.6-1.5 8.7 1.2 0 .1 0 .1.1.2z" fill="#00a551"/><path d="M43.9 3.1c-.5.2-1 .4-1.5.7h0l-2-1.7-1.9 1.7 1.2 2.3c-.4.4-.7.9-1 1.4h0L36.3 7l-.9 2.4 2.2 1.4c-.1.6-.2 1.1-.2 1.7h0l-2.3.8.3 2.6 2.5.2c.1.5.4 1.1.6 1.6h0l-1.7 1.8 1.5 2.1 2.2-1.1a11.51 11.51 0 0 0 1.7 1.4h0l-.5 2.5 2.4 1 1.4-2.2c.8.2 1.6.2 2.5.2v.1l.9 2.4 2.5-.5v-2.6h0c.5-.2 1-.4 1.5-.7h0l1.9 1.6 1.9-1.7-1.2-2.3h0c.4-.4.7-.9 1-1.4h.1l2.4.5.9-2.4-2.3-1.3h0c.1-.5.2-1.1.2-1.6h.1l2.4-.8-.3-2.6-2.6-.1-.1-.1c-.2-.6-.4-1.2-.7-1.7l.1-.1 1.7-1.3-1.6-2.1-2.2 1h0c-.5-.5-1-1-1.6-1.3v-.5l.5-2.5-2.4-1-1.4 2.2h0c-.8-.2-1.6-.2-2.4-.2v-.1L46.4 0l-2.5.5v2.6h0zm9.2 5.6c2.3 3.1 1.6 7.4-1.4 9.8-3 2.3-7.2 1.7-9.5-1.3l-.1-.1c-2.3-3.1-1.6-7.4 1.4-9.8 3-2.3 7.2-1.7 9.5 1.3 0-.1.1 0 .1.1z" fill="#b1ba1e"/><path d="M9.5 27.6a11.94 11.94 0 0 0-1.6.8h0l-2-1.7-2.1 1.8 1.3 2.4c-.4.5-.7 1-1 1.5h0l-2.6-.5-1 2.6L2.8 36c-.1.6-.2 1.2-.2 1.8h0l-2.6.7.4 2.8 2.7.2c.1.6.4 1.2.7 1.7h0L1.9 45l1.6 2.2L5.9 46l1.8 1.5h0l-.5 2.7 2.5 1 1.5-2.3c.9.2 1.8.3 2.6.2v.1l1 2.5 2.7-.6v-2.8h0a11.94 11.94 0 0 0 1.6-.8v.1l2 1.7 2.1-1.8-1.3-2.4h0c.4-.5.7-.9 1-1.5h.1l2.6.5 1-2.6-2.4-1.4h0c.1-.6.2-1.2.2-1.8h.1l2.5-.8-.4-2.8-2.7-.2-.2-.2c-.2-.6-.4-1.2-.8-1.8l.1-.1 1.8-1.4-1.6-2.2-2.3 1.2h0c-.5-.5-1.1-1-1.8-1.4v-.1l.6-2.7-2.5-1-1.5 2.3h0c-.9-.2-1.7-.3-2.6-.2v-.1l-1-2.5-2.7.6.1 2.7h0zm10 5.8c2.5 3.4 1.8 8.2-1.5 10.8-3.4 2.4-8 1.8-10.5-1.5l-.1-.1c-2.5-3.4-1.8-8.2 1.5-10.8 3.3-2.5 7.9-1.9 10.4 1.4l.2.2h0z" fill="#00803e"/><script/></svg>